<svg width="180" height="107" viewBox="0 0 180 107" fill="none" xmlns="http://www.w3.org/2000/svg">
<g clip-path="url(#clip0_18_2)">
<path d="M89.79 83.9799C139.38 83.9799 179.58 76.4135 179.58 67.0799C179.58 57.7463 139.38 50.1799 89.79 50.1799C40.2004 50.1799 0 57.7463 0 67.0799C0 76.4135 40.2004 83.9799 89.79 83.9799Z" fill="#1D1D1B"/>
<path d="M138.02 75.13C142.847 75.13 146.76 70.0619 146.76 63.81C146.76 57.5581 142.847 52.49 138.02 52.49C133.193 52.49 129.28 57.5581 129.28 63.81C129.28 70.0619 133.193 75.13 138.02 75.13Z" fill="#9D9D9C"/>
<path d="M49.6802 64.1501C49.6802 70.4001 45.7702 75.4701 40.9402 75.4701C36.1102 75.4701 32.2002 70.4001 32.2002 64.1501C32.2002 57.9001 36.1102 52.8301 40.9402 52.8301C45.7702 52.8301 49.6802 57.9001 49.6802 64.1501Z" fill="#9D9D9C"/>
<path d="M118 84.4499L88.4801 83.7599C87.7301 83.7599 86.9901 83.7599 86.2501 83.7599C79.6601 84.1699 44.7901 86.0699 42.9301 80.7599C40.8201 74.7599 40.3901 68.1099 40.3901 61.3099C40.4001 27.5599 62.5101 0.129883 89.7901 0.129883C117.07 0.129883 139.17 27.5599 139.17 61.3999C138.96 67.7334 138.143 74.0322 136.73 80.2099C136.462 81.4158 135.786 82.4925 134.817 83.2591C133.849 84.0258 132.645 84.4357 131.41 84.4199H123.94C123.3 84.5999 118.66 84.4599 118 84.4499Z" fill="#706F6F"/>
<path d="M78.7798 66.1301C78.7798 71.5401 75.6498 75.9201 71.7798 75.9201C67.9098 75.9201 64.7798 72.5401 64.7798 67.1301C64.7798 61.7201 67.9098 56.3401 71.7798 56.3401C75.6498 56.3401 78.7798 60.7201 78.7798 66.1301Z" fill="#F6F6F6"/>
<path d="M108.84 76.9201C112.701 76.9201 115.83 72.537 115.83 67.1301C115.83 61.7232 112.701 57.3401 108.84 57.3401C104.98 57.3401 101.85 61.7232 101.85 67.1301C101.85 72.537 104.98 76.9201 108.84 76.9201Z" fill="#F6F6F6"/>
<path d="M55.5298 33.3299C44.2598 46.7899 45.5298 67.2299 46.3998 74.0799C46.6298 75.9499 43.2698 101.5 49.6798 105.55C60.8098 112.55 51.7898 52.8499 64.2198 38.0199C77.9298 21.6499 108.56 27.3199 96.3898 17.1199C92.8198 14.1299 69.2398 16.9999 55.5298 33.3299Z" fill="#3C3C3B"/>
<path d="M120.53 32.9099C104.27 18.0499 80.9999 15.9399 73.2399 15.6599C72.2783 15.551 71.3086 15.7784 70.4956 16.3034C69.6826 16.8284 69.0764 17.6186 68.7799 18.5399C66.5399 26.8399 98.1599 25.0899 115.85 41.7199C132.11 57.0199 124.45 99.0799 135.16 87.3599C138.3 83.9199 140.31 50.9999 120.53 32.9099Z" fill="#3C3C3B"/>
<path d="M54.4199 19.2899C39.8399 29.0699 39.2999 47.1699 38.1899 53.9999C37.8799 55.8599 28.3299 88.4299 39.1899 88.4299C47.7099 88.4299 45.3699 37.0199 61.4399 26.2399C79.1699 14.3399 106.49 25.9599 97.6399 12.7799C95.0499 8.87989 72.1499 7.38989 54.4199 19.2899Z" fill="#3C3C3B"/>
<path d="M127.69 23.57C109.37 11.34 86.0502 12.78 78.3302 13.67C77.3572 13.7021 76.4258 14.072 75.6958 14.7162C74.9659 15.3604 74.4831 16.2386 74.3302 17.2C73.3302 25.74 104.33 19.2001 124.33 32.9901C142.73 45.66 141.52 88.3901 150.33 75.18C153 71.3101 150 38.44 127.69 23.57Z" fill="#3C3C3B"/>
<path d="M135 94.5299C134.834 95.426 134.36 96.2359 133.659 96.8188C132.959 97.4017 132.076 97.7208 131.165 97.7208C130.253 97.7208 129.371 97.4017 128.67 96.8188C127.97 96.2359 127.495 95.426 127.33 94.5299C122.61 69.9999 113.9 25.1599 91.9998 22.2299C67.2898 18.9199 62.2498 43.4299 59.4698 43.4299C55.8398 43.4299 37.3898 3.50989 86.2598 0.169886C145 -3.84011 140.47 63.5599 135 94.5299Z" fill="#3C3C3B"/>
<path d="M81.0001 20.7801C69.7301 34.2401 78.0001 65.5701 78.8301 72.4101C79.0601 74.2901 75.6301 101.49 82.0301 105.54C93.1701 112.54 84.1401 52.8501 96.5701 38.0101C110.28 21.6401 112.24 13.2201 96.7901 9.59009C87.8101 7.50009 94.6601 4.41009 81.0001 20.7801Z" fill="#3C3C3B"/>
</g>
<defs>
<clipPath id="clip0_18_2">
<rect width="179.57" height="106.12" fill="white"/>
</clipPath>
</defs>
</svg>
