<svg width="241" height="241" viewBox="0 0 241 241" fill="none" xmlns="http://www.w3.org/2000/svg">
<g clip-path="url(#clip0_564_579)">
<path d="M137.243 205.057C129.164 229.441 166.5 232 166.5 232L149 237.5L124.5 241L98 239.5L81.5 234.5C113.749 228.566 104.736 204.185 104.736 204.185L137.243 205.057Z" fill="#F7941E"/>
<path opacity="0.4" d="M104.933 214.52C104.933 214.52 126.507 219.51 135.952 214.067C135.952 214.067 135.909 208.526 137.242 205.085C137.242 205.085 119.057 209.917 104.72 204.212C104.72 204.185 105.66 209.693 104.933 214.52Z" fill="#BCBEC0"/>
<path d="M140.128 98.2505L145.621 73.8938L151.311 48.6809" stroke="#603913" stroke-width="9" stroke-miterlimit="10" stroke-linecap="round"/>
<path d="M185.463 30.4541C185.463 30.4541 185.463 42.9978 180.489 54.6799C175.515 66.3619 165.551 77.2531 145.633 73.8936" stroke="#603913" stroke-width="9" stroke-miterlimit="10" stroke-linecap="round"/>
<path d="M161.287 30.4541C161.287 30.4541 167.901 51.5221 180.478 54.6799" stroke="#603913" stroke-width="9" stroke-miterlimit="10" stroke-linecap="round"/>
<path d="M143.052 99.3793C143.052 99.3793 149.557 80.0347 189.606 88.2317C189.606 88.2317 195.788 118.129 182.145 132.767C182.145 132.767 202.517 174.26 157.811 197.799C113.104 221.337 71.0219 192.808 68.0429 190.114C65.064 187.42 42.4458 170.224 58.3791 128.988C58.3791 128.988 47.0099 121.614 52.4977 88.2317C52.4977 88.2317 81.7352 79.1512 98.2916 98.534C98.2916 98.534 122.692 90.7187 143.052 99.3793Z" fill="#F7941E"/>
<path d="M152.345 103.044C152.345 103.044 156.242 95.1308 179.549 98.2668C179.549 98.2668 182.501 116.264 177.865 123.474C177.865 123.474 171.448 106.164 152.345 103.044Z" fill="#FACB5B"/>
<path d="M64.2327 123.474C64.2327 123.474 55.2138 108.934 59.9583 94.4654C59.9583 94.4654 77.2636 93.1183 88.4907 101.768C88.4907 101.768 68.6 111.558 64.2327 123.474Z" fill="#FACB5B"/>
<path d="M104.123 97.5303L94.0439 49.9514" stroke="#603913" stroke-width="9" stroke-miterlimit="10" stroke-linecap="round"/>
<path d="M59.6514 30.4541C59.6514 30.4541 60.1706 77.864 98.8479 74.668" stroke="#603913" stroke-width="9" stroke-miterlimit="10" stroke-linecap="round"/>
<path d="M82.8824 30.4541C82.8824 30.4541 80.9201 44.4649 65.5225 54.6799" stroke="#603913" stroke-width="9" stroke-miterlimit="10" stroke-linecap="round"/>
<path d="M98.292 98.5339C98.292 98.5339 119.861 126.403 117.068 151.092H125.152C125.152 151.092 122.965 110.538 143.053 99.3792C143.053 99.3792 124 88.9999 98.292 98.5339Z" fill="#FACB5B"/>
<path d="M121.003 149.762H125.266C127.999 149.762 129.677 151.856 128.322 153.536L126.19 156.17L124.058 158.804C122.697 160.484 119.303 160.484 117.947 158.804L115.81 156.164L113.678 153.53C112.323 151.85 114.017 149.756 116.734 149.756L121.003 149.762Z" fill="#603913"/>
<path d="M139.046 142.753C139.046 142.753 146.365 137.158 153.58 143.435C153.58 143.435 152.153 136.383 146.31 136.383C140.254 136.383 139.046 142.753 139.046 142.753Z" fill="#231F20" stroke="#231F20" stroke-miterlimit="10"/>
<path d="M103.064 141.924C103.064 141.924 95.9578 135.652 87.7588 141.21C87.7588 141.21 89.9452 134.333 96.0561 134.889C102.413 135.467 103.064 141.924 103.064 141.924Z" fill="#231F20" stroke="#231F20" stroke-miterlimit="10"/>
<path d="M133.962 170.731C118.139 201.818 108.19 170.731 108.19 170.731H133.962Z" fill="white"/>
</g>
<defs>
<clipPath id="clip0_564_579">
<rect width="140" height="212" fill="white" transform="translate(51 28)"/>
</clipPath>
</defs>
</svg>
