<svg width="241" height="241" viewBox="0 0 241 241" fill="none" xmlns="http://www.w3.org/2000/svg">
<g clip-path="url(#clip0_564_599)">
<path d="M141.59 211.427C132.579 232.059 162.5 234 162.5 234L144.5 239L124.5 241.5L99 240L85.5 235.5C112 229 105.399 210.684 105.399 210.684L141.59 211.427Z" fill="white"/>
<path opacity="0.4" d="M105.634 219.412C105.634 219.412 129.663 223.636 140.152 219.029C140.152 219.029 140.106 214.335 141.59 211.427C141.59 211.427 121.355 215.516 105.398 210.684C105.398 210.684 106.447 215.35 105.634 219.412Z" fill="#BCBEC0" fill-opacity="0.5"/>
<path d="M169.583 129.35L162.467 116.352L169.583 108.118H199C199 108.118 188.728 130.273 169.583 129.35Z" fill="#FFDFFF"/>
<path d="M74.5996 169.576C74.5996 169.576 56.6519 93.8231 119.423 87.2503C182.193 80.6775 169.689 164.282 169.689 164.282C169.689 164.282 181.44 180.363 167.115 197.811C152.79 215.258 122.597 215.11 122.597 215.11C122.597 215.11 99.4464 212.803 89.8348 207.079C86.3968 205.016 67.5665 194.977 74.5996 169.576Z" fill="white"/>
<path d="M145.563 90.9658C145.563 90.9658 185.706 83.5807 184.315 52.1245C184.315 52.1245 207.419 94.5568 166.122 116.352" fill="#F1F1F1"/>
<path d="M77.4138 116.777C77.4138 116.777 44.1384 108.312 58.0428 52C58.0428 52 75.339 89.8905 100.255 92.3091L77.4138 116.777Z" fill="#F1F1F1"/>
<path d="M64.882 108.478H44C44 108.478 51.2179 129.29 73.745 129.383L79.9324 114.695L64.882 108.478Z" fill="#FFDFFF"/>
<path d="M123.485 199.449C140.065 199.449 153.507 193.659 153.507 186.516C153.507 179.373 140.065 173.583 123.485 173.583C106.904 173.583 93.4624 179.373 93.4624 186.516C93.4624 193.659 106.904 199.449 123.485 199.449Z" fill="#F5DA6E"/>
<path d="M169.689 164.282C111.415 170.223 126.65 86.8856 126.65 86.8856C126.65 86.8856 152.356 84.8132 163.798 108.118C175.239 131.423 169.689 164.282 169.689 164.282Z" fill="#020ACD"/>
<path d="M74.0916 167.079C134.982 167.107 119.377 87.2503 119.377 87.2503C119.377 87.2503 102.094 84.2501 83.7124 101.591C63.5097 120.673 74.0916 167.079 74.0916 167.079Z" fill="#020ACD"/>
<path d="M136.756 187.924C138.759 187.924 140.383 187.168 140.383 186.235C140.383 185.302 138.759 184.545 136.756 184.545C134.752 184.545 133.128 185.302 133.128 186.235C133.128 187.168 134.752 187.924 136.756 187.924Z" fill="#231F20" stroke="#231F20" stroke-miterlimit="10"/>
<path d="M110.32 187.924C112.323 187.924 113.947 187.168 113.947 186.235C113.947 185.302 112.323 184.545 110.32 184.545C108.316 184.545 106.692 185.302 106.692 186.235C106.692 187.168 108.316 187.924 110.32 187.924Z" fill="#231F20" stroke="#231F20" stroke-miterlimit="10"/>
<path d="M141.654 137.391C141.654 137.391 147.842 132.651 153.941 137.963C153.941 137.963 152.735 132 147.796 132C142.676 131.981 141.654 137.391 141.654 137.391Z" fill="#231F20" stroke="#231F20" stroke-miterlimit="10"/>
<path d="M101.993 136.671C101.993 136.671 95.9856 131.363 89.0542 136.066C89.0542 136.066 90.9026 130.241 96.0688 130.717C101.443 131.206 101.993 136.671 101.993 136.671Z" fill="#231F20" stroke="#231F20" stroke-miterlimit="10"/>
</g>
<defs>
<clipPath id="clip0_564_599">
<rect width="155" height="189" fill="white" transform="translate(44 52)"/>
</clipPath>
</defs>
</svg>
