<svg width="69" height="55" viewBox="0 0 69 55" fill="none" xmlns="http://www.w3.org/2000/svg">
<path d="M20.2666 21.8192C20.0114 23.2281 19.6258 24.6058 19.1155 25.9318C18.8777 26.2474 18.5116 26.4515 18.2116 26.7129C17.9385 26.9587 17.7038 27.25 17.5164 27.5759C17.5059 27.4505 17.4916 27.3265 17.4735 27.2039L17.4705 27.247C17.4409 27.0344 17.4009 26.8219 17.3536 26.6189C17.1907 25.9148 16.9534 25.2261 16.7891 24.5241C16.7891 24.3886 16.763 24.2286 16.7649 24.1335C16.7733 23.6462 16.8143 23.16 16.835 22.6727C16.8483 22.3953 16.8567 22.1174 16.8518 21.8394C16.8468 21.5615 16.8281 21.2735 16.837 20.9892C16.8434 20.7878 16.8636 20.5869 16.8715 20.3855C16.8868 19.9952 16.8567 19.6044 16.7817 19.2223C16.7363 19.268 16.7363 19.3434 16.7398 19.4104C16.8039 20.8442 16.7348 22.2814 16.5335 23.7004C16.3727 24.0676 16.0628 24.3599 15.829 24.6915C15.751 24.8026 15.6803 24.9194 15.6173 25.0411C15.5887 24.8711 15.5517 24.7021 15.5087 24.5358C15.5087 24.5501 15.5087 24.565 15.5087 24.5793C15.4564 24.3716 15.3938 24.1675 15.3247 23.9698C15.0879 23.2907 14.778 22.6365 14.5392 21.9595C14.5249 21.8251 14.482 21.6694 14.4731 21.5748C14.4297 21.0891 14.4154 20.6013 14.3863 20.115C14.3695 19.8376 14.3483 19.5602 14.3137 19.285C14.2792 19.0097 14.2294 18.7259 14.2081 18.4438C14.1924 18.2429 14.1909 18.041 14.1771 17.8401C14.1506 17.4504 14.0787 17.0658 13.9629 16.6954C13.923 16.7486 13.9313 16.8214 13.9417 16.8873C14.1594 18.3035 14.245 19.7396 14.1973 21.1741C14.0769 21.5594 13.8026 21.8883 13.6052 22.2465C13.5835 22.2863 13.5628 22.3262 13.543 22.3671C13.5154 22.2821 13.4861 22.1979 13.4552 22.1147C13.4552 22.129 13.4597 22.1434 13.4616 22.1577C13.3886 21.9574 13.3057 21.7618 13.2149 21.5732C12.9095 20.9259 12.5355 20.3122 12.2281 19.6681C12.2 19.5358 12.1413 19.3859 12.123 19.2929C12.0298 18.8147 11.9661 18.3327 11.8877 17.8523C11.8428 17.5786 11.793 17.306 11.7308 17.0361C11.6686 16.7661 11.5902 16.4903 11.5398 16.2124C11.5038 16.0147 11.4816 15.8144 11.4476 15.6162C11.3813 15.232 11.2706 14.8584 11.118 14.5039C11.0834 14.5571 11.0992 14.6331 11.118 14.6974C11.4789 16.0791 11.7103 17.4964 11.8087 18.9279C11.7436 19.2504 11.5729 19.548 11.4254 19.8514C11.3844 19.7112 11.3385 19.5725 11.2877 19.4364C11.2877 19.4508 11.2922 19.4651 11.2941 19.4795C11.2206 19.2791 11.1377 19.083 11.0474 18.8949C10.7415 18.2466 10.3665 17.6318 10.0606 16.9861C10.0325 16.8538 9.97379 16.7039 9.95553 16.6104C9.86228 16.1322 9.79863 15.648 9.71968 15.1671C9.67478 14.8929 9.62495 14.6198 9.56229 14.3493C9.49963 14.0788 9.42167 13.8025 9.37135 13.524C9.33533 13.3258 9.31313 13.125 9.27908 12.9267C9.21269 12.5413 9.10163 12.1664 8.9485 11.8108C8.91396 11.8639 8.92975 11.9399 8.9485 12.0042C9.31026 13.3888 9.54249 14.8089 9.64173 16.2432C9.56081 16.6412 9.31954 17.0015 9.16017 17.381C9.09282 17.5438 9.03852 17.7125 8.99784 17.8853C8.74275 17.3384 8.31892 16.8878 7.88128 16.4877C7.40169 16.0493 6.87523 15.6374 6.26539 15.4737C5.9136 15.3786 5.5253 15.36 5.20853 15.1921C4.28749 14.278 3.45375 13.2668 2.71982 12.1737C2.68578 12.1206 2.64483 12.0675 2.58661 12.0621C2.73977 12.3903 2.93074 12.6963 3.155 12.973C3.27046 13.1154 3.39479 13.2498 3.50877 13.3938C3.66962 13.5958 3.81024 13.8152 3.96072 14.0257C4.11121 14.2361 4.26663 14.4317 4.42748 14.6267C4.7097 14.9695 5.00278 15.3016 5.27514 15.6539C5.32793 15.723 5.39651 15.8569 5.47003 15.9563C5.73203 16.5754 5.93284 17.2316 6.1978 17.8497C6.27477 18.0303 6.36013 18.2099 6.45387 18.3848L6.42822 18.3545C6.5042 18.4962 6.58643 18.6351 6.67492 18.7711C6.26145 18.6282 5.83614 18.5378 5.40392 18.5702C5.04176 18.5979 4.66925 18.7095 4.31844 18.6569C3.17897 18.0971 2.09435 17.416 1.08075 16.6237C1.03388 16.587 0.978616 16.5477 0.921875 16.5626C1.16231 16.8229 1.43217 17.0497 1.72513 17.2375C1.87611 17.3342 2.03301 17.4203 2.183 17.5186C2.39418 17.6568 2.59105 17.8183 2.79531 17.9682C2.99958 18.118 3.20286 18.2509 3.41206 18.3826C3.77965 18.6138 4.15216 18.8312 4.51481 19.0735C4.58487 19.1208 4.68849 19.2249 4.78717 19.2951C5.21495 19.7957 5.59536 20.3504 6.0256 20.8505C6.15043 20.9961 6.28315 21.138 6.42032 21.2719L6.38825 21.2533C6.53968 21.4016 6.69988 21.5392 6.86784 21.6651C6.49384 21.747 6.11885 21.9138 5.74633 21.908C4.47416 21.4799 3.24504 20.9156 2.07741 20.2234C2.02314 20.1915 1.95999 20.1581 1.90177 20.1814C2.18784 20.4218 2.5006 20.6228 2.83281 20.7798C3.00451 20.8601 3.17819 20.9291 3.35138 21.0115C3.59117 21.1268 3.81912 21.2692 4.05299 21.3984C4.28686 21.5275 4.51826 21.6386 4.75559 21.748C5.17202 21.9393 5.59437 22.1158 6.00488 22.3214C6.08531 22.3618 6.20717 22.4569 6.32016 22.5164C6.83329 22.9841 7.3035 23.516 7.8196 23.9826C7.96762 24.1181 8.12699 24.2483 8.2908 24.3705L8.25478 24.3556C8.35346 24.4284 8.45214 24.4975 8.55082 24.5629C8.19903 24.6654 7.84871 24.8328 7.49445 24.8445C6.20589 24.4776 4.95465 23.9727 3.75942 23.3375C3.70416 23.3077 3.63952 23.2774 3.58278 23.3034C3.87827 23.5301 4.19902 23.716 4.5375 23.8566C4.71217 23.9289 4.89078 23.989 5.06495 24.0634C5.31165 24.1696 5.54306 24.2988 5.78186 24.4162C6.02067 24.5336 6.25652 24.6341 6.49828 24.7319C6.92211 24.9035 7.35136 25.0592 7.76977 25.2452C7.85167 25.2813 7.97749 25.3706 8.09295 25.4248C8.62483 25.8675 9.11626 26.376 9.6511 26.8176C9.80652 26.9457 9.96934 27.069 10.1381 27.1827L10.1016 27.1694C10.1598 27.2093 10.2185 27.2475 10.2782 27.2852C10.0088 27.3639 9.73893 27.4495 9.47052 27.4447C8.19822 27.0165 6.96895 26.4522 5.80111 25.7601C5.74733 25.7277 5.68417 25.6948 5.62595 25.7181C5.91185 25.9586 6.22464 26.1594 6.55699 26.316C6.7287 26.3967 6.90484 26.4658 7.07556 26.5482C7.31535 26.6635 7.5433 26.8059 7.77717 26.9351C8.01104 27.0642 8.24244 27.1752 8.47977 27.2847C8.8962 27.476 9.31855 27.6524 9.72906 27.8581C9.80899 27.8985 9.93136 27.9936 10.0443 28.0531C10.5575 28.5208 11.0277 29.0527 11.5438 29.5193C11.6918 29.6548 11.8512 29.785 12.015 29.9072L11.979 29.8923C12.1107 29.9917 12.2469 30.0852 12.386 30.1708C12.2162 30.2348 12.0394 30.2752 11.8601 30.2909C10.5638 29.9564 9.3018 29.4833 8.09295 28.8784C8.0367 28.8502 7.97157 28.8215 7.91532 28.8492C8.21547 29.0694 8.54023 29.2479 8.88189 29.3806C9.05804 29.4486 9.23862 29.5044 9.41427 29.574C9.66097 29.6718 9.89681 29.7972 10.1386 29.9088C10.3803 30.0204 10.6177 30.1144 10.8614 30.2058C11.2887 30.3653 11.7214 30.5114 12.1443 30.6868C12.2262 30.7213 12.3544 30.8074 12.4709 30.8584C13.0136 31.2872 13.5149 31.7836 14.0591 32.2114C14.217 32.3357 14.3828 32.4547 14.5525 32.5642C14.5407 32.56 14.5279 32.5562 14.516 32.5515C15.2379 33.0207 16.0638 33.3246 16.8735 33.1323C17.1093 33.076 17.3368 32.9798 17.4888 32.8257C17.5968 32.9142 17.6993 33.0102 17.7957 33.1131C18.2389 33.6219 18.7068 34.1051 19.1974 34.5607C19.1796 34.4076 18.8609 34.1053 18.8431 33.9528C19.4229 34.5171 20.0387 35.037 20.686 35.5087L20.5646 35.3211C24.7556 39.3067 27.9553 40.4146 27.9553 40.4146L18.9369 31.0051C19.1128 30.5493 19.219 30.0658 19.2512 29.5735C19.2472 29.5868 19.2428 29.5995 19.2388 29.6128C19.2571 29.4002 19.2645 29.1877 19.264 28.9751C19.264 28.2492 19.1846 27.5201 19.1806 26.7964C19.2107 26.6651 19.2211 26.503 19.2438 26.4111C19.3602 25.9397 19.5053 25.4774 19.6355 25.0103C19.71 24.7446 19.7801 24.4789 19.8369 24.2058C19.8936 23.9326 19.9395 23.6499 20.011 23.3778C20.0604 23.1833 20.126 22.9936 20.1783 22.8002C20.2796 22.4252 20.3369 22.038 20.349 21.6476C20.2952 21.68 20.2784 21.7539 20.2666 21.8192Z" fill="#D19B3B"/>
<path d="M19.8583 30.6375C20.1944 32.0266 20.4005 33.4485 20.4736 34.8818C20.3858 35.2772 20.1381 35.6316 19.9728 36.0073C19.8251 36.3561 19.7306 36.7283 19.6931 37.1095C19.6329 37.0011 19.5695 36.8948 19.5031 36.7906C19.5085 36.8044 19.513 36.8177 19.5184 36.831C19.4059 36.6535 19.2855 36.4824 19.1602 36.3193C18.7304 35.7602 18.24 35.2506 17.8098 34.6942C17.755 34.572 17.6672 34.4402 17.6306 34.3536C17.4422 33.9099 17.2818 33.4539 17.1067 33.0038C17.008 32.7477 16.9029 32.4932 16.7869 32.245C16.671 31.9968 16.5402 31.746 16.4327 31.4867C16.3572 31.3023 16.295 31.1147 16.221 30.9266C16.0782 30.5666 15.8939 30.2273 15.6723 29.9169C15.6501 29.9791 15.6807 30.0476 15.7098 30.1061C16.3441 31.3686 16.8595 32.6963 17.2483 34.0693C17.2512 34.4758 17.0894 34.8839 17.0119 35.2915C16.9867 35.4281 16.9702 35.5665 16.9626 35.7055C16.8688 35.5657 16.7652 35.4308 16.6621 35.3006L16.6813 35.3388C16.5506 35.1762 16.4124 35.02 16.2708 34.8749C15.7839 34.3733 15.2421 33.928 14.7546 33.429C14.6875 33.3147 14.5859 33.1941 14.5405 33.1101C14.3056 32.693 14.0964 32.2599 13.8754 31.8348C13.7486 31.593 13.6178 31.3528 13.4762 31.1206C13.3346 30.8883 13.1757 30.6561 13.0425 30.4117C12.9483 30.2379 12.8654 30.0567 12.7726 29.8803C12.5918 29.5414 12.3724 29.2283 12.1194 28.9482C12.1041 29.013 12.1416 29.0768 12.1771 29.1315C12.9428 30.3065 13.5972 31.5612 14.1305 32.8768C14.1769 33.2802 14.0599 33.7053 14.0264 34.1198C14.0229 34.1655 14.0204 34.2117 14.019 34.2574C13.9598 34.1937 13.9001 34.1315 13.8384 34.0709C13.8463 34.0826 13.8537 34.0948 13.8611 34.1065C13.7131 33.9604 13.5616 33.8227 13.4057 33.6941C12.8708 33.2531 12.2866 32.8747 11.7513 32.4363C11.6728 32.33 11.5599 32.2237 11.5046 32.1478C11.2288 31.7609 10.9776 31.3549 10.7152 30.9585C10.5647 30.7332 10.4102 30.51 10.2454 30.2963C10.0806 30.0827 9.90006 29.8712 9.74217 29.6427C9.63067 29.4833 9.53002 29.3106 9.41949 29.148C9.20552 28.8321 8.95555 28.5465 8.67544 28.2977C8.66656 28.3636 8.71048 28.4231 8.75143 28.4731C9.6323 29.5504 10.4108 30.72 11.0753 31.9644C11.1459 32.2833 11.1119 32.6335 11.101 32.9741C11.0077 32.8678 10.9105 32.7615 10.8099 32.6643L10.8331 32.7004C10.6851 32.5537 10.5326 32.4161 10.3767 32.287C9.84085 31.8454 9.25568 31.466 8.71936 31.027C8.64041 30.9207 8.52742 30.8145 8.47266 30.7374C8.19635 30.35 7.94423 29.9435 7.67977 29.5465C7.52879 29.3202 7.37435 29.097 7.20906 28.8828C7.04377 28.6687 6.86368 28.4577 6.7053 28.2276C6.5933 28.0682 6.49264 27.8949 6.38212 27.7323C6.16751 27.4164 5.91687 27.1307 5.6361 26.8821C5.62722 26.948 5.67163 27.0075 5.71258 27.0574C6.59494 28.1371 7.37493 29.309 8.04093 30.5557C8.12777 30.9516 8.05524 31.3894 8.06412 31.8061C8.06865 31.9846 8.08747 32.1624 8.12037 32.3375C7.67088 31.9655 7.10742 31.7529 6.55186 31.5983C5.94349 31.4266 5.30405 31.3023 4.68779 31.4389C4.33254 31.517 3.97631 31.6806 3.62205 31.6775C2.4243 31.2835 1.26626 30.7612 0.165288 30.1183C0.115948 30.088 0.054274 30.0572 0 30.0801C0.270034 30.3041 0.565082 30.4909 0.878248 30.6359C1.04008 30.7108 1.20587 30.7741 1.36671 30.8485C1.59269 30.9548 1.80782 31.0881 2.02837 31.2077C2.24891 31.3273 2.46651 31.4309 2.69002 31.5319C3.08474 31.7088 3.47945 31.872 3.86727 32.0633C3.94276 32.1005 4.05821 32.1892 4.16331 32.2445C4.64832 32.6808 5.09287 33.1771 5.58035 33.6123C5.72245 33.7393 5.87145 33.8615 6.02441 33.9752L5.98938 33.9598C6.1147 34.0534 6.24447 34.141 6.37719 34.2213C5.94695 34.2856 5.52608 34.403 5.1506 34.6331C4.83532 34.8266 4.54421 35.1013 4.20673 35.2177C2.9545 35.2444 1.70293 35.1362 0.470705 34.8946C0.413471 34.8834 0.348341 34.8739 0.302948 34.9132C0.624251 35.0359 0.958596 35.1146 1.29813 35.1475C1.47329 35.1645 1.64943 35.1688 1.82459 35.1874C2.07129 35.2134 2.31256 35.2671 2.55679 35.3069C2.80103 35.3468 3.03786 35.3723 3.27963 35.393C3.70346 35.4302 4.12877 35.4515 4.55161 35.503C4.63401 35.5131 4.7692 35.5594 4.88614 35.5758C5.47328 35.8277 6.03921 36.1508 6.62784 36.4011C6.79905 36.4734 6.97322 36.5398 7.15528 36.5956H7.11927C7.31526 36.6587 7.51485 36.708 7.71677 36.7433C7.41234 36.9915 7.14147 37.3167 6.80349 37.4873C5.48454 37.6945 4.14966 37.7589 2.81879 37.6797C2.75712 37.6759 2.68656 37.6754 2.64413 37.7232C2.9984 37.8074 3.36111 37.8431 3.72369 37.8295C3.91068 37.8221 4.09719 37.8019 4.28419 37.7966C4.54668 37.7891 4.80966 37.8109 5.07363 37.8184C5.3376 37.8258 5.58973 37.8184 5.84728 37.8061C6.29973 37.7843 6.75168 37.7466 7.20413 37.7408C7.29245 37.7408 7.44096 37.7684 7.56678 37.7695C8.21757 37.9517 8.85455 38.2121 9.50781 38.3923C9.69727 38.4454 9.89167 38.489 10.088 38.5225L10.0496 38.5251C10.166 38.5457 10.2828 38.5621 10.3999 38.5745C10.1236 38.8307 9.8754 39.1453 9.5611 39.3185C8.25201 39.5887 6.92107 39.7168 5.58824 39.7011C5.52657 39.7011 5.45601 39.7011 5.41556 39.7543C5.7729 39.8208 6.13659 39.8386 6.49807 39.8074C6.68507 39.7909 6.8701 39.7622 7.0571 39.7479C7.31909 39.7277 7.58257 39.7367 7.84654 39.7314C8.11051 39.7261 8.36213 39.707 8.6192 39.682C9.07016 39.6389 9.51965 39.5794 9.9721 39.5518C10.0599 39.5465 10.2094 39.5683 10.3352 39.5635C10.9924 39.7144 11.6403 39.944 12.3 40.0949C12.4914 40.1385 12.6873 40.1735 12.8851 40.1974L12.8471 40.2022C12.9152 40.2113 12.9843 40.2182 13.0529 40.224C12.8412 40.4206 12.6325 40.6236 12.3888 40.7453C11.07 40.9523 9.73525 41.0166 8.40457 40.9372C8.3424 40.9334 8.27234 40.9329 8.22941 40.9807C8.58369 41.0649 8.9464 41.1006 9.30897 41.087C9.49646 41.0801 9.68248 41.0599 9.86997 41.0541C10.1325 41.0466 10.3949 41.0689 10.6594 41.0759C10.9239 41.0828 11.1755 41.0759 11.4331 41.0636C11.8855 41.0424 12.337 41.0041 12.7899 40.9983C12.8782 40.9983 13.0267 41.0264 13.1526 41.0275C13.8029 41.2092 14.4403 41.4696 15.0931 41.6498C15.2826 41.7029 15.4774 41.7465 15.6738 41.78L15.6353 41.7832C15.7942 41.8113 15.9546 41.832 16.1144 41.8443C15.987 41.9813 15.8438 42.1001 15.6881 42.1976C14.3855 42.5009 13.0578 42.6628 11.7252 42.6807C11.663 42.6807 11.5929 42.686 11.5534 42.7376C11.9128 42.7951 12.2775 42.8037 12.6389 42.7631C12.8254 42.7423 13.01 42.7099 13.1965 42.6897C13.458 42.6626 13.7214 42.6653 13.9859 42.6536C14.2504 42.6419 14.5005 42.6159 14.7571 42.5845C15.2071 42.5314 15.6551 42.4591 16.1065 42.4198C16.1944 42.4123 16.3444 42.4304 16.4702 42.4198C17.1308 42.5537 17.7831 42.7668 18.4438 42.898C18.6362 42.9363 18.8331 42.9666 19.0314 42.9857L18.9929 42.9916C19.8317 43.0777 20.6991 42.9666 21.3514 42.4161C21.5418 42.2566 21.7086 42.0621 21.7831 41.8522C21.916 41.8821 22.047 41.921 22.1754 41.9686C22.7793 42.2206 23.3953 42.4379 24.0207 42.6196C23.9432 42.4905 23.5347 42.3661 23.4572 42.237C24.2066 42.4756 24.9706 42.6573 25.7436 42.7806L25.5591 42.6679C30.9371 44.3068 34.2686 43.8142 34.2686 43.8142L22.3515 39.5417C22.3266 39.0495 22.2278 38.565 22.0589 38.1069C22.0589 38.1207 22.0624 38.1345 22.0638 38.1484C21.9948 37.9475 21.9158 37.7509 21.8305 37.5638C21.5344 36.9102 21.1737 36.2884 20.8792 35.6385C20.8535 35.5057 20.7973 35.3548 20.7805 35.2612C20.6961 34.783 20.6414 34.2978 20.5713 33.8164C20.5313 33.5416 20.4864 33.2679 20.4287 32.9969C20.371 32.7259 20.2985 32.448 20.2531 32.1695C20.221 31.9708 20.2037 31.7699 20.1717 31.5712C20.1124 31.1857 20.0085 30.8097 19.8623 30.452C19.8273 30.4988 19.8416 30.5727 19.8583 30.6375Z" fill="#D19B3B"/>
<path d="M31.6661 48.7227C31.5289 48.6887 28.2507 47.839 23.7465 44.2174C17.9244 39.5374 11.9049 31.3421 11.8462 31.2597L12.4876 30.7145C12.5473 30.7958 18.5017 38.9018 24.235 43.5112C28.5887 47.011 31.8185 47.8565 31.8506 47.8645L31.6661 48.7227Z" fill="#FFD243"/>
<path d="M22.5842 43.2375C22.555 43.0871 22.2141 42.8124 22.185 42.6636C22.8059 43.1745 23.4593 43.638 24.1403 44.0506L23.9509 43.8035L25.7725 44.6681C24.4897 43.6828 23.3548 42.4893 22.2644 41.2596C22.0715 41.0423 21.8776 40.8202 21.7429 40.5571C21.6689 40.4126 21.6048 40.2479 21.471 40.1681C21.3824 40.1212 21.2827 40.1041 21.1849 40.1193C20.9736 40.1475 20.777 40.2504 20.6258 40.4118C20.4747 40.5733 20.3775 40.7842 20.3495 41.0115C20.3042 41.4669 20.8094 41.6561 21.0763 41.9196C21.5569 42.3874 22.0602 42.8273 22.5842 43.2375Z" fill="#E0AA3D"/>
<path d="M20.1141 41.2128C19.7396 41.1358 19.4406 40.8408 19.1634 40.5608L17.8677 39.2466C17.0102 38.3762 16.1467 37.4994 15.454 36.4722C15.0563 35.8823 14.7109 35.2382 14.2007 34.7589C13.8795 34.4576 13.4996 34.2275 13.2139 33.8864C12.9179 33.5319 12.7422 33.0744 12.4294 32.738C12.0697 32.3517 11.5522 32.1492 11.2482 31.7103C10.9236 31.2405 10.9088 30.5943 10.6201 30.0964C10.3946 29.7085 9.99055 29.3322 10.1144 28.8949C10.2027 28.5824 10.5506 28.4246 10.8506 28.4698C11.1505 28.5149 11.4096 28.7153 11.6449 28.9209C12.0105 29.2398 12.3559 29.5969 12.611 30.0231C12.8084 30.3547 12.9514 30.7245 13.1725 31.0386C13.6545 31.7246 14.4504 32.0658 15.0178 32.6716C15.5605 33.2503 15.8645 34.0367 16.3436 34.6771C16.9179 35.445 17.7172 35.9711 18.4237 36.5981C19.1441 37.2358 19.7717 37.9888 20.3756 38.7556C20.5903 39.0277 20.8059 39.3088 20.9268 39.6415C21.1661 40.2967 20.9643 41.3877 20.1141 41.2128Z" fill="#E0AA3D"/>
<path d="M11.4406 23.9496C11.3558 23.6839 11.2581 23.4182 11.1865 23.144C11.1372 22.9495 11.0982 22.7513 11.0489 22.5594C10.954 22.1802 10.8151 21.8155 10.6354 21.4738C10.6053 21.5322 10.627 21.6045 10.6487 21.6672C11.1569 23.1354 11.5151 24.6589 11.7169 26.2107C11.7386 26.3797 11.7608 26.5545 11.8467 26.698C11.9158 26.8133 12.1309 26.9159 12.1634 26.7102C12.1866 26.5657 12.0445 26.3047 12.0066 26.1666C11.8768 25.6979 11.7761 25.2212 11.6612 24.7488C11.5941 24.4815 11.5235 24.2131 11.4406 23.9496Z" fill="#FFD243"/>
<path d="M13.8964 31.4521C14.1925 30.4068 13.8022 29.2765 13.2703 28.3466C12.7384 27.4166 12.0546 26.5744 11.6722 25.5647C11.7117 26.0695 11.4299 26.5287 11.2725 27.0064C11.048 27.6871 11.0752 28.4327 11.1531 29.1501C11.2375 29.9312 11.3924 30.7379 11.8395 31.3602C12.1217 31.7534 12.543 32.0967 12.994 32.228C13.4874 32.373 13.7603 31.9352 13.8964 31.4521Z" fill="#FFD243"/>
<path d="M12.7933 31.5888C12.7826 31.6264 12.779 31.6659 12.7826 31.7051C12.7863 31.7442 12.7971 31.7822 12.8145 31.8168C12.8377 31.8476 12.8666 31.8729 12.8992 31.8912C12.9319 31.9095 12.9678 31.9203 13.0045 31.923C13.1169 31.9369 13.2308 31.9188 13.3347 31.8705C13.4386 31.8222 13.5289 31.7454 13.5966 31.6478C13.674 31.5372 13.6721 31.4825 13.6592 31.3592C13.6449 31.22 13.6642 31.077 13.6558 30.9341C13.6131 30.2323 13.4215 29.5503 13.0958 28.9408C13.3425 29.545 13.414 30.2199 13.3696 30.8778C13.3454 31.2338 13.2803 31.6058 13.0657 31.8779C13.2098 31.3057 13.1781 30.6987 12.9754 30.1476" fill="#EDB73E"/>
<path d="M13.8079 26.4352C13.7236 26.1695 13.6264 25.9038 13.5548 25.6312C13.5055 25.4373 13.4665 25.2396 13.4177 25.0467C13.322 24.6697 13.183 24.3071 13.0037 23.9674C12.9736 24.0259 12.9948 24.0981 13.0165 24.1603C13.5241 25.6257 13.8816 27.1464 14.0828 28.6953C14.105 28.8638 14.1267 29.0386 14.2125 29.1815C14.2816 29.2968 14.4962 29.3994 14.5288 29.1943C14.552 29.0497 14.4104 28.7894 14.3719 28.6512C14.2426 28.1836 14.1425 27.7079 14.0265 27.2366C13.9614 26.9661 13.8923 26.6988 13.8079 26.4352Z" fill="#FFD243"/>
<path d="M16.2566 33.9246C16.5526 32.8815 16.1629 31.7533 15.6315 30.825C15.1001 29.8966 14.4182 29.0586 14.0353 28.0494C14.0743 28.5537 13.7931 29.0123 13.6362 29.4885C13.4122 30.1681 13.4388 30.9121 13.5168 31.6284C13.6016 32.408 13.7561 33.2131 14.2021 33.8343C14.4838 34.2265 14.9047 34.5692 15.3542 34.7005C15.8461 34.844 16.1185 34.4072 16.2566 33.9246Z" fill="#FFD243"/>
<path d="M16.5529 28.4458C16.4961 28.1695 16.4261 27.8958 16.3831 27.6168C16.3521 27.4181 16.3338 27.2167 16.3062 27.0179C16.25 26.6319 16.1489 26.255 16.0052 25.8961C15.9692 25.9493 15.983 26.0247 15.9983 26.0895C16.3531 27.606 16.5533 29.1596 16.5953 30.7229C16.5998 30.8929 16.6037 31.0693 16.6743 31.2218C16.731 31.3446 16.9343 31.4716 16.9876 31.2718C17.0251 31.1304 16.9111 30.8552 16.8889 30.7133C16.808 30.235 16.7567 29.7488 16.6915 29.2663C16.6506 28.9915 16.6081 28.7173 16.5529 28.4458Z" fill="#FFD243"/>
<path d="M18.216 36.1795C18.6156 35.1778 18.3443 34.0103 17.911 33.0251C17.4778 32.0399 16.8853 31.1259 16.6075 30.0774C16.5951 30.5828 16.269 31.0052 16.0647 31.459C15.7726 32.1079 15.7238 32.8508 15.7278 33.5719C15.7322 34.3568 15.8037 35.1751 16.1837 35.8452C16.4234 36.2704 16.8068 36.6594 17.2405 36.8427C17.7162 37.0436 18.0314 36.6429 18.216 36.1795Z" fill="#FFD243"/>
<path d="M19.2656 30.7651C19.2389 30.4835 19.1985 30.2029 19.1857 29.9202C19.1768 29.7193 19.1812 29.5174 19.1738 29.316C19.1594 28.9256 19.0994 28.5387 18.9952 28.1644C18.9538 28.2138 18.9597 28.2893 18.9676 28.3552C19.1572 29.9056 19.1893 31.4737 19.0633 33.0316C19.0495 33.2005 19.0347 33.3764 19.0885 33.5364C19.1314 33.6655 19.3199 33.817 19.3944 33.6251C19.4467 33.4896 19.3628 33.2 19.3544 33.0581C19.3253 32.5714 19.3268 32.0835 19.3125 31.5957C19.3041 31.3194 19.2912 31.0414 19.2656 30.7651Z" fill="#FFD243"/>
<path d="M20.1032 38.6536C20.607 37.7082 20.4629 36.5152 20.1387 35.4822C19.8146 34.4492 19.3236 33.4682 19.1598 32.3921C19.0937 32.8927 18.7241 33.2716 18.472 33.6983C18.1123 34.3062 17.9836 35.0379 17.9105 35.7548C17.8306 36.5349 17.8119 37.3565 18.1192 38.0696C18.3122 38.5202 18.6511 38.9555 19.0621 39.1919C19.5111 39.4512 19.8674 39.091 20.1032 38.6536Z" fill="#FFD243"/>
<path d="M19.9741 38.0984C20.078 37.4058 20.0333 36.6969 19.8434 36.0259C19.9578 36.6726 19.8873 37.3464 19.7077 37.9756C19.609 38.3162 19.4694 38.6627 19.2044 38.8753C19.4632 38.3534 19.5584 37.7554 19.4758 37.1705C19.4635 37.4697 19.4477 37.7822 19.308 38.0415C19.2168 38.2115 19.0761 38.3486 18.9972 38.5261C18.9789 38.5601 18.9672 38.5977 18.9626 38.6367C18.958 38.6757 18.9607 38.7152 18.9705 38.753C18.9866 38.7888 19.0092 38.8206 19.0372 38.8465C19.0651 38.8723 19.0977 38.8917 19.1329 38.9034C19.2397 38.9445 19.3546 38.9546 19.4662 38.9327C19.5777 38.9108 19.6819 38.8576 19.7684 38.7786C19.8671 38.6903 19.8764 38.6361 19.8893 38.5128C19.905 38.3731 19.9544 38.2386 19.9741 38.0984Z" fill="#EDB73E"/>
<path d="M5.82778 24.1286C5.6615 23.932 5.5046 23.7258 5.32895 23.5388C5.20412 23.4054 5.06991 23.2826 4.9436 23.1509C4.69914 22.8951 4.48562 22.6071 4.30811 22.2937C4.36583 22.2937 4.41123 22.3468 4.44922 22.3925C5.33741 23.5083 6.33605 24.5164 7.42738 25.3987C7.5458 25.4943 7.66964 25.5932 7.7397 25.734C7.79644 25.8477 7.77671 26.0847 7.6055 26.0204C7.48462 25.9747 7.35041 25.7314 7.26012 25.6346C6.96408 25.3073 6.64436 25.0023 6.33648 24.6855C6.16329 24.5038 5.99109 24.3215 5.82778 24.1286Z" fill="#FFD243"/>
<path d="M10.4306 29.7005C9.50004 29.4879 8.8152 28.6302 8.34795 27.738C7.8807 26.8458 7.55062 25.8605 6.95459 25.0624C7.32119 25.3281 7.79929 25.2856 8.23447 25.3631C8.85517 25.4737 9.41123 25.8356 9.92239 26.2299C10.4794 26.6592 11.0242 27.1619 11.2955 27.8395C11.4667 28.2646 11.5373 28.796 11.4332 29.2541C11.3182 29.7568 10.8608 29.7993 10.4306 29.7005Z" fill="#FFD243"/>
<path d="M4.96091 28.1601C4.74629 28.0288 4.53758 27.8859 4.31653 27.7668C4.15963 27.6823 3.99632 27.6074 3.83843 27.5272C3.53208 27.366 3.24579 27.1638 2.98633 26.9256C3.04159 26.9059 3.09981 26.9399 3.14965 26.9724C4.31652 27.7357 5.55739 28.3594 6.85014 28.8323C6.99076 28.8854 7.13681 28.9386 7.24486 29.0448C7.3317 29.1336 7.38153 29.3637 7.19996 29.3637C7.07217 29.3637 6.87383 29.1745 6.76232 29.1123C6.38437 28.8998 5.99459 28.7175 5.61072 28.5198C5.38869 28.4061 5.17209 28.2887 4.96091 28.1601Z" fill="#FFD243"/>
<path d="M11.2401 29.8571C11.5268 30.2062 11.7468 30.685 11.7799 31.1548C11.8159 31.6713 11.3935 31.8653 10.9564 31.9152C10.0105 32.0247 9.11205 31.4369 8.40994 30.7461C7.70784 30.0553 7.10983 29.2295 6.3125 28.6705C6.73732 28.7985 7.1799 28.5998 7.61607 28.5275C8.23775 28.4244 8.87029 28.5806 9.47026 28.7852" fill="#FFD243"/>
<path d="M10.5523 31.5862C9.95977 31.4212 9.4102 31.1122 8.9458 30.6829C9.41897 31.0336 9.98194 31.2233 10.5548 31.295C10.8632 31.3333 11.1932 31.3344 11.4631 31.1691C10.9485 31.2116 10.4349 31.0735 9.99921 30.7753C10.2429 30.8774 10.4985 30.981 10.7581 30.9496C10.9288 30.9294 11.0911 30.8513 11.2628 30.8433C11.2969 30.8394 11.3313 30.8428 11.3642 30.8533C11.3971 30.8638 11.4277 30.8812 11.4542 30.9045C11.4767 30.933 11.4934 30.9661 11.5035 31.0018C11.5136 31.0375 11.5168 31.0751 11.513 31.1122C11.5052 31.2266 11.4697 31.3368 11.4101 31.4319C11.3504 31.5269 11.2687 31.6034 11.173 31.6537C11.065 31.7111 11.0181 31.6994 10.915 31.6649C10.7985 31.6256 10.6727 31.6197 10.5523 31.5862Z" fill="#EDB73E"/>
<path d="M6.48659 31.4659C6.24334 31.3596 6.00552 31.2369 5.75784 31.1428C5.5812 31.0759 5.40012 31.0233 5.22299 30.9579C4.87983 30.8313 4.55279 30.6589 4.24951 30.4446C4.30527 30.4159 4.37089 30.4446 4.42713 30.4706C5.75278 31.1095 7.13922 31.5906 8.56182 31.9054C8.71626 31.9394 8.87711 31.9745 9.00588 32.0755C9.10851 32.1568 9.18943 32.3943 8.99749 32.4166C8.8623 32.432 8.62991 32.2636 8.50409 32.2136C8.07878 32.0446 7.64459 31.9065 7.21484 31.7529C6.96864 31.6647 6.7249 31.5722 6.48659 31.4659Z" fill="#FFD243"/>
<path d="M13.2684 34.5765C12.2816 34.8268 11.2622 34.3379 10.4358 33.7082C9.60934 33.0785 8.87615 32.2915 7.96533 31.8159C8.43011 31.8897 8.8727 31.6166 9.32416 31.4784C9.96558 31.2808 10.6563 31.3568 11.3145 31.4859C12.0319 31.6262 12.7676 31.8435 13.3148 32.3622" fill="#FFD243"/>
<path d="M8.43426 34.3222C8.18756 34.2266 7.94432 34.1166 7.69416 34.0342C7.51506 33.9758 7.33201 33.9322 7.15142 33.8748C6.80344 33.7647 6.46961 33.6081 6.15771 33.4087C6.21248 33.3774 6.27909 33.4018 6.33633 33.4263C7.68711 34.0007 9.09208 34.4147 10.5263 34.6607C10.6822 34.6878 10.844 34.7139 10.9753 34.8095C11.0809 34.886 11.1726 35.1193 10.9807 35.1507C10.846 35.1725 10.6072 35.0152 10.4794 34.9716C10.0482 34.8233 9.60806 34.7059 9.17288 34.573C8.92421 34.4976 8.67701 34.4168 8.43426 34.3222Z" fill="#FFD243"/>
<path d="M15.3398 37.1049C14.3654 37.4025 13.3258 36.9625 12.4742 36.3726C11.6226 35.7828 10.8578 35.0324 9.92822 34.6004C10.395 34.6536 10.8262 34.3586 11.2717 34.1987C11.9068 33.9702 12.597 34.0137 13.2601 34.111C13.9825 34.2173 14.7265 34.3985 15.2944 34.8906C15.6536 35.202 15.964 35.6611 16.077 36.1484C16.2008 36.683 15.7898 36.9678 15.3398 37.1049Z" fill="#FFD243"/>
<path d="M14.8682 36.8345C14.219 36.7758 13.5909 36.5576 13.0322 36.1968C13.5868 36.4731 14.2115 36.5635 14.8218 36.5279C15.1519 36.5087 15.4977 36.446 15.7538 36.2202C15.2211 36.3644 14.6594 36.3189 14.1527 36.0905C14.4251 36.15 14.7103 36.2096 14.9777 36.1267C15.1534 36.0735 15.3107 35.9587 15.4894 35.9194C15.5245 35.9086 15.5612 35.9054 15.5975 35.91C15.6337 35.9147 15.6688 35.9271 15.7005 35.9465C15.7293 35.9717 15.7529 36.003 15.7699 36.0385C15.7869 36.074 15.7968 36.1129 15.7992 36.1527C15.8101 36.2742 15.7913 36.3967 15.7445 36.508C15.6978 36.6192 15.6248 36.7153 15.5328 36.7867C15.4287 36.868 15.3779 36.8643 15.2639 36.8483C15.1326 36.8281 14.9999 36.8462 14.8682 36.8345Z" fill="#EDB73E"/>
<path d="M10.614 36.6539C10.3713 36.5476 10.133 36.4249 9.88527 36.3308C9.70864 36.2639 9.52805 36.2113 9.35092 36.1459C9.00761 36.0193 8.6804 35.8469 8.37695 35.6326C8.4332 35.6039 8.49833 35.6326 8.55507 35.6586C9.88055 36.2975 11.2668 36.7786 12.6893 37.0934C12.8442 37.1274 13.0045 37.1625 13.1333 37.2634C13.236 37.3447 13.3169 37.5823 13.1249 37.6046C12.9893 37.62 12.7574 37.4516 12.6315 37.4016C12.2067 37.2326 11.772 37.0944 11.3423 36.9409C11.0961 36.8527 10.8528 36.7602 10.614 36.6539Z" fill="#FFD243"/>
<path d="M17.4056 39.7624C16.4188 40.0127 15.3999 39.5238 14.5735 38.8941C13.747 38.2644 13.0138 37.4774 12.103 37.0018C12.5673 37.0757 13.0099 36.8025 13.4619 36.6644C14.1033 36.4667 14.794 36.5427 15.4517 36.6718C16.1691 36.8121 16.9053 37.0294 17.452 37.5481C17.7974 37.876 18.089 38.35 18.1817 38.842C18.2829 39.382 17.8615 39.645 17.4056 39.7624Z" fill="#FFD243"/>
<path d="M16.9475 39.4774C16.3012 39.3871 15.6828 39.1384 15.1396 38.7504C15.6824 39.0528 16.3026 39.1756 16.9159 39.1665C17.2465 39.1634 17.5948 39.1171 17.8598 38.904C17.3215 39.0223 16.7621 38.9499 16.2651 38.6978C16.535 38.7706 16.8177 38.8434 17.0881 38.7733C17.2657 38.7276 17.4275 38.6218 17.6081 38.591C17.6435 38.5818 17.6803 38.5804 17.7162 38.5868C17.7522 38.5932 17.7865 38.6073 17.8173 38.6282C17.845 38.6551 17.8671 38.6879 17.8822 38.7245C17.8973 38.7611 17.9051 38.8007 17.9052 38.8408C17.9113 38.9627 17.8874 39.0843 17.8361 39.1931C17.7847 39.302 17.7076 39.3944 17.6126 39.4609C17.506 39.5375 17.4552 39.5316 17.3417 39.5098C17.2119 39.4838 17.0787 39.4955 16.9475 39.4774Z" fill="#EDB73E"/>
<path d="M13.1942 39.4061C12.9475 39.3163 12.7008 39.2127 12.4467 39.1367C12.2666 39.0835 12.0826 39.0437 11.904 38.9916C11.5535 38.8904 11.2161 38.7422 10.8999 38.5505C10.9542 38.5181 11.0213 38.5404 11.079 38.5638C12.442 39.1035 13.8556 39.4818 15.2946 39.692C15.451 39.7148 15.6134 39.7377 15.7466 39.8291C15.8541 39.903 15.9499 40.1341 15.7599 40.1697C15.6257 40.1952 15.3834 40.0438 15.2547 40.0034C14.8205 39.8663 14.3779 39.76 13.9397 39.6383C13.6876 39.5687 13.4409 39.4943 13.1942 39.4061Z" fill="#FFD243"/>
<path d="M20.1666 42.0137C19.1995 42.3358 18.1505 41.9223 17.2861 41.3542C16.4216 40.7862 15.6406 40.0555 14.7021 39.6468C15.1699 39.6872 15.5947 39.3812 16.0343 39.2111C16.6644 38.9667 17.3552 38.9927 18.0203 39.0729C18.7451 39.1606 19.4931 39.3232 20.0713 39.801C20.4369 40.1028 20.7572 40.5545 20.881 41.0386C21.0187 41.5695 20.6141 41.8649 20.1666 42.0137Z" fill="#FFD243"/>
<path d="M19.6901 41.7594C19.0395 41.7166 18.4067 41.5137 17.8403 41.1664C18.4008 41.4289 19.0245 41.5027 19.6363 41.4523C19.9664 41.4246 20.3108 41.3529 20.5619 41.1212C20.0322 41.2783 19.4696 41.2468 18.9579 41.0314C19.2317 41.0845 19.5184 41.1377 19.7838 41.0468C19.958 40.9884 20.1129 40.8709 20.291 40.8268C20.3258 40.8152 20.3624 40.8111 20.3987 40.8148C20.4349 40.8186 20.4701 40.83 20.5022 40.8486C20.5308 40.8733 20.5543 40.9042 20.5713 40.9392C20.5883 40.9743 20.5984 41.0127 20.6009 41.0521C20.6144 41.1729 20.5982 41.2954 20.5538 41.4074C20.5095 41.5193 20.4386 41.6167 20.3483 41.6898C20.2466 41.7738 20.1953 41.7722 20.0814 41.7589C19.9541 41.7461 19.8218 41.7679 19.6901 41.7594Z" fill="#EDB73E"/>
<path d="M22.4326 32.8605C22.4691 32.5804 22.4923 32.2977 22.5426 32.0198C22.5782 31.8221 22.6275 31.6271 22.665 31.4299C22.7376 31.0471 22.7651 30.6559 22.7469 30.2656C22.6976 30.3028 22.6847 30.3778 22.6778 30.4442C22.5181 31.9987 22.2014 33.5299 21.7335 35.0105C21.6841 35.17 21.6289 35.3379 21.6456 35.5074C21.659 35.6434 21.8085 35.839 21.9229 35.6721C22.0039 35.5542 21.9866 35.2528 22.0103 35.111C22.0902 34.6327 22.1992 34.1576 22.2935 33.6804C22.3473 33.4089 22.3966 33.1357 22.4326 32.8605Z" fill="#FFD243"/>
<path d="M21.49 40.7363C22.1891 39.9477 22.314 38.752 22.2301 37.6658C22.1462 36.5796 21.8847 35.4998 21.9651 34.4131C21.79 34.8818 21.3469 35.1571 21.0074 35.5046C20.5234 36.0025 20.2363 36.6801 20.0063 37.3571C19.7557 38.0941 19.5568 38.8875 19.6955 39.6586C19.7833 40.1459 20.0157 40.656 20.3626 40.9908C20.7395 41.3591 21.1653 41.1008 21.49 40.7363Z" fill="#FFD243"/>
<path d="M21.0172 35.5029C21.2841 35.2281 21.6152 35.0002 21.8298 34.6866C21.5259 35.4609 20.7651 36.5997 20.661 36.8032C20.3687 37.3705 20.1787 37.9922 20.101 38.6355C20.0625 38.9543 20.0516 39.2913 20.1503 39.5979C20.249 39.9045 20.469 40.1824 20.7611 40.2579C21.0828 40.3434 21.4277 40.1729 21.6493 39.9088C21.8708 39.6446 21.9946 39.3003 22.0933 38.9591C22.1589 38.7296 22.2152 38.4973 22.2635 38.263C22.2635 39.1706 22.0746 40.0894 21.5022 40.7345C21.1785 41.0996 20.7527 41.3574 20.3723 40.9896C20.027 40.6543 19.7931 40.1442 19.7053 39.6574C19.5666 38.8863 19.7655 38.0929 20.0161 37.3554C20.246 36.6789 20.5332 36.0013 21.0172 35.5029Z" fill="#EDB73E"/>
<path d="M21.4863 40.1613C21.741 39.5151 21.8549 38.8147 21.8194 38.1138C21.7868 38.7716 21.5692 39.4077 21.2549 39.9737C21.0847 40.2792 20.8716 40.5795 20.5642 40.7176C20.9314 40.2776 21.1565 39.7213 21.2056 39.1319C21.1272 39.4194 21.0428 39.7165 20.8499 39.9349C20.7231 40.0762 20.5538 40.1735 20.4403 40.3255C20.4152 40.3537 20.3955 40.387 20.3823 40.4235C20.3692 40.46 20.3629 40.4989 20.3639 40.538C20.3715 40.5769 20.3864 40.6137 20.4078 40.646C20.4292 40.6784 20.4566 40.7057 20.4882 40.7262C20.5828 40.7935 20.6922 40.8329 20.8054 40.8403C20.9185 40.8478 21.0316 40.8231 21.1331 40.7687C21.2485 40.7081 21.2693 40.6576 21.3092 40.5417C21.3581 40.41 21.437 40.292 21.4863 40.1613Z" fill="#EDB73E"/>
<path opacity="0.46" d="M20.4753 38.1381C20.4628 38.2277 20.467 38.3191 20.4876 38.407C20.4989 38.4506 20.5218 38.4896 20.5534 38.5194C20.5851 38.5491 20.6241 38.5683 20.6658 38.5744C20.7644 38.5792 20.8439 38.4846 20.8878 38.3889C20.9988 38.1477 20.9865 37.8618 21.0768 37.6099C21.1843 37.3059 21.436 37.0413 21.4083 36.7176C21.4083 36.6937 21.4035 36.67 21.3943 36.6482C21.3851 36.6264 21.3717 36.607 21.355 36.5912C21.281 36.5343 21.1843 36.614 21.1276 36.6905C20.8483 37.0684 20.5138 37.6492 20.4753 38.1381Z" fill="white"/>
<path opacity="0.46" d="M18.5878 36.0228C18.6006 36.1122 18.6298 36.198 18.6736 36.2752C18.6963 36.3133 18.7289 36.3434 18.7673 36.3617C18.8057 36.38 18.8483 36.3858 18.8897 36.3783C18.9884 36.3512 19.0377 36.2354 19.0511 36.1296C19.09 35.8639 19.0017 35.5945 19.0165 35.3256C19.0353 35.0014 19.203 34.6677 19.0871 34.3691C19.0808 34.3457 19.0699 34.3241 19.055 34.3057C19.0402 34.2874 19.0218 34.2727 19.0012 34.2628C18.9154 34.2325 18.8448 34.3399 18.8118 34.4307C18.6489 34.8819 18.4896 35.5435 18.5878 36.0228Z" fill="white"/>
<path d="M23.6777 40.0301C23.5692 39.9334 20.9793 37.6085 18.4295 32.2132C15.1345 25.2411 13.1067 15.0223 13.0864 14.9197L13.8872 14.7374C13.9069 14.8389 15.9131 24.9462 19.1587 31.8135C21.6257 37.0282 24.1721 39.3265 24.1973 39.3488L23.6777 40.0301Z" fill="#FFD243"/>
<path d="M17.7867 30.7813C17.8222 30.632 17.6288 30.225 17.6648 30.0762C18.0118 30.8314 18.4075 31.5594 18.849 32.2549C18.8263 32.1486 18.8031 32.0466 18.7804 31.943C19.208 32.4907 19.634 33.0387 20.0583 33.5871C19.3118 32.0907 18.7859 30.479 18.3142 28.8576C18.2308 28.5707 18.1484 28.279 18.1356 27.9787C18.1282 27.8145 18.139 27.636 18.0517 27.5004C17.9915 27.416 17.9089 27.3532 17.8148 27.3203C17.6138 27.2449 17.3953 27.2435 17.1934 27.3162C16.9915 27.3889 16.8178 27.5316 16.6993 27.722C16.4713 28.1084 16.8473 28.5192 16.9775 28.8826C17.216 29.5304 17.4861 30.1642 17.7867 30.7813Z" fill="#E0AA3D"/>
<path d="M16.4082 27.7796C16.1043 27.5319 15.9573 27.1259 15.8241 26.7412C15.6168 26.1428 15.4098 25.5443 15.2029 24.9456C14.7914 23.7558 14.3779 22.5575 14.1791 21.3065C14.0651 20.5881 14.0202 19.8457 13.7597 19.1729C13.5959 18.7478 13.3492 18.3626 13.2347 17.9204C13.1158 17.4618 13.1454 16.9676 13.0033 16.5165C12.84 15.9983 12.4605 15.57 12.3668 15.0317C12.2681 14.4551 12.5217 13.8679 12.4655 13.285C12.4226 12.8301 12.2148 12.2998 12.5054 11.9666C12.7132 11.7285 13.0901 11.754 13.3403 11.9374C13.5904 12.1207 13.7404 12.4241 13.8667 12.7212C14.0641 13.1824 14.2264 13.666 14.2802 14.1703C14.3216 14.562 14.297 14.961 14.3661 15.3484C14.5141 16.1934 15.0894 16.8784 15.3489 17.6919C15.5956 18.4694 15.5463 19.3201 15.713 20.1226C15.9104 21.0855 16.4132 21.9378 16.7886 22.8375C17.171 23.7547 17.4256 24.7272 17.6521 25.7023C17.732 26.0493 17.81 26.4038 17.7819 26.7598C17.7261 27.4602 17.096 28.3418 16.4082 27.7796Z" fill="#E0AA3D"/>
<path d="M15.7268 8.16996C15.7614 7.88885 15.7826 7.60561 15.8309 7.32662C15.865 7.12841 15.9128 6.93285 15.9489 6.73464C16.0185 6.34976 16.0428 5.95698 16.0214 5.56555C15.9721 5.60381 15.9602 5.67874 15.9538 5.74517C15.806 7.30405 15.5007 8.84093 15.0435 10.3285C14.9941 10.4879 14.9418 10.658 14.9596 10.8275C14.9739 10.9641 15.1254 11.1586 15.2389 10.9869C15.3188 10.8679 15.2991 10.5666 15.3218 10.4242C15.3977 9.94273 15.5038 9.46765 15.5946 8.98939C15.6459 8.7205 15.6933 8.44629 15.7268 8.16996Z" fill="#FFD243"/>
<path d="M14.8458 16.067C15.54 15.2699 15.656 14.0716 15.5612 12.9848C15.4665 11.8981 15.1986 10.8183 15.2701 9.72839C15.0979 10.2003 14.6563 10.4777 14.3188 10.8305C13.8378 11.3343 13.5555 12.0156 13.332 12.6957C13.0853 13.4397 12.8939 14.2336 13.039 15.0047C13.1302 15.492 13.3671 16.0011 13.7174 16.3332C14.1003 16.6978 14.5251 16.4352 14.8458 16.067Z" fill="#FFD243"/>
<path d="M14.8433 15.4942C15.0935 14.8445 15.202 14.1417 15.1606 13.4398C15.1334 14.0988 14.9203 14.7386 14.6094 15.3072C14.4417 15.6148 14.2305 15.9177 13.9261 16.0591C14.2905 15.6149 14.5117 15.0557 14.5566 14.4649C14.4802 14.754 14.3978 15.0548 14.2063 15.2726C14.0805 15.4156 13.9142 15.5144 13.7993 15.6675C13.7744 15.6958 13.7551 15.7292 13.7423 15.7657C13.7295 15.8022 13.7235 15.841 13.7248 15.88C13.7326 15.9189 13.7479 15.9555 13.7695 15.9877C13.7912 16.0199 13.8188 16.0469 13.8506 16.0671C13.9458 16.1338 14.0557 16.1723 14.1692 16.1787C14.2827 16.1852 14.3957 16.1593 14.4969 16.1037C14.6119 16.0416 14.6326 15.9916 14.6716 15.8747C14.716 15.7445 14.7925 15.626 14.8433 15.4942Z" fill="#EDB73E"/>
<path d="M16.8207 11.5247C16.8553 11.2442 16.876 10.9615 16.9244 10.6835C16.9584 10.4853 17.0063 10.2898 17.0423 10.0921C17.1115 9.70859 17.1359 9.31726 17.1148 8.92725C17.0655 8.96498 17.0531 9.03991 17.0472 9.10634C16.8996 10.6623 16.5948 12.1963 16.1384 13.6812C16.089 13.8406 16.0367 14.0096 16.055 14.1786C16.0693 14.3152 16.2198 14.5091 16.3333 14.3412C16.4137 14.2222 16.3935 13.9214 16.4162 13.7795C16.4921 13.3012 16.5977 12.823 16.6885 12.3447C16.7398 12.0737 16.7867 11.8 16.8207 11.5247Z" fill="#FFD243"/>
<path d="M15.9423 19.4091C16.6331 18.612 16.751 17.4174 16.6563 16.3317C16.5615 15.2461 16.2946 14.1694 16.3656 13.0817C16.1939 13.5525 15.7533 13.8294 15.4163 14.1817C14.9363 14.6838 14.6545 15.364 14.4295 16.0416C14.1828 16.7813 13.9924 17.5768 14.137 18.3463C14.2282 18.8325 14.4646 19.3405 14.8139 19.6748C15.1983 20.0372 15.6221 19.7763 15.9423 19.4091Z" fill="#FFD243"/>
<path d="M15.938 18.8358C16.1875 18.1874 16.2959 17.4861 16.2548 16.7856C16.2271 17.443 16.0145 18.0817 15.7046 18.6493C15.5374 18.9564 15.3262 19.2583 15.0228 19.3996C15.3868 18.9553 15.6075 18.396 15.6518 17.8054C15.5759 18.0934 15.4935 18.3937 15.302 18.6115C15.1767 18.754 15.0109 18.8528 14.896 19.0053C14.8711 19.0337 14.8517 19.0671 14.8389 19.1036C14.8261 19.14 14.8202 19.1789 14.8215 19.2179C14.8293 19.2567 14.8445 19.2934 14.8662 19.3256C14.8878 19.3578 14.9154 19.3848 14.9473 19.4049C15.0424 19.4714 15.152 19.5097 15.2652 19.5161C15.3783 19.5226 15.4911 19.4969 15.5921 19.4416C15.7071 19.3794 15.7278 19.3295 15.7668 19.2131C15.8097 19.0856 15.8872 18.9671 15.938 18.8358Z" fill="#EDB73E"/>
<path d="M18.4629 14.6402C18.526 14.3654 18.5754 14.087 18.6518 13.816C18.7061 13.6231 18.7732 13.4349 18.829 13.242C18.9372 12.8692 19.0015 12.4832 19.0204 12.0931C18.9656 12.1245 18.9479 12.1994 18.9345 12.2632C18.6293 13.7922 18.17 15.2808 17.5649 16.7025C17.4992 16.8572 17.4302 17.0171 17.4307 17.1872C17.4307 17.3243 17.5614 17.5352 17.6912 17.3817C17.783 17.2754 17.7938 16.9714 17.8308 16.8333C17.9556 16.364 18.1091 15.9049 18.2477 15.441C18.3267 15.1763 18.4012 14.9101 18.4629 14.6402Z" fill="#FFD243"/>
<path d="M16.7765 22.3695C17.5462 21.6616 17.783 20.4856 17.7998 19.3936C17.8165 18.3016 17.6611 17.2016 17.8427 16.1287C17.6241 16.5761 17.1579 16.7993 16.7868 17.1096C16.2584 17.5523 15.9091 18.1948 15.6165 18.8431C15.2977 19.5493 15.0244 20.3172 15.0905 21.0989C15.1315 21.5931 15.3145 22.1261 15.6283 22.4975C15.9722 22.9072 16.4202 22.6947 16.7765 22.3695Z" fill="#FFD243"/>
<path d="M19.9488 18.0209C20.041 17.7552 20.12 17.4852 20.2251 17.2238C20.2996 17.0388 20.3864 16.8603 20.4629 16.6759C20.6101 16.3195 20.7152 15.9446 20.7757 15.5599C20.7185 15.5844 20.6928 15.6551 20.6726 15.7194C20.2052 17.2001 19.5893 18.6215 18.8356 19.9584C18.7537 20.104 18.6679 20.2544 18.6501 20.4233C18.6363 20.5594 18.7429 20.7852 18.888 20.6487C18.9911 20.5519 19.036 20.2544 19.0853 20.121C19.2595 19.6709 19.4608 19.2341 19.6488 18.7925C19.7558 18.5342 19.86 18.2791 19.9488 18.0209Z" fill="#FFD243"/>
<path d="M17.4528 25.4883C18.2915 24.8804 18.6552 23.7421 18.7884 22.6613C18.9216 21.5804 18.8871 20.4666 19.1831 19.424C18.9177 19.8411 18.4307 20.0048 18.029 20.2668C17.4567 20.6387 17.0422 21.2355 16.6806 21.8429C16.2859 22.5045 15.9351 23.233 15.9158 24.0185C15.904 24.5143 16.0283 25.0664 16.2997 25.474C16.5962 25.9219 17.064 25.7689 17.4528 25.4883Z" fill="#FFD243"/>
<path d="M17.5566 24.9272C17.935 24.3557 18.1866 23.6983 18.2922 23.0056C18.1289 23.6401 17.7885 24.2108 17.3686 24.6891C17.1411 24.9479 16.8752 25.1913 16.5476 25.2556C16.9943 24.9112 17.3256 24.4204 17.4919 23.8564C17.3577 24.1189 17.2151 24.3921 16.9832 24.5578C16.8313 24.6641 16.6492 24.7226 16.5056 24.8437C16.4753 24.8656 16.4493 24.8937 16.4292 24.9265C16.409 24.9592 16.3951 24.9959 16.3882 25.0345C16.388 25.0742 16.3954 25.1136 16.4098 25.1501C16.4242 25.1866 16.4454 25.2196 16.4721 25.2471C16.551 25.3348 16.6499 25.3987 16.7589 25.4322C16.8679 25.4658 16.9832 25.4679 17.0933 25.4384C17.2176 25.4054 17.2482 25.3619 17.3108 25.2577C17.3834 25.1397 17.4821 25.043 17.5566 24.9272Z" fill="#EDB73E"/>
<path d="M10.6269 5.65302C10.5583 5.39741 10.5026 5.13809 10.4222 4.8862C10.3649 4.70712 10.2954 4.53335 10.2361 4.3548C10.1223 4.00873 10.0492 3.64864 10.0186 3.28296C10.0709 3.31059 10.0901 3.37861 10.1044 3.43919C10.4424 4.86294 10.9233 6.2428 11.5387 7.55438C11.6058 7.69732 11.6759 7.84506 11.6813 8.00448C11.6853 8.13361 11.5703 8.33608 11.443 8.19685C11.3532 8.09854 11.333 7.81583 11.295 7.68723C11.1618 7.25201 11.0024 6.82689 10.8568 6.39645C10.773 6.15094 10.694 5.90278 10.6269 5.65302Z" fill="#FFD243"/>
<path d="M12.4583 12.8488C11.7118 12.2111 11.4498 11.1191 11.398 10.0961C11.3462 9.07318 11.4548 8.03269 11.25 7.03259C11.4705 7.4439 11.9156 7.63521 12.2743 7.9126C12.785 8.30743 13.1348 8.89729 13.4313 9.49459C13.754 10.1456 14.0352 10.8555 14.0002 11.5926C13.978 12.0581 13.8241 12.5656 13.5423 12.9264C13.2315 13.3223 12.8037 13.1427 12.4583 12.8488Z" fill="#FFD243"/>
<path d="M8.18937 8.85666C8.05073 8.63666 7.92244 8.40869 7.77294 8.19666C7.66686 8.04574 7.55042 7.90332 7.44286 7.75347C7.23455 7.46291 7.06099 7.1453 6.92627 6.80811C6.984 6.81714 7.02199 6.87506 7.05307 6.9282C7.78562 8.16792 8.64146 9.31794 9.60543 10.3579C9.71052 10.4711 9.81956 10.588 9.87038 10.7378C9.91183 10.859 9.86101 11.0907 9.70016 11.0035C9.58619 10.9398 9.48553 10.6783 9.41103 10.5688C9.1589 10.2 8.88457 9.84932 8.62159 9.48903C8.4716 9.28125 8.32555 9.07294 8.18937 8.85666Z" fill="#FFD243"/>
<path d="M12.0084 15.0785C11.1153 14.7251 10.5504 13.7723 10.2055 12.8174C9.86059 11.8624 9.66274 10.8374 9.17822 9.9563C9.50633 10.2751 9.98493 10.306 10.4058 10.4494C11.0053 10.6535 11.5081 11.0967 11.9625 11.5654C12.4559 12.0755 12.93 12.6558 13.1096 13.3679C13.2231 13.818 13.2231 14.3515 13.0603 14.7889C12.8807 15.2693 12.4223 15.2416 12.0084 15.0785Z" fill="#FFD243"/>
<path d="M11.7948 14.5979C11.3314 14.1667 10.9659 13.6268 10.7266 13.0197C11.0068 13.5601 11.4351 13.9996 11.9176 14.3359C12.1781 14.5177 12.4737 14.6755 12.784 14.6548C12.3051 14.4473 11.9013 14.0786 11.6329 13.6037C11.8096 13.8109 11.9961 14.0256 12.2418 14.1218C12.4031 14.1845 12.5813 14.1925 12.7352 14.2685C12.7676 14.281 12.7974 14.3004 12.8229 14.3255C12.8483 14.3506 12.8688 14.3809 12.8832 14.4146C12.8915 14.4505 12.8929 14.4879 12.8873 14.5245C12.8817 14.561 12.8692 14.596 12.8507 14.6271C12.7968 14.7261 12.7196 14.808 12.6271 14.8647C12.5345 14.9214 12.4297 14.9509 12.3232 14.9502C12.2028 14.9502 12.1653 14.9178 12.0874 14.8376C11.999 14.7504 11.889 14.6856 11.7948 14.5979Z" fill="#EDB73E"/>
<path d="M8.1937 12.5474C8.02051 12.3348 7.8567 12.1121 7.67316 11.9097C7.54241 11.7657 7.40228 11.6323 7.27005 11.4893C7.01426 11.2122 6.79181 10.9016 6.60791 10.5647C6.67008 10.5647 6.71744 10.6216 6.75593 10.671C7.682 11.8756 8.72727 12.9679 9.87323 13.9285C9.99806 14.0348 10.1278 14.141 10.1999 14.292C10.2586 14.4137 10.2334 14.6639 10.0518 14.5933C9.92405 14.5428 9.78491 14.2808 9.69314 14.1761C9.38131 13.8222 9.04826 13.4911 8.72657 13.1484C8.5445 12.955 8.36392 12.7573 8.1937 12.5474Z" fill="#FFD243"/>
<path d="M12.9985 18.5714C12.0117 18.3259 11.2982 17.4023 10.8162 16.4415C10.3341 15.4808 10.0001 14.4281 9.37891 13.5667C9.76475 13.8547 10.2739 13.8212 10.7362 13.9121C11.3944 14.0423 11.9796 14.4387 12.5174 14.8686C13.1026 15.3368 13.6735 15.8825 13.9483 16.6084C14.1234 17.0675 14.1891 17.6314 14.0702 18.1165C13.9399 18.6485 13.4544 18.6851 12.9985 18.5714Z" fill="#FFD243"/>
<path d="M8.76729 16.0396C8.58522 15.8355 8.41253 15.6214 8.22109 15.4274C8.08442 15.2898 7.93838 15.1617 7.80072 15.0268C7.5338 14.762 7.29876 14.4622 7.10107 14.1345C7.16324 14.1345 7.21258 14.1877 7.25403 14.2355C8.22896 15.3948 9.31841 16.4362 10.5031 17.341C10.6318 17.4393 10.766 17.5408 10.8445 17.688C10.9077 17.8071 10.8938 18.06 10.7093 17.9968C10.5795 17.9521 10.43 17.6971 10.3338 17.5972C10.0077 17.2586 9.66133 16.9435 9.32581 16.6167C9.13437 16.4302 8.94639 16.2399 8.76729 16.0396Z" fill="#FFD243"/>
<path d="M13.8107 21.826C12.815 21.6278 12.0635 20.7376 11.541 19.8029C11.0185 18.8682 10.6425 17.8303 9.98682 16.9998C10.384 17.2686 10.8912 17.2123 11.3565 17.2798C12.0196 17.3776 12.6211 17.7458 13.1757 18.1492C13.7796 18.5892 14.3722 19.1057 14.6791 19.8189C14.873 20.269 14.9623 20.8285 14.8636 21.3195C14.7565 21.8579 14.271 21.9174 13.8107 21.826Z" fill="#FFD243"/>
<path d="M9.76059 19.1707C9.58692 18.9581 9.4236 18.7355 9.24006 18.533C9.10931 18.389 8.96869 18.2551 8.83695 18.1121C8.58105 17.8351 8.35858 17.5244 8.1748 17.1875C8.23648 17.1875 8.28385 17.2449 8.32282 17.2938C9.24893 18.4986 10.2944 19.5909 11.4406 20.5513C11.565 20.6576 11.6947 20.7638 11.7673 20.9148C11.8255 21.037 11.8003 21.2867 11.6192 21.2166C11.4914 21.1635 11.3528 20.9041 11.2605 20.7994C10.9492 20.4455 10.6162 20.1145 10.294 19.7717C10.1114 19.5783 9.93082 19.379 9.76059 19.1707Z" fill="#FFD243"/>
<path d="M14.5751 25.1937C13.5883 24.9482 12.8749 24.0246 12.3928 23.0639C11.9108 22.1031 11.5768 21.0504 10.9561 20.189C11.3419 20.477 11.8511 20.4435 12.3129 20.5344C12.9716 20.664 13.5568 21.0605 14.0941 21.4909C14.6797 21.9591 15.2501 22.5043 15.5274 23.2307C15.7026 23.6893 15.7687 24.2531 15.6498 24.7388C15.521 25.2729 15.0315 25.309 14.5751 25.1937Z" fill="#FFD243"/>
<path d="M14.274 24.7149C13.7315 24.3258 13.2791 23.8079 12.9517 23.2009C13.3138 23.7323 13.8205 24.1341 14.3712 24.4232C14.6672 24.5778 15.0003 24.7021 15.3254 24.6357C14.7941 24.4851 14.3224 24.1533 13.9809 23.6898C14.1926 23.8838 14.4161 24.0841 14.6874 24.1505C14.8656 24.1936 15.054 24.176 15.2302 24.2345C15.2657 24.2433 15.2993 24.2596 15.329 24.2825C15.3586 24.3054 15.3837 24.3344 15.4029 24.3679C15.4162 24.4049 15.4224 24.4444 15.4211 24.4841C15.4197 24.5238 15.4108 24.5627 15.395 24.5985C15.3501 24.7107 15.2787 24.8082 15.1879 24.8814C15.0971 24.9545 14.99 25.0006 14.8774 25.0151C14.7501 25.0327 14.7072 25.0034 14.6144 24.9301C14.5083 24.8483 14.384 24.7951 14.274 24.7149Z" fill="#EDB73E"/>
<path d="M10.9513 22.8687C10.7648 22.6689 10.5877 22.459 10.3918 22.2709C10.2522 22.1364 10.1036 22.0131 9.96303 21.8803C9.69021 21.6226 9.44868 21.3289 9.24414 21.0061C9.30582 21.0029 9.35664 21.055 9.39907 21.1034C10.3992 22.2376 11.5111 23.2509 12.7152 24.1255C12.846 24.2206 12.9821 24.3184 13.064 24.464C13.1302 24.5814 13.1208 24.836 12.9358 24.7759C12.805 24.7345 12.6496 24.4836 12.5514 24.3858C12.2179 24.0558 11.8651 23.7482 11.5222 23.4293C11.3268 23.2497 11.1344 23.0669 10.9513 22.8687Z" fill="#FFD243"/>
<path d="M16.1198 28.5289C15.1202 28.3562 14.3495 27.4853 13.8083 26.5627C13.267 25.6402 12.8669 24.6135 12.1934 23.7994C12.5965 24.0588 13.1022 23.9881 13.569 24.0449C14.2341 24.1263 14.8429 24.4791 15.4064 24.8686C16.0197 25.2937 16.6236 25.7949 16.9458 26.4995C17.1496 26.9443 17.2512 27.5017 17.1629 27.9949C17.0662 28.5369 16.5822 28.6086 16.1198 28.5289Z" fill="#FFD243"/>
<path d="M21.9146 21.4005C22.0626 21.1667 22.1998 20.9222 22.3587 20.6996C22.4716 20.5402 22.596 20.3882 22.7109 20.2288C22.9333 19.9201 23.1187 19.5825 23.2626 19.2239C23.2014 19.2329 23.1609 19.2945 23.1274 19.3509C22.3452 20.6687 21.4318 21.8905 20.4033 22.9947C20.2918 23.1148 20.1754 23.2392 20.1206 23.3986C20.0767 23.5272 20.13 23.7738 20.3017 23.6786C20.4226 23.6111 20.5306 23.3332 20.6101 23.2174C20.8795 22.8247 21.172 22.4521 21.4528 22.0695C21.6131 21.8517 21.769 21.6322 21.9146 21.4005Z" fill="#FFD243"/>
<path d="M17.834 28.0129C18.7848 27.6409 19.3887 26.627 19.7582 25.612C20.1278 24.597 20.3395 23.5055 20.858 22.5692C20.5077 22.9061 19.9985 22.9412 19.5505 23.0911C18.9091 23.3036 18.3757 23.7771 17.8912 24.2745C17.3633 24.816 16.859 25.4329 16.6666 26.1875C16.5447 26.6658 16.5433 27.2344 16.7159 27.6999C16.9034 28.2143 17.3899 28.1862 17.834 28.0129Z" fill="#FFD243"/>
<path opacity="0.46" d="M17.9849 25.1976C17.937 25.2719 17.9034 25.3557 17.8862 25.4442C17.8782 25.4887 17.8826 25.5348 17.8987 25.5766C17.9149 25.6185 17.9421 25.6543 17.977 25.6796C18.0638 25.7328 18.1743 25.6839 18.2523 25.6185C18.4497 25.4554 18.5592 25.1934 18.7422 25.0106C18.9628 24.7895 19.2978 24.6721 19.4059 24.3686C19.4157 24.3471 19.4212 24.3235 19.4219 24.2995C19.4227 24.2756 19.4187 24.2516 19.4103 24.2294C19.3674 24.1433 19.2475 24.1688 19.1636 24.2103C18.759 24.4159 18.2202 24.7773 17.9849 25.1976Z" fill="white"/>
<path d="M55.5251 14.3333C56.0106 14.4969 56.4487 14.7935 56.8572 15.1213C58.0547 16.0848 59.6696 18.8943 59.7584 20.5013C59.901 23.1477 59.6435 22.2788 58.6434 23.4771C57.8815 24.3885 56.7813 24.8758 55.6997 25.2595C55.1614 25.4508 54.6019 25.6256 54.0375 25.5741C53.3516 25.5119 52.723 25.1176 52.2163 24.6175C51.0371 23.4484 50.4514 21.7373 50.1509 20.0427C49.9511 18.9129 49.8628 17.721 50.2057 16.6316C50.5077 15.6751 51.2113 14.7913 52.1418 14.5219C53.1755 14.219 54.485 13.9831 55.5251 14.3333Z" fill="#CC946E"/>
<path d="M17.4649 24.3763C17.4619 23.2163 17.5636 21.0923 17.8542 19.9742C18.0066 19.4041 18.2179 18.8541 18.4843 18.3348C18.731 17.8491 19.0117 17.3783 19.3724 16.9888C19.7011 16.6451 20.071 16.3502 20.4722 16.112C21.0988 15.724 21.8424 15.4211 22.5331 15.6475C22.8282 15.7514 23.0951 15.9319 23.3102 16.1731C23.9951 16.917 24.1865 18.0606 24.0646 19.1006C23.9428 20.1405 23.5505 21.1199 23.2071 22.0987C22.9259 22.9017 22.655 23.7509 22.0723 24.3349C21.7067 24.7005 21.2458 24.9327 20.7929 25.1586C20.4653 25.3217 20.1342 25.4859 19.7809 25.5661C19.4277 25.6464 19.0453 25.6368 18.7221 25.4599C18.2983 25.2308 18.0407 24.7627 17.8063 24.3189C17.7274 24.1696 17.647 24.0144 17.6317 23.8433L17.4649 24.3763Z" fill="#CC946E"/>
<path d="M20.9003 17.5453C21.668 17.0166 22.6188 16.8763 23.4043 16.3762C24.2214 15.8571 24.7977 14.9909 25.5639 14.3888C27.2785 13.0422 29.6473 13.2197 31.6875 13.8489C32.3719 14.0615 33.0557 14.3155 33.7667 14.3394C35.3856 14.3925 36.7982 13.2686 38.2216 12.4364C40.7779 10.9416 44.0062 10.3363 46.5754 11.8062C47.312 12.2276 47.9742 12.8063 48.7547 13.1251C49.8323 13.5657 51.0367 13.4711 52.1468 13.8042C53.0572 14.0774 53.8713 14.6274 54.6711 15.1705C55.2533 15.5653 55.8404 15.9676 56.3279 16.4889C57.9685 18.2526 58.1466 21.1849 57.2116 23.4694C56.2766 25.7539 54.4259 27.4656 52.4379 28.7489C47.7886 31.7503 42.2527 32.7594 36.8357 32.9752C34.457 33.0703 32.0497 33.0198 29.7396 32.3906C28.325 32.0043 26.9578 31.3996 25.7312 30.5482C23.3027 28.8616 22.1471 26.5516 20.8416 23.8972C19.875 21.9331 18.5675 19.1528 20.9003 17.5453Z" fill="#FCE19C"/>
<path d="M18.5197 35.5232C18.4575 38.3646 19.9619 41.2846 18.8942 43.9672C18.2764 45.5205 16.8145 47.0265 17.371 48.5973C17.6799 49.4698 18.5863 50.1038 19.5726 50.394C20.5589 50.6841 21.6241 50.6788 22.6623 50.6241C24.7775 50.513 26.8719 50.2112 28.9778 49.9912C34.5202 49.4129 40.1012 49.4035 45.6453 49.963C50.0321 50.4067 54.4214 51.2081 58.8235 50.903C59.5636 50.8499 60.3175 50.7638 60.9668 50.4508C61.6162 50.1378 62.1426 49.5527 62.1357 48.9023C62.1234 47.721 60.5465 47.0684 59.9549 46.0078C59.3135 44.8594 59.9376 43.5102 60.3575 42.2879C61.5091 38.931 61.0053 35.1634 58.9997 32.1328C58.6158 31.5525 58.1555 30.9786 57.4869 30.6528C56.9185 30.3754 56.2499 30.3037 55.6001 30.2894C52.3615 30.2197 49.296 31.4345 46.188 32.2375C39.5824 33.9444 32.3729 33.7902 25.8674 31.8023C24.5174 31.3899 21.6774 29.9849 20.3186 30.7655C18.9598 31.5461 18.5473 34.2621 18.5197 35.5232Z" fill="#B58561"/>
<path d="M28.4694 10.0756C29.2066 10.7835 29.8134 11.6321 30.407 12.4818C31.8226 14.5075 33.1977 16.5837 34.2402 18.8587C34.3281 19.0505 34.4154 19.2498 34.4223 19.4634C34.4327 19.7939 34.2516 20.0915 34.0769 20.3636C33.5677 21.1565 33.0457 21.9488 32.3994 22.6162C31.753 23.2837 30.9685 23.8246 30.0912 24.0202C29.663 24.1158 29.2006 24.1238 28.8049 23.9229C28.6082 23.8146 28.4257 23.6786 28.2622 23.5185C26.6231 22.0152 25.4562 20.0193 24.1625 18.1668C22.8575 16.2978 21.3941 14.5352 20.3782 12.4685C20.017 11.7331 19.7121 10.8552 20.013 10.0889C20.279 9.41191 20.9446 9.02611 21.5919 8.79176C22.4929 8.46752 23.4434 8.33328 24.3915 8.39639C25.2732 8.45432 26.2531 8.62065 27.0519 9.03727C27.5665 9.31151 28.0435 9.66093 28.4694 10.0756Z" fill="#CE945E"/>
<path d="M19.9365 9.42168C19.6222 10.1162 19.4111 11.2253 19.3173 11.991C19.2186 12.8099 19.1343 13.6607 19.3721 14.4456C19.527 14.9563 19.8102 15.4106 20.1122 15.8378C22.2861 18.911 26.7504 22.9055 28.2533 23.9481C28.201 23.4608 28.0268 22.5968 28.0495 22.1074C28.0663 21.7529 28.0988 21.3852 27.9839 21.053C27.8961 20.8038 27.7298 20.5971 27.566 20.3968C25.168 17.465 22.5964 14.5981 21.0417 11.068C20.8385 10.6062 20.647 10.1035 20.7196 9.59811C20.795 9.05501 21.1681 8.76062 21.3738 8.30361C20.7191 8.28926 20.1887 8.86423 19.9365 9.42168Z" fill="#E0A365"/>
<path d="M19.3724 14.4443C19.1346 13.6594 19.218 12.8086 19.3177 11.9897C19.4114 11.224 19.6226 10.1149 19.9369 9.42037C20.0367 9.20101 20.1675 8.99969 20.3247 8.82361C20.3434 8.85815 20.3617 8.89322 20.379 8.92989C20.4727 9.11694 20.6025 9.36299 20.7155 9.62444C20.6661 10.0177 20.7742 10.4088 20.9197 10.7797C20.8462 11.0061 20.6622 11.2048 20.5665 11.4174C20.4193 11.7506 20.3341 12.1117 20.3158 12.4802C20.2818 13.1046 20.4145 13.7274 20.6054 14.3173C21.1645 16.0305 22.2258 17.4977 23.3611 18.84C24.8313 20.5788 26.4522 22.1624 28.2018 23.5695C28.2225 23.7093 28.2403 23.8352 28.2512 23.9479C26.7502 22.9053 22.286 18.9107 20.1101 15.8376C19.8106 15.4093 19.5274 14.9549 19.3724 14.4443Z" fill="#CE945E"/>
<path d="M25.5835 8.18805C24.8725 8.31665 24.1442 7.97549 23.604 7.46162C23.0637 6.94775 22.6778 6.27606 22.3004 5.61446L20.873 3.11262C20.4571 2.38353 20.2809 1.24845 19.7086 0.653813C19.1362 0.0591724 18.145 0.0108153 17.3501 0.000187223C16.8814 -0.00672102 16.3687 0.177145 16.1408 0.618741C15.9286 1.02952 16.0219 1.55454 16.2365 1.96426C16.462 2.39469 16.8044 2.73745 17.1414 3.07329L19.5457 5.46461C20.0801 5.99601 20.6406 6.57631 20.8024 7.33993C20.9583 8.0738 20.7131 8.82786 20.4605 9.5325C20.7195 9.58564 20.9095 9.29497 21.1064 9.10738C21.4295 8.7981 21.8894 8.7354 22.3191 8.68226L25.3151 8.33312L25.5835 8.18805Z" fill="#E0A365"/>
<path d="M20.7787 7.37051C20.6168 6.60688 20.0558 6.02713 19.522 5.49519L17.1177 3.10387C16.7807 2.76856 16.4382 2.42527 16.2123 1.99537C15.9976 1.58565 15.9049 1.06063 16.117 0.64932C16.2789 0.335792 16.5853 0.151926 16.9168 0.0743408C16.9356 0.0791235 16.9751 0.0743417 16.9691 0.091878C16.8043 0.586615 16.8315 0.631783 16.8581 0.898016C16.8927 1.24024 17.2218 1.51976 17.4245 1.77696C17.9569 2.44175 19.4475 3.69001 20.7797 5.66099C21.3801 6.5479 21.9826 7.4954 21.0195 8.81647C20.9652 8.89139 20.981 9.00671 20.9242 9.08217C20.8384 9.1927 20.6973 9.21714 20.5586 9.21183C20.7599 8.60975 20.9084 7.98216 20.7787 7.37051Z" fill="#CE945E"/>
<path d="M31.3929 23.6227C31.0752 23.8474 30.7406 24.0526 30.3765 24.1705C29.67 24.3985 28.8682 24.39 28.2549 23.9489C28.0575 23.8076 27.8764 23.5026 27.8108 23.2581C27.7794 23.1222 27.7691 22.9816 27.7802 22.842C27.7941 22.5058 27.8334 22.1713 27.8977 21.8419C27.9184 21.6941 27.9671 21.5525 28.0408 21.4258C28.1207 21.3041 28.2875 21.2983 28.4246 21.3196C28.3353 21.6384 28.0358 22.3016 28.0911 22.8532C28.133 23.2714 28.3689 23.7098 28.7325 23.8708C29.0961 24.0318 29.5713 23.9399 29.9542 23.865C30.9814 23.6652 31.8898 22.994 32.5914 22.1645C33.0179 21.645 33.3946 21.0804 33.7158 20.4794C33.8782 20.1839 34.0321 19.8837 34.1826 19.5813C34.2665 19.4123 34.4505 18.9266 34.6469 19.2471C34.8576 19.5914 34.1742 20.5352 34 20.82C33.6765 21.35 33.3062 21.845 32.8943 22.2984C32.4394 22.7966 31.936 23.2405 31.3929 23.6227Z" fill="#F4BF6C"/>
<path d="M28.9914 10.1483C28.6618 9.72316 28.316 9.3108 27.9059 8.9792C26.7603 8.0535 25.2386 7.87016 23.8078 7.93446C23.1127 7.96541 22.4204 8.04673 21.7355 8.17785C21.1192 8.29635 20.4334 8.51582 20.1522 9.11843C19.9385 9.57543 20.0258 10.1281 20.1867 10.6095C20.5 11.5469 21.064 12.3589 21.6269 13.1497C23.529 15.8205 25.8045 18.8697 27.8655 21.4002C28.086 21.6707 28.1457 21.5177 28.4225 21.3163L22.335 12.8191C22.0527 12.4248 21.7695 12.0289 21.5455 11.5969C21.3723 11.2626 21.2327 10.8981 21.2189 10.516C21.2051 10.1339 21.3334 9.7306 21.6136 9.49732C21.7804 9.35915 21.9866 9.28848 22.1919 9.23959C22.8333 9.08601 23.5734 9.05678 24.2306 9.03021C25.1977 8.99142 26.1001 9.06529 27.006 9.48616C28.4255 10.1467 29.4942 11.7744 30.4045 13.1204C31.2611 14.3873 32.0683 15.6919 32.8557 17.0098C33.2504 17.6687 33.6407 18.3301 34.0266 18.994C34.1085 19.1354 34.1859 19.3554 34.3325 19.3883C34.3606 19.3947 34.6823 19.282 34.704 19.2342C34.7681 19.0854 30.6961 12.3334 28.9914 10.1483Z" fill="#F4BF6C"/>
<path d="M19.4985 0.87825C19.6351 1.07495 19.7529 1.28612 19.8498 1.50849L20.7779 3.45928C20.549 3.27116 20.3787 3.01555 20.2041 2.76845C19.5893 1.90067 18.8482 1.08071 17.8954 0.7082C17.782 0.663562 17.6487 0.607764 17.6196 0.48129C17.5915 0.363318 17.6779 0.24216 17.7825 0.19699C18.0114 0.0986808 18.45 0.213997 18.678 0.288394C18.9999 0.392593 19.2857 0.59799 19.4985 0.87825Z" fill="#F4BF6C"/>
<path d="M25.2524 19.0516C25.9925 18.6568 26.8466 18.4772 27.6548 18.6578C28.0816 18.753 28.4862 18.9448 28.9135 19.0351C29.4902 19.1563 30.0848 19.0883 30.669 19.0202C31.0602 18.974 31.4584 18.9278 31.8275 18.7875C32.1891 18.6509 32.5182 18.4293 32.8695 18.2635C33.9639 17.7465 35.229 17.7943 36.3855 18.1195C37.2243 18.3555 38.071 18.7668 38.5693 19.5315C38.8653 19.9826 39.001 20.6373 38.6803 21.0677C38.5047 21.3037 38.2298 21.4217 37.9678 21.5301L35.9942 22.3458C35.5581 22.5259 35.113 22.7119 34.7553 23.0366C34.4099 23.348 34.1682 23.7705 33.8233 24.0792C33.3442 24.508 32.7131 24.6818 32.0964 24.7796C30.932 24.9645 29.7458 24.9209 28.574 24.8019C27.1856 24.6606 25.7833 24.4055 24.5326 23.7423C24.0885 23.5064 23.6578 23.2146 23.3321 22.8113C22.7894 22.1428 22.6567 21.4567 23.2241 20.8212C23.8344 20.1378 24.4551 19.4772 25.2524 19.0516Z" fill="#FCE19C"/>
<path d="M17.4579 24.3758C17.4693 26.0592 17.8033 27.7534 17.5497 29.414C17.3775 30.5363 16.9379 31.6507 17.1175 32.7714C17.4052 34.5675 19.1133 35.6203 20.6537 36.3754C22.2967 37.181 23.9644 37.9377 25.6923 38.501C31.736 40.4672 38.2246 39.9613 44.4706 38.9851C47.7537 38.4718 51.0195 37.8335 54.2725 37.1332C56.5727 36.6379 58.8942 36.1012 61.002 34.9921C61.4218 34.7711 61.8634 34.4916 62.0322 34.0218C62.3282 33.205 61.6641 32.3946 61.1707 31.698C59.3022 29.0627 59.4532 25.4131 59.7892 22.1173C59.8953 21.0789 59.8548 19.7398 58.9504 19.3598C58.046 18.9799 58.1891 17.4521 57.751 20.2632C57.2309 23.6015 51.4848 24.7605 48.4514 25.6394C45.4179 26.5184 42.2538 26.7331 39.1118 26.8213C35.7917 26.9164 32.4573 26.8744 29.1688 26.3728C27.4054 26.1034 25.605 25.6782 24.1435 24.5814C22.5745 23.4044 19.8879 22.4207 19.619 19.4975C19.3975 17.0913 17.4486 22.9633 17.4579 24.3758Z" fill="#CC946E"/>
<path d="M48.3868 49.0475C47.9314 49.26 47.4296 49.6394 47.4646 50.1724C47.4863 50.4998 47.7163 50.7703 47.9709 50.9504C48.4578 51.2948 49.0529 51.4037 49.6306 51.4818C51.0192 51.6698 52.4206 51.7242 53.8181 51.6444C54.1724 51.6242 54.5321 51.5913 54.8622 51.4542C55.2427 51.2917 55.5604 50.9942 55.7626 50.6109C55.8366 50.469 55.8953 50.3101 55.8845 50.148C55.8539 49.6735 55.1325 49.2292 54.7882 49.0172C54.1818 48.6452 53.3543 48.4948 52.6705 48.4007C51.2146 48.199 49.7351 48.4223 48.3868 49.0475Z" fill="#FFD757"/>
<path d="M55.1904 49.2744C55.2071 49.3164 55.2225 49.3584 55.2358 49.402C55.2772 49.5359 55.2974 49.6979 55.2121 49.8053C55.1267 49.9126 54.993 49.9158 54.8702 49.9084C54.3935 49.8802 53.9361 49.707 53.4733 49.5805C52.4572 49.3045 51.3995 49.2548 50.3649 49.4344C51.1484 49.4732 51.9349 49.5125 52.7056 49.6698C53.2484 49.7808 53.8128 49.9743 54.1562 50.4377C54.2164 50.5184 54.2712 50.6157 54.2613 50.7193C54.2411 50.9414 53.9737 51.0079 53.7679 51.0158C52.7321 51.0541 51.696 51.0505 50.6595 51.0052C49.8326 50.9685 48.9972 50.9037 48.2073 50.638C47.9463 50.5508 47.6749 50.4212 47.4761 50.2272C47.518 50.5296 47.7361 50.7793 47.9764 50.9494C48.4629 51.2937 49.0579 51.4027 49.6357 51.4808C51.0244 51.6688 52.426 51.7232 53.8237 51.6434C54.1774 51.6232 54.5371 51.5903 54.8672 51.4532C55.2478 51.2907 55.5654 50.9932 55.7676 50.6098C55.8417 50.4679 55.9004 50.3091 55.8895 50.147C55.8678 49.8196 55.5185 49.5066 55.1904 49.2744Z" fill="#FFC952"/>
<path d="M41.2799 50.9708C40.9193 51.1398 40.5221 51.4389 40.5497 51.8614C40.567 52.1207 40.7471 52.3344 40.9508 52.4773C41.3362 52.7499 41.8074 52.8365 42.2648 52.8982C43.3642 53.047 44.4738 53.09 45.5804 53.0268C45.8607 53.0108 46.1458 52.9869 46.4069 52.8764C46.7083 52.7478 46.9598 52.5121 47.1198 52.2084C47.1851 52.0991 47.2194 51.9717 47.2185 51.8417C47.1943 51.466 46.6235 51.1143 46.3506 50.9463C45.8705 50.6509 45.2158 50.5329 44.673 50.4585C43.5198 50.2982 42.3478 50.4752 41.2799 50.9708Z" fill="#FFD757"/>
<path d="M54.9723 49.1523C54.6122 49.3218 54.2145 49.621 54.2426 50.0435C54.2599 50.3023 54.44 50.5164 54.6433 50.6588C55.0286 50.9315 55.4998 51.0181 55.9572 51.0797C57.0568 51.2285 58.1666 51.2716 59.2733 51.2083C59.5536 51.1924 59.8383 51.1685 60.0998 51.0579C60.4011 50.9291 60.6526 50.6935 60.8127 50.39C60.8778 50.2806 60.9121 50.1532 60.9114 50.0233C60.8867 49.6476 60.3159 49.2958 60.043 49.1284C59.5629 48.8324 58.9082 48.7144 58.3655 48.6406C57.2123 48.4805 56.0403 48.6572 54.9723 49.1523Z" fill="#FFD757"/>
<path d="M60.35 49.3314C60.3633 49.3644 60.3752 49.3978 60.386 49.4319C60.4186 49.5381 60.4354 49.6667 60.3673 49.7507C60.2992 49.8347 60.1936 49.8384 60.0964 49.8331C59.7189 49.8102 59.3563 49.6736 58.9907 49.5732C58.1862 49.3546 57.3487 49.3152 56.5296 49.4574C57.1503 49.4882 57.773 49.519 58.3828 49.6439C58.8111 49.7316 59.2596 49.8846 59.5315 50.2513C59.5848 50.3114 59.6147 50.3913 59.6148 50.4745C59.5986 50.6504 59.3869 50.7035 59.2231 50.7094C58.4031 50.7402 57.5827 50.7373 56.762 50.7008C56.1073 50.6722 55.4461 50.6206 54.8205 50.4107C54.6137 50.3411 54.3986 50.2385 54.2412 50.085C54.2748 50.3246 54.4475 50.5223 54.6359 50.6567C55.0213 50.9294 55.4925 51.016 55.9499 51.0776C57.0493 51.2264 58.1589 51.2694 59.2655 51.2062C59.5463 51.1903 59.8309 51.1664 60.0924 51.0558C60.3937 50.9269 60.6451 50.6913 60.8054 50.3879C60.8707 50.2786 60.905 50.1511 60.9041 50.0212C60.8863 49.7629 60.612 49.5153 60.35 49.3314Z" fill="#FFC952"/>
<path d="M63.0598 49.645C62.6996 49.8145 62.3019 50.1137 62.33 50.5356C62.3473 50.7949 62.5274 51.0085 62.7307 51.1515C63.1165 51.4241 63.5872 51.5107 64.0451 51.5724C65.1446 51.7211 66.2542 51.7642 67.3607 51.701C67.641 51.685 67.9257 51.6611 68.1872 51.5506C68.4888 51.422 68.7407 51.1863 68.9011 50.8826C68.9664 50.7733 69.0007 50.6459 68.9998 50.5159C68.9751 50.1402 68.4043 49.7884 68.1319 49.6205C67.6513 49.3251 66.9971 49.2071 66.4543 49.1327C65.3006 48.9722 64.1281 49.1492 63.0598 49.645Z" fill="#FFD757"/>
<path d="M68.4403 49.8234C68.4536 49.8568 68.4655 49.8903 68.4763 49.9243C68.5089 50.0306 68.5257 50.1587 68.4576 50.2432C68.3895 50.3277 68.2839 50.3309 68.1867 50.325C67.8093 50.3027 67.4466 50.1656 67.081 50.0657C66.2766 49.8468 65.439 49.8074 64.6199 49.9498C65.2406 49.9807 65.8633 50.0115 66.4731 50.1364C66.9014 50.224 67.3499 50.3771 67.6223 50.7438C67.6753 50.804 67.705 50.8839 67.7052 50.9669C67.6889 51.1428 67.4772 51.1954 67.3134 51.2018C66.4934 51.2319 65.6732 51.2291 64.8528 51.1933C64.1976 51.1646 63.5364 51.1131 62.9108 50.9032C62.7041 50.8336 62.4889 50.731 62.3315 50.5774C62.3651 50.8171 62.5378 51.0148 62.7263 51.1492C63.1116 51.4218 63.5828 51.5084 64.0402 51.5701C65.1398 51.7189 66.2496 51.7619 67.3563 51.6987C67.6366 51.6827 67.9213 51.6588 68.1828 51.5483C68.4841 51.4195 68.7356 51.1839 68.8957 50.8803C68.9608 50.7709 68.9951 50.6436 68.9944 50.5137C68.9766 50.2554 68.6998 50.0094 68.4403 49.8234Z" fill="#FFC952"/>
<path d="M62.5903 53.206C62.3155 53.3352 62.0121 53.5637 62.0333 53.8862C62.0466 54.0839 62.1852 54.2471 62.3392 54.356C62.6352 54.5643 62.9929 54.6302 63.3423 54.6748C64.1815 54.7882 65.0283 54.8209 65.8729 54.7726C66.0866 54.7604 66.3042 54.7423 66.5035 54.6578C66.733 54.5594 66.9244 54.3797 67.0462 54.1482C67.0955 54.0646 67.1211 53.9672 67.1197 53.8682C67.1015 53.5817 66.6658 53.3134 66.4576 53.1853C66.091 52.9595 65.5907 52.8665 65.1777 52.8133C64.2982 52.6924 63.4046 52.828 62.5903 53.206Z" fill="#FFD757"/>
<path d="M53.2478 51.0446C52.8876 51.2136 52.4899 51.5127 52.518 51.9352C52.5353 52.1945 52.7154 52.4082 52.9187 52.5511C53.304 52.8237 53.7752 52.9103 54.2331 52.972C55.3325 53.1208 56.4421 53.1638 57.5487 53.1006C57.829 53.0846 58.1137 53.0607 58.3752 52.9502C58.6765 52.8214 58.928 52.5858 59.0881 52.2822C59.1534 52.1729 59.1877 52.0455 59.1868 51.9155C59.1621 51.5398 58.5913 51.1881 58.3184 51.0201C57.8383 50.7247 57.1836 50.6067 56.6409 50.5323C55.4876 50.3721 54.3156 50.5491 53.2478 51.0446Z" fill="#FFD757"/>
<path d="M58.6269 51.2271C58.6402 51.2605 58.652 51.294 58.6629 51.328C58.6954 51.4343 58.7122 51.5624 58.6441 51.6469C58.576 51.7314 58.4704 51.7345 58.3732 51.7287C57.9958 51.7064 57.6331 51.5693 57.2675 51.4694C56.4631 51.2505 55.6256 51.2111 54.8065 51.3535C55.4271 51.3838 56.0498 51.4152 56.6597 51.54C57.0879 51.6277 57.5364 51.7808 57.8088 52.1474C57.8618 52.2077 57.8915 52.2876 57.8917 52.3706C57.8754 52.5465 57.6637 52.5991 57.4999 52.6055C56.6799 52.636 55.8595 52.6331 55.0389 52.597C54.3841 52.5683 53.7229 52.5168 53.0973 52.3063C52.8906 52.2373 52.6755 52.1347 52.5181 51.9811C52.5516 52.2208 52.7243 52.4185 52.9128 52.5529C53.2981 52.8255 53.7693 52.9121 54.2267 52.9738C55.3264 53.1226 56.4361 53.1656 57.5429 53.1024C57.8231 53.0864 58.1078 53.0625 58.3693 52.952C58.6706 52.8232 58.9221 52.5876 59.0823 52.284C59.1476 52.1747 59.1819 52.0473 59.1809 51.9173C59.1632 51.6591 58.8864 51.4109 58.6269 51.2271Z" fill="#FFC952"/>
<path d="M58.3146 50.3053C57.9545 50.4748 57.5568 50.774 57.5849 51.1965C57.6022 51.4553 57.7823 51.6694 57.9856 51.8119C58.3714 52.085 58.8421 52.1711 59.3 52.2333C60.3995 52.3816 61.5091 52.4245 62.6156 52.3613C62.8959 52.3454 63.181 52.3215 63.4421 52.2109C63.7434 52.0821 63.9949 51.8465 64.155 51.543C64.2203 51.4338 64.2546 51.3066 64.2537 51.1768C64.229 50.8011 63.6582 50.4493 63.3858 50.2814C62.9057 49.9854 62.251 49.8674 61.7083 49.7936C60.5549 49.6334 59.3828 49.8101 58.3146 50.3053Z" fill="#FFD757"/>
<path d="M63.6937 50.4897C63.7071 50.5227 63.7194 50.5562 63.7298 50.5902C63.7623 50.6965 63.7791 50.8251 63.711 50.909C63.6429 50.993 63.5373 50.9967 63.4401 50.9914C63.0627 50.9691 62.7 50.832 62.3344 50.7315C61.5301 50.5129 60.6928 50.4735 59.8739 50.6157C60.4941 50.6465 61.1167 50.6773 61.7266 50.8022C62.1553 50.8899 62.6033 51.0429 62.8757 51.4101C62.9288 51.4702 62.9585 51.5499 62.9586 51.6328C62.9428 51.8087 62.7306 51.8618 62.5668 51.8677C61.7468 51.8985 60.9266 51.8958 60.1062 51.8597C59.451 51.8305 58.7898 51.7789 58.1642 51.569C57.9575 51.4994 57.7424 51.3969 57.585 51.2433C57.6185 51.4829 57.7912 51.6806 57.9797 51.8151C58.365 52.0882 58.8362 52.1743 59.2941 52.2365C60.3936 52.3848 61.5032 52.4277 62.6098 52.3645C62.89 52.3486 63.1747 52.3247 63.4362 52.2141C63.7375 52.0854 63.989 51.8497 64.1492 51.5462C64.2144 51.4371 64.2487 51.3098 64.2478 51.18C64.2306 50.9191 63.9533 50.6715 63.6937 50.4897Z" fill="#FFC952"/>
</svg>
