<svg width="51" height="61" viewBox="0 0 51 61" fill="none" xmlns="http://www.w3.org/2000/svg">
<path d="M41.5 47.2683C41.5 54.2365 34.6521 60.0366 26 60.0366C17.3479 60.0366 10.5 54.2365 10.5 47.2683C10.5 40.3001 17.3479 34.5 26 34.5C34.6521 34.5 41.5 40.3001 41.5 47.2683Z" fill="#56876D" stroke="#56876D"/>
<path d="M41.5 44.2683C41.5 51.2365 34.6521 57.0366 26 57.0366C17.3479 57.0366 10.5 51.2365 10.5 44.2683C10.5 37.3001 17.3479 31.5 26 31.5C34.6521 31.5 41.5 37.3001 41.5 44.2683Z" fill="#00ACB7" stroke="#56876D"/>
<path d="M23.7112 28.851C23.7112 28.851 23.0843 33.2416 22.725 35.1195C22.3657 36.9974 20.7146 45.0301 20.9898 45.4912C21.265 45.9524 24.4221 46.1595 26.3408 46.0994C28.2596 46.0392 29.9337 45.9256 30.4841 45.5447C31.0345 45.1638 30.5605 44.8764 30.3235 43.2057C30.0866 41.535 28.2748 35.2598 27.7245 32.7738C27.1741 30.2878 26.8148 28.6438 26.8148 28.6438L23.7112 28.851Z" fill="#6E3D1A"/>
<path d="M28.5692 44.7573C28.5692 43.2815 28.3206 41.8192 28.1714 40.3501C28.0905 39.5519 27.8854 38.767 27.73 37.9755C27.6483 37.2422 27.5195 36.516 27.3445 35.8021C27.348 35.7507 27.348 35.6991 27.3445 35.6478C27.3445 35.6075 27.2637 35.6478 27.2699 35.6478C27.276 35.7416 27.276 35.8357 27.2699 35.9295C27.2388 36.4321 27.2388 36.9363 27.2699 37.4388C27.3694 38.1096 27.531 38.6999 27.6429 39.3372C27.8481 40.5581 27.8978 41.7924 28.1278 43.0065C28.1278 43.087 28.1278 43.1675 28.1278 43.248C28.1558 43.5845 28.2057 43.9185 28.277 44.2475C28.3291 44.6366 28.4252 45.0173 28.563 45.3812C28.5663 45.3899 28.5718 45.3974 28.579 45.4026C28.5862 45.4079 28.5947 45.4107 28.6034 45.4107C28.6121 45.4107 28.6206 45.4079 28.6278 45.4026C28.635 45.3974 28.6406 45.3899 28.6438 45.3812C28.6128 45.1866 28.5692 44.7774 28.5692 44.7573Z" fill="#50240F"/>
<path d="M23.7101 42.4823C23.7101 41.9168 23.7666 41.3512 23.7504 40.7786C23.7516 40.4654 23.7247 40.1526 23.6698 39.843C23.6456 39.6032 23.5804 39.3679 23.4762 39.1448C23.4762 39.0959 23.3552 39.1448 23.3632 39.1448V39.1867C23.3632 39.7034 23.1858 40.1921 23.097 40.6949C23.0406 41.243 23.0406 41.7945 23.097 42.3427C23.097 42.8943 23.1858 43.4459 23.2584 43.9905C23.331 44.5351 23.4116 45.2823 23.5084 45.9176C23.5084 45.9805 23.5972 46.3156 23.6375 45.9176C23.7101 44.7795 23.6859 43.6274 23.7101 42.4823Z" fill="#50240F"/>
<path d="M2.08233 25.0878C2.33741 26.7414 2.69301 28.3824 3.14767 30.0041C5.15009 30.0816 7.15639 30.0379 9.15166 29.8733C10.9551 29.6968 36.9268 29.0169 40.6403 29.1542C44.3538 29.2915 48.2955 29.0888 48.3564 28.9515C48.4173 28.8142 48.151 26.5915 48.3564 24.7479C48.5507 23.7481 48.6044 22.7318 48.5162 21.721C48.4937 21.1216 48.6262 20.5255 48.9043 19.9755L48.5771 19.4721C48.0064 19.4132 47.8161 18.1646 47.0552 18.1646C45.0538 18.1646 32.0794 19.1844 22.9403 19.1256C13.8011 19.0667 5.33924 19.034 4.44131 19.4721C3.54337 19.9101 1.39746 20.7796 1.39746 20.7796" fill="#582F13"/>
<path d="M4.11413 19.4428C4.11413 19.4428 2.06591 20.7181 2.09603 20.9587C3.00593 20.7762 3.89082 20.5309 4.73914 20.2259C5.62771 19.8511 14.182 19.4484 23.2258 19.4987C32.2696 19.549 45.1313 19.3533 46.9912 19.8567C47.6094 20.0261 48.2508 20.1443 48.9039 20.2091C48.5982 19.8176 48.3314 19.41 48.1057 18.9897C47.925 18.5366 4.11413 19.4428 4.11413 19.4428Z" fill="#44250C"/>
<path d="M47.5409 9.08228L3.82997 9.73169C2.84213 10.1859 1.78938 10.5244 0.699219 10.7383C0.699219 10.9136 1.08029 14.2451 1.12512 15.6154C1.16995 16.9857 1.40905 19.8756 1.59585 19.9795C1.78265 20.0834 4.18862 20.1808 4.50245 20.2458C4.81627 20.3107 7.91713 20.1418 9.08276 20.0769C10.7387 20.0156 12.3972 20.0286 14.0516 20.1159C15.3443 20.2068 20.4327 20.1159 23.2122 20.1159C25.9918 20.1159 31.0877 20.3562 34.4202 19.986C36.915 19.7281 39.4335 19.6911 41.937 19.8756C43.5519 19.9611 45.1713 19.9611 46.7863 19.8756C47.5497 19.4684 48.2611 18.9916 48.9083 18.4534C48.7185 16.8418 48.7687 15.2156 49.0577 13.6152C49.5509 11.1085 49.6854 9.84209 49.5584 9.43296C48.8962 9.27513 48.222 9.15794 47.5409 9.08228Z" fill="#623516"/>
<path d="M47.5697 8.88905C48.2563 8.96115 48.9358 9.07371 49.6033 9.22589C49.592 9.17642 49.5634 9.13085 49.5211 9.09489C49.2818 8.93271 48.594 8.38379 48.594 8.38379L2.49359 8.60835C1.84887 9.2 1.24955 9.82502 0.699219 10.4797C1.79114 10.2683 2.84458 9.93691 3.83189 9.49411L47.5697 8.88905Z" fill="#44250C"/>
<path d="M1.05334 1.94267L0 3.49315L51 2.20337L49.3025 0.0354367C49.3025 0.0354367 43.6569 -0.136077 35.2756 0.275556C26.8944 0.687188 14.6028 1.00277 9.59376 1.37324C4.58469 1.74371 1.61412 1.88092 1.05334 1.94267Z" fill="#8B5422"/>
<path d="M50.5683 6.89002C50.5683 6.95691 50.4093 8.78966 50.4093 8.84318C50.4093 8.89669 48.2964 9.29802 47.842 9.36491C47.3876 9.4318 38.1938 9.88664 33.5969 10.0338C29 10.181 26.1146 10.2679 21.654 10.1876C17.1934 10.1074 14.1414 10.1876 10.2942 10.3348C6.44707 10.482 5.69732 10.5087 4.94758 10.4552C4.19783 10.4017 0.676312 10.1876 0.494556 10.007C0.3128 9.82644 0.290081 6.6024 0.131044 5.47197C0.0321807 4.68583 -0.0108182 3.89499 0.00230047 3.10411C0.715939 3.07519 1.42675 3.00593 2.13036 2.89675C3.51625 2.66264 5.5913 2.74959 7.36342 2.42853C9.13554 2.10746 12.0739 2.12753 13.8688 1.88673C15.6636 1.64593 20.4499 1.61917 23.4791 1.55228C26.5084 1.48539 38.9738 1.39844 42.2076 1.39844C45.4413 1.39844 51 1.84659 51 1.84659L50.6668 6.3014" fill="#6E3D1A"/>
<path d="M9.08934 12.604C8.95334 12.34 8.70934 12.124 8.35734 11.956C8.00534 11.78 7.64134 11.692 7.26534 11.692C6.85734 11.692 6.51334 11.804 6.23334 12.028C5.96134 12.252 5.82534 12.58 5.82534 13.012C5.82534 13.34 5.92534 13.612 6.12534 13.828C6.33334 14.036 6.58934 14.184 6.89334 14.272C7.19734 14.352 7.52934 14.452 7.88934 14.572C8.24934 14.692 8.58134 14.816 8.88534 14.944C9.18934 15.072 9.44134 15.292 9.64134 15.604C9.84934 15.916 9.95334 16.304 9.95334 16.768C9.95334 17.184 9.87334 17.552 9.71334 17.872C9.55334 18.184 9.33734 18.428 9.06534 18.604C8.79334 18.78 8.49734 18.912 8.17734 19C7.86534 19.08 7.53334 19.12 7.18134 19.12C6.55734 19.12 6.00534 19.012 5.52534 18.796C5.05334 18.572 4.81734 18.304 4.81734 17.992C4.81734 17.888 4.84934 17.796 4.91334 17.716C4.98534 17.628 5.05334 17.564 5.11734 17.524C5.18134 17.484 5.28534 17.428 5.42934 17.356C5.58134 17.652 5.85334 17.896 6.24534 18.088C6.64534 18.272 7.04934 18.364 7.45734 18.364C7.90534 18.364 8.28934 18.244 8.60934 18.004C8.92934 17.756 9.08934 17.404 9.08934 16.948C9.08934 16.572 8.94534 16.276 8.65734 16.06C8.37734 15.836 8.03334 15.668 7.62534 15.556C7.22534 15.444 6.82134 15.32 6.41334 15.184C6.01334 15.048 5.66934 14.82 5.38134 14.5C5.10134 14.172 4.96134 13.74 4.96134 13.204C4.96134 12.468 5.20134 11.904 5.68134 11.512C6.16934 11.12 6.78934 10.924 7.54134 10.924C8.09334 10.924 8.60134 11.02 9.06534 11.212C9.53734 11.404 9.77334 11.668 9.77334 12.004C9.77334 12.324 9.54534 12.524 9.08934 12.604ZM14.2203 16.468C14.0683 16.108 13.7443 15.256 13.2483 13.912C12.8483 15.064 12.5323 15.912 12.3003 16.456C12.7803 16.472 13.1483 16.48 13.4043 16.48C13.7803 16.48 14.0523 16.476 14.2203 16.468ZM13.2123 17.116C13.0443 17.116 12.6563 17.108 12.0483 17.092C12.0083 17.188 11.9203 17.4 11.7843 17.728C11.6563 18.056 11.5523 18.332 11.4723 18.556C11.3923 18.772 11.3243 18.984 11.2683 19.192C10.7963 19.128 10.5603 19.004 10.5603 18.82C10.5603 18.74 10.5963 18.608 10.6683 18.424C10.7483 18.24 10.8803 17.936 11.0643 17.512C11.2563 17.08 11.4363 16.648 11.6043 16.216C12.2283 14.608 12.6363 13.48 12.8283 12.832C12.9563 12.808 13.1043 12.796 13.2723 12.796C13.4483 12.796 13.5723 12.824 13.6443 12.88C13.7163 12.928 13.7963 13.068 13.8843 13.3C13.9483 13.468 14.1203 13.936 14.4003 14.704C14.6883 15.464 14.9123 16.048 15.0723 16.456C15.4563 17.4 15.8323 18.22 16.2003 18.916C15.9763 19.028 15.7963 19.084 15.6603 19.084C15.4203 19.084 15.2563 19.004 15.1683 18.844C15.1203 18.732 14.8843 18.148 14.4603 17.092C13.7723 17.108 13.3563 17.116 13.2123 17.116ZM21.7538 18.208C21.7538 18.432 21.5618 18.636 21.1778 18.82C20.8018 18.996 20.3338 19.084 19.7738 19.084C18.8378 19.084 18.0858 18.792 17.5178 18.208C16.9498 17.624 16.6658 16.856 16.6658 15.904C16.6658 14.904 16.9458 14.124 17.5058 13.564C18.0738 12.996 18.8458 12.712 19.8218 12.712C20.3418 12.712 20.7778 12.812 21.1298 13.012C21.4818 13.204 21.6578 13.444 21.6578 13.732C21.6578 14.028 21.4378 14.212 20.9978 14.284C20.8778 13.98 20.6898 13.752 20.4338 13.6C20.1778 13.448 19.9058 13.372 19.6178 13.372C19.0338 13.372 18.5538 13.596 18.1778 14.044C17.8018 14.492 17.6138 15.048 17.6138 15.712C17.6138 16.488 17.7978 17.136 18.1658 17.656C18.5418 18.176 19.0618 18.436 19.7258 18.436C20.2058 18.436 20.6058 18.312 20.9258 18.064C20.9098 17.336 20.8858 16.692 20.8538 16.132C20.9818 16.116 21.1178 16.108 21.2618 16.108C21.6378 16.108 21.8258 16.224 21.8258 16.456C21.8258 16.464 21.8138 16.676 21.7898 17.092C21.7658 17.5 21.7538 17.872 21.7538 18.208ZM24.8657 13.36L24.2537 13.396C24.2777 13.772 24.2897 14.436 24.2897 15.388C24.4817 15.404 24.6497 15.412 24.7937 15.412C25.9057 15.412 26.4617 15.076 26.4617 14.404C26.4617 13.708 25.9297 13.36 24.8657 13.36ZM25.2977 18.448C25.6977 18.448 26.0297 18.34 26.2937 18.124C26.5657 17.908 26.7017 17.608 26.7017 17.224C26.7017 16.808 26.5497 16.492 26.2457 16.276C25.9497 16.052 25.5857 15.94 25.1537 15.94C24.7697 15.94 24.4817 15.956 24.2897 15.988C24.2897 16.636 24.2457 17.344 24.1577 18.112C24.4617 18.336 24.8417 18.448 25.2977 18.448ZM23.2697 18.508C23.3737 17.796 23.4257 16.756 23.4257 15.388C23.4257 14.212 23.3857 13.356 23.3057 12.82C23.7537 12.748 24.2857 12.712 24.9017 12.712C25.6297 12.712 26.2257 12.836 26.6897 13.084C27.1537 13.332 27.3857 13.744 27.3857 14.32C27.3857 14.944 27.0977 15.376 26.5217 15.616C27.2497 15.904 27.6137 16.44 27.6137 17.224C27.6137 17.808 27.4097 18.264 27.0017 18.592C26.5937 18.92 26.0897 19.084 25.4897 19.084C24.5137 19.084 23.7737 18.892 23.2697 18.508ZM32.9691 18.16C33.1451 18.336 33.3371 18.424 33.5451 18.424C33.5851 18.424 33.6691 18.416 33.7971 18.4C33.8531 18.512 33.8811 18.616 33.8811 18.712C33.8811 18.96 33.6211 19.084 33.1011 19.084C32.8691 19.084 32.6451 19 32.4291 18.832C32.2131 18.656 32.0051 18.408 31.8051 18.088C31.6051 17.76 31.4491 17.488 31.3371 17.272C31.2331 17.048 31.1051 16.764 30.9531 16.42C30.8011 16.388 30.7251 16.308 30.7251 16.18C30.7251 16.1 30.7531 15.98 30.8091 15.82C30.9851 15.86 31.1371 15.88 31.2651 15.88C31.6331 15.88 31.9331 15.768 32.1651 15.544C32.3971 15.312 32.5131 15 32.5131 14.608C32.5131 14.144 32.3851 13.82 32.1291 13.636C31.8731 13.452 31.4811 13.36 30.9531 13.36C30.9051 13.36 30.6651 13.372 30.2331 13.396C30.2651 13.764 30.2811 14.392 30.2811 15.28V17.128C30.2811 17.96 30.3411 18.572 30.4611 18.964C30.3251 19.004 30.1491 19.024 29.9331 19.024C29.7171 19.024 29.5691 18.984 29.4891 18.904C29.4171 18.824 29.3811 18.688 29.3811 18.496C29.3811 18.4 29.3851 18.156 29.3931 17.764C29.4011 17.372 29.4051 17.064 29.4051 16.84V14.968C29.4051 14.088 29.3611 13.372 29.2731 12.82C29.7051 12.748 30.2091 12.712 30.7851 12.712C32.5771 12.712 33.4731 13.34 33.4731 14.596C33.4731 15.092 33.3291 15.496 33.0411 15.808C32.7611 16.12 32.3851 16.328 31.9131 16.432C32.4011 17.368 32.7531 17.944 32.9691 18.16ZM35.2742 12.844C35.4182 12.796 35.5862 12.772 35.7782 12.772C35.9942 12.772 36.1502 12.808 36.2462 12.88C36.3502 12.952 36.4022 13.076 36.4022 13.252C36.4022 13.516 36.3742 14.096 36.3182 14.992C36.2702 15.888 36.2462 16.588 36.2462 17.092C36.2462 17.516 36.3702 17.836 36.6182 18.052C36.8662 18.268 37.1582 18.376 37.4942 18.376C37.7982 18.376 38.1182 18.304 38.4542 18.16C38.7902 18.016 39.0622 17.848 39.2702 17.656C39.2702 17.616 39.2702 17.516 39.2702 17.356C39.2782 17.188 39.2822 16.904 39.2822 16.504C39.2822 16.104 39.2822 15.592 39.2822 14.968C39.2822 14.136 39.2582 13.416 39.2102 12.808C39.3382 12.784 39.4942 12.772 39.6782 12.772C40.0462 12.772 40.2302 12.892 40.2302 13.132C40.2302 13.14 40.2222 13.256 40.2062 13.48C40.1982 13.696 40.1862 14.036 40.1702 14.5C40.1542 14.964 40.1462 15.5 40.1462 16.108C40.1462 17.076 40.1542 17.724 40.1702 18.052C40.1942 18.38 40.2502 18.684 40.3382 18.964C40.2022 19.004 40.0262 19.024 39.8102 19.024C39.6022 19.024 39.4582 18.988 39.3782 18.916C39.2982 18.836 39.2582 18.692 39.2582 18.484V18.34C38.9942 18.556 38.6822 18.736 38.3222 18.88C37.9622 19.016 37.6302 19.084 37.3262 19.084C36.7182 19.084 36.2342 18.948 35.8742 18.676C35.5222 18.404 35.3462 17.916 35.3462 17.212C35.3462 16.844 35.3582 16.348 35.3822 15.724C35.4142 15.092 35.4302 14.624 35.4302 14.32C35.4302 13.712 35.3782 13.22 35.2742 12.844ZM43.9031 15.652C44.5831 16.764 45.1231 17.564 45.5231 18.052C45.7551 18.3 46.0031 18.424 46.2671 18.424C46.3471 18.424 46.4231 18.416 46.4951 18.4C46.5511 18.488 46.5791 18.584 46.5791 18.688C46.5791 18.816 46.5151 18.916 46.3871 18.988C46.2591 19.06 46.1031 19.096 45.9191 19.096C45.5351 19.096 45.1991 18.936 44.9111 18.616C44.7831 18.472 44.6351 18.288 44.4671 18.064C44.3071 17.84 44.1671 17.644 44.0471 17.476C43.9351 17.3 43.7831 17.068 43.5911 16.78C43.3991 16.492 43.2711 16.296 43.2071 16.192L43.1231 16.252V17.104C43.1231 17.944 43.1871 18.56 43.3151 18.952C43.1951 19 43.0191 19.024 42.7871 19.024C42.5711 19.024 42.4231 18.984 42.3431 18.904C42.2711 18.824 42.2351 18.688 42.2351 18.496C42.2351 18.4 42.2391 18.156 42.2471 17.764C42.2551 17.372 42.2591 17.064 42.2591 16.84V14.968C42.2591 14.136 42.2351 13.416 42.1871 12.808C42.3311 12.784 42.4831 12.772 42.6431 12.772C43.0191 12.772 43.2071 12.892 43.2071 13.132C43.2071 13.164 43.1991 13.288 43.1831 13.504C43.1751 13.72 43.1631 14 43.1471 14.344C43.1311 14.68 43.1231 15.008 43.1231 15.328C43.6111 14.984 44.0951 14.56 44.5751 14.056C45.0631 13.552 45.3631 13.128 45.4751 12.784C45.8751 12.84 46.0751 12.98 46.0751 13.204C46.0751 13.372 45.8471 13.712 45.3911 14.224C44.9431 14.728 44.4471 15.204 43.9031 15.652Z" fill="white"/>
</svg>
