<svg width="55" height="61" viewBox="0 0 55 61" fill="none" xmlns="http://www.w3.org/2000/svg">
<path d="M42.5 47.2683C42.5 54.2365 35.6521 60.0366 27 60.0366C18.3479 60.0366 11.5 54.2365 11.5 47.2683C11.5 40.3001 18.3479 34.5 27 34.5C35.6521 34.5 42.5 40.3001 42.5 47.2683Z" fill="#56876D" stroke="#56876D"/>
<path d="M42.5 44.2683C42.5 51.2365 35.6521 57.0366 27 57.0366C18.3479 57.0366 11.5 51.2365 11.5 44.2683C11.5 37.3001 18.3479 31.5 27 31.5C35.6521 31.5 42.5 37.3001 42.5 44.2683Z" fill="#00ACB7" stroke="#56876D"/>
<path d="M25.7112 28.851C25.7112 28.851 25.0843 33.2416 24.725 35.1195C24.3657 36.9974 22.7146 45.0301 22.9898 45.4912C23.265 45.9524 26.4221 46.1595 28.3408 46.0994C30.2596 46.0392 31.9337 45.9256 32.4841 45.5447C33.0345 45.1638 32.5605 44.8764 32.3235 43.2057C32.0866 41.535 30.2748 35.2598 29.7245 32.7738C29.1741 30.2878 28.8148 28.6438 28.8148 28.6438L25.7112 28.851Z" fill="#6E3D1A"/>
<path d="M30.5692 44.7573C30.5692 43.2815 30.3206 41.8192 30.1714 40.3501C30.0905 39.5519 29.8854 38.767 29.73 37.9755C29.6483 37.2422 29.5195 36.516 29.3445 35.8021C29.348 35.7507 29.348 35.6991 29.3445 35.6478C29.3445 35.6075 29.2637 35.6478 29.2699 35.6478C29.276 35.7416 29.276 35.8357 29.2699 35.9295C29.2388 36.4321 29.2388 36.9363 29.2699 37.4388C29.3694 38.1096 29.531 38.6999 29.6429 39.3372C29.8481 40.5581 29.8978 41.7924 30.1278 43.0065C30.1278 43.087 30.1278 43.1675 30.1278 43.248C30.1558 43.5845 30.2057 43.9185 30.277 44.2475C30.3291 44.6366 30.4252 45.0173 30.563 45.3812C30.5663 45.3899 30.5718 45.3974 30.579 45.4026C30.5862 45.4079 30.5947 45.4107 30.6034 45.4107C30.6121 45.4107 30.6206 45.4079 30.6278 45.4026C30.635 45.3974 30.6406 45.3899 30.6438 45.3812C30.6128 45.1866 30.5692 44.7774 30.5692 44.7573Z" fill="#50240F"/>
<path d="M25.7101 42.4823C25.7101 41.9168 25.7666 41.3512 25.7504 40.7786C25.7516 40.4654 25.7247 40.1526 25.6698 39.843C25.6456 39.6032 25.5804 39.3679 25.4762 39.1448C25.4762 39.0959 25.3552 39.1448 25.3632 39.1448V39.1867C25.3632 39.7034 25.1858 40.1921 25.097 40.6949C25.0406 41.243 25.0406 41.7945 25.097 42.3427C25.097 42.8943 25.1858 43.4459 25.2584 43.9905C25.331 44.5351 25.4116 45.2823 25.5084 45.9176C25.5084 45.9805 25.5972 46.3156 25.6375 45.9176C25.7101 44.7795 25.6859 43.6274 25.7101 42.4823Z" fill="#50240F"/>
<path d="M0.778472 24.9951C1.06842 26.6659 1.47263 28.3239 1.98943 29.9624C4.26554 30.0407 6.54604 29.9966 8.81403 29.8303C10.864 29.652 40.3854 28.965 44.6064 29.1037C48.8275 29.2424 53.308 29.0377 53.3772 28.8989C53.4464 28.7602 53.1437 26.5144 53.3772 24.6517C53.5981 23.6415 53.6591 22.6147 53.5589 21.5934C53.5333 20.9878 53.6839 20.3854 54 19.8297L53.6281 19.3211C52.9793 19.2616 52.7631 18 51.8981 18C49.6233 18 34.8755 19.0304 24.4873 18.971C14.099 18.9115 4.48054 18.8785 3.45988 19.3211C2.43921 19.7636 0 20.6422 0 20.6422" fill="#582F13"/>
<path d="M6.11413 19.4428C6.11413 19.4428 4.06591 20.7181 4.09603 20.9587C5.00593 20.7762 5.89082 20.5309 6.73914 20.2259C7.62771 19.8511 16.182 19.4484 25.2258 19.4987C34.2696 19.549 47.1313 19.3533 48.9912 19.8567C49.6094 20.0261 50.2508 20.1443 50.9039 20.2091C50.5982 19.8176 50.3314 19.41 50.1057 18.9897C49.925 18.5366 6.11413 19.4428 6.11413 19.4428Z" fill="#44250C"/>
<path d="M52.6805 9L3.521 9.63907C2.41002 10.0861 1.22605 10.4192 0 10.6296C0 10.8022 0.42857 14.0806 0.47899 15.4291C0.52941 16.7775 0.798317 19.6214 1.0084 19.7236C1.21848 19.8259 3.92436 19.9217 4.2773 19.9856C4.63024 20.0495 8.11762 19.8834 9.42854 19.8195C11.2909 19.7592 13.1561 19.772 15.0168 19.8578C16.4705 19.9473 22.1932 19.8578 25.3193 19.8578C28.4453 19.8578 34.1764 20.0943 37.9243 19.73C40.7301 19.4762 43.5625 19.4398 46.378 19.6214C48.1943 19.7055 50.0155 19.7055 51.8318 19.6214C52.6904 19.2206 53.4905 18.7515 54.2183 18.2218C54.0049 16.6359 54.0613 15.0356 54.3864 13.4607C54.941 10.9939 55.0923 9.74771 54.9494 9.3451C54.2047 9.18978 53.4465 9.07446 52.6805 9Z" fill="#623516"/>
<path d="M49.5697 8.88905C50.2563 8.96115 50.9358 9.07371 51.6033 9.22589C51.592 9.17642 51.5634 9.13085 51.5211 9.09489C51.2818 8.93271 50.594 8.38379 50.594 8.38379L4.49359 8.60835C3.84887 9.2 3.24955 9.82502 2.69922 10.4797C3.79114 10.2683 4.84458 9.93691 5.83189 9.49411L49.5697 8.88905Z" fill="#44250C"/>
<path d="M3.05334 1.94267L2 3.49315L53 2.20337L51.3025 0.0354367C51.3025 0.0354367 45.6569 -0.136077 37.2756 0.275556C28.8944 0.687188 16.6028 1.00277 11.5938 1.37324C6.58469 1.74371 3.61412 1.88092 3.05334 1.94267Z" fill="#8B5422"/>
<path d="M54.5345 6.44188C54.5345 6.50817 54.363 8.32434 54.363 8.37737C54.363 8.43039 52.0843 8.82809 51.5943 8.89438C51.1043 8.96066 41.1894 9.41139 36.2319 9.55721C31.2745 9.70304 28.1628 9.78921 23.3523 9.70967C18.5419 9.63013 15.2505 9.70967 11.1016 9.85549C6.95272 10.0013 6.14417 10.0278 5.33562 9.9748C4.52708 9.92177 0.729356 9.70967 0.533345 9.5307C0.337334 9.35174 0.312832 6.15687 0.141322 5.03667C0.0347047 4.25765 -0.0116666 3.47396 0.0024809 2.69023C0.772091 2.66158 1.53865 2.59294 2.29745 2.48475C3.79203 2.25276 6.02983 2.33893 7.94094 2.02077C9.85205 1.70261 13.0209 1.72249 14.9565 1.48387C16.8921 1.24525 22.0538 1.21874 25.3206 1.15245C28.5875 1.08617 42.0306 1 45.518 1C49.0053 1 55 1.4441 55 1.4441L54.6407 5.85859" fill="#6E3D1A"/>
<path d="M5.94713 17.9211C6.04993 17.1917 6.09696 15.847 6.08821 13.887C6.07053 12.4871 6.0048 11.3998 5.89101 10.6252C6.36976 10.5231 6.98911 10.4673 7.74905 10.4577C8.373 10.4498 8.93381 10.5108 9.43149 10.6405C9.92917 10.7702 10.3839 10.9845 10.7957 11.2833C11.2154 11.574 11.5407 11.99 11.7715 12.5311C12.0104 13.0721 12.1346 13.7226 12.1442 14.4825C12.1594 15.6825 11.8519 16.6744 11.2217 17.4584C10.5915 18.2345 9.68438 18.6299 8.50047 18.6449C7.41256 18.6586 6.56144 18.4173 5.94713 17.9211ZM6.90696 11.2484C6.94593 11.8 6.97016 12.4517 6.97965 13.2037C7.00208 14.9795 6.96416 16.4121 6.8659 17.5014C7.30151 17.784 7.83528 17.9212 8.46723 17.9132C8.97119 17.9069 9.40595 17.8054 9.77149 17.6088C10.137 17.4121 10.4138 17.1526 10.6017 16.8302C10.7976 16.4997 10.9373 16.1619 11.021 15.8168C11.1046 15.4718 11.1441 15.1112 11.1393 14.7353C11.1243 13.5433 10.817 12.6512 10.2175 12.0587C9.61793 11.4662 8.77021 11.1769 7.67429 11.1907C7.49831 11.1929 7.24253 11.2122 6.90696 11.2484ZM14.666 12.9266C14.6924 13.1183 14.7122 13.7381 14.7254 14.786L15.4934 14.7763C16.0293 14.7695 16.4131 14.7527 16.6448 14.7257C16.6696 14.7894 16.6827 14.8773 16.6842 14.9893C16.6862 15.1493 16.6516 15.2617 16.5804 15.3266C16.5171 15.3834 16.4135 15.4167 16.2696 15.4265C16.1018 15.4367 15.8738 15.4435 15.5859 15.4472L14.7339 15.4579C14.7502 16.7458 14.784 17.5215 14.8353 17.7848C15.1235 17.7972 15.3556 17.8023 15.5316 17.8C16.5875 17.7867 17.2785 17.706 17.6047 17.5579C17.6625 17.7011 17.6924 17.8528 17.6944 18.0128C17.696 18.1407 17.6652 18.2331 17.6019 18.2899C17.483 18.3795 16.9396 18.4303 15.9717 18.4425C15.7797 18.445 15.4717 18.4449 15.0476 18.4422C14.6237 18.4476 14.4037 18.4503 14.3877 18.4505C14.1876 18.4451 14.051 18.4028 13.978 18.3237C13.913 18.2445 13.8794 18.1129 13.877 17.9289C13.8756 17.817 13.8766 17.5729 13.8798 17.1969C13.883 16.8128 13.8832 16.5128 13.8804 16.2968L13.8573 14.4609C13.8457 13.549 13.7887 12.8337 13.6862 12.3149C14.4694 12.249 15.201 12.2118 15.8809 12.2032C16.8488 12.191 17.3934 12.2321 17.5146 12.3266C17.5793 12.3818 17.6125 12.4733 17.6141 12.6013C17.6161 12.7613 17.59 12.9137 17.5358 13.0584C17.1503 12.9352 16.5495 12.8788 15.7336 12.8891C15.4216 12.893 15.0657 12.9055 14.666 12.9266ZM25.4985 14.2299L25.526 16.4138C25.5366 17.2537 25.6045 17.8729 25.7295 18.2713C25.626 18.3126 25.4623 18.3347 25.2383 18.3375C25.0143 18.3404 24.8618 18.3023 24.7808 18.2233C24.7078 18.1442 24.6701 18.0087 24.6677 17.8167C24.665 17.6007 24.6574 17.0008 24.645 16.0168C24.6404 15.0248 24.6333 14.1408 24.6235 13.3649C24.1094 14.4675 23.5182 16.1231 22.85 18.3317C22.7543 18.3569 22.6265 18.3705 22.4665 18.3725C22.2183 18.3597 22.0573 18.2817 21.9835 18.1386C21.803 17.7809 21.5018 17.0526 21.0799 15.9538C20.658 14.8551 20.2993 14.0115 20.0038 13.4232L20.0425 16.483C20.0531 17.3229 20.1249 17.9421 20.2579 18.3404C20.0985 18.3824 19.9547 18.4042 19.8267 18.4059C19.6187 18.4085 19.4783 18.3703 19.4053 18.2912C19.3322 18.2121 19.2945 18.0766 19.2921 17.8846C19.2909 17.7886 19.2878 17.5446 19.2829 17.1526C19.2859 16.7606 19.286 16.4525 19.2832 16.2286L19.2535 13.8767C19.2446 13.1728 19.1777 12.6216 19.0526 12.2231C19.292 12.1721 19.4997 12.1455 19.6757 12.1433C20.0036 12.1391 20.2615 12.2879 20.4493 12.5895C20.7104 12.9863 20.9687 13.4831 21.2242 14.0799C21.4877 14.6686 21.6941 15.174 21.8434 15.5962C21.9927 16.0103 22.192 16.5919 22.4415 17.3408C22.9049 15.3908 23.5207 13.7869 24.2889 12.5291C24.4611 12.2309 24.7153 12.0796 25.0512 12.0754C25.2432 12.073 25.4435 12.0944 25.6521 12.1398C25.5368 12.5173 25.4856 13.214 25.4985 14.2299ZM32.5438 18.2213C32.384 18.2393 32.2601 18.2489 32.1722 18.25C31.9002 18.2534 31.7072 18.1759 31.5932 18.0173C31.3485 17.6523 30.8873 16.9221 30.2094 15.8266C29.5315 14.731 28.9767 13.878 28.545 13.2674C28.5685 13.8671 28.5884 14.811 28.6047 16.0989C28.618 17.1548 28.691 17.8659 28.8237 18.2323C28.6802 18.2741 28.5404 18.2958 28.4045 18.2976C28.1885 18.3003 28.044 18.2621 27.971 18.183C27.898 18.1039 27.8603 17.9684 27.8578 17.7764C27.8566 17.6804 27.8535 17.4364 27.8486 17.0445C27.8516 16.6524 27.8518 16.3444 27.8489 16.1204L27.8253 14.2485C27.8122 13.2086 27.7432 12.4974 27.6183 12.115C27.7617 12.0652 27.9334 12.039 28.1334 12.0365C28.3814 12.0334 28.5905 12.1227 28.7608 12.3046C29.0768 12.6206 29.5408 13.2468 30.1526 14.1832C30.7645 15.1195 31.3037 16.0048 31.7703 16.8389C31.723 16.2635 31.6922 15.4038 31.6777 14.2599C31.6668 13.396 31.6334 12.6523 31.5776 12.029C31.7054 12.0114 31.8212 12.0019 31.9252 12.0006C32.2932 11.996 32.4787 12.1136 32.4817 12.3536C32.4821 12.3856 32.4757 12.5097 32.4624 12.7259C32.4572 12.942 32.4485 13.2101 32.4366 13.5303C32.4326 13.8503 32.4325 14.1544 32.4361 14.4424L32.4564 16.0502C32.4682 16.9861 32.4974 17.7098 32.5438 18.2213ZM34.7979 16.0327L34.7742 14.1608C34.7637 13.3289 34.7306 12.6092 34.675 12.0019C34.8187 11.9761 34.9705 11.9622 35.1305 11.9601C35.5064 11.9554 35.6959 12.073 35.699 12.313C35.6994 12.345 35.6929 12.4691 35.6797 12.6853C35.6744 12.9013 35.6658 13.1695 35.6538 13.4896C35.6419 13.8098 35.6377 14.1139 35.6413 14.4019L35.6651 16.2857C35.6757 17.1257 35.7475 17.7408 35.8804 18.1312C35.7611 18.1807 35.5854 18.2069 35.3534 18.2098C35.1374 18.2125 34.9889 18.1744 34.9079 18.0954C34.8349 18.0164 34.7972 17.8808 34.7948 17.6888C34.7936 17.5928 34.7945 17.3488 34.7975 16.9567C34.8006 16.5647 34.8007 16.2566 34.7979 16.0327ZM42.6915 18.0932C42.5317 18.1112 42.4078 18.1207 42.3198 18.1219C42.0478 18.1253 41.8548 18.0477 41.7408 17.8892C41.4962 17.5242 41.0349 16.794 40.357 15.6984C39.6791 14.6029 39.1243 13.7499 38.6926 13.1393C38.7162 13.739 38.7361 14.6828 38.7523 15.9707C38.7657 17.0266 38.8387 17.7378 38.9713 18.1041C38.8278 18.1459 38.6881 18.1677 38.5521 18.1694C38.3361 18.1722 38.1916 18.134 38.1186 18.0549C38.0456 17.9758 38.0079 17.8403 38.0055 17.6483C38.0042 17.5523 38.0012 17.3083 37.9962 16.9163C37.9993 16.5243 37.9994 16.2163 37.9966 15.9923L37.9729 14.1204C37.9598 13.0805 37.8908 12.3693 37.766 11.9869C37.9093 11.937 38.081 11.9109 38.281 11.9084C38.529 11.9052 38.7381 11.9946 38.9084 12.1765C39.2245 12.4925 39.6884 13.1187 40.3003 14.055C40.9121 14.9914 41.4514 15.8766 41.9179 16.7108C41.8707 16.1354 41.8398 15.2757 41.8254 14.1318C41.8145 13.2679 41.7811 12.5242 41.7252 11.9009C41.853 11.8833 41.9689 11.8738 42.0729 11.8725C42.4408 11.8678 42.6263 11.9855 42.6294 12.2255C42.6298 12.2575 42.6233 12.3816 42.6101 12.5978C42.6048 12.8138 42.5962 13.082 42.5842 13.4021C42.5803 13.7222 42.5801 14.0262 42.5837 14.3142L42.604 15.9221C42.6159 16.858 42.645 17.5817 42.6915 18.0932ZM49.4504 17.2158C49.4532 17.4397 49.2638 17.6461 48.8822 17.835C48.5084 18.0157 48.0416 18.1096 47.4816 18.1167C46.5457 18.1285 45.7901 17.846 45.2147 17.2692C44.6394 16.6925 44.3457 15.9281 44.3337 14.9762C44.3211 13.9763 44.5912 13.1928 45.1441 12.6258C45.7049 12.0506 46.4733 11.7569 47.4492 11.7446C47.9691 11.738 48.4064 11.8325 48.7609 12.0281C49.1153 12.2156 49.2943 12.4534 49.2979 12.7413C49.3016 13.0373 49.084 13.2241 48.6449 13.3016C48.5211 12.9992 48.3302 12.7735 48.0723 12.6248C47.8144 12.476 47.5415 12.4035 47.2535 12.4071C46.6696 12.4145 46.1924 12.6445 45.8221 13.0972C45.4518 13.55 45.2708 14.1083 45.2792 14.7722C45.289 15.5482 45.4812 16.1938 45.8557 16.7091C46.2383 17.2243 46.7615 17.4777 47.4255 17.4693C47.9054 17.4633 48.3038 17.3342 48.6207 17.0822C48.5955 16.3545 48.5633 15.7108 48.5243 15.1513C48.6521 15.1337 48.7879 15.124 48.9319 15.1221C49.3079 15.1174 49.4974 15.231 49.5003 15.463C49.5004 15.471 49.4911 15.6831 49.4723 16.0994C49.4535 16.5077 49.4462 16.8798 49.4504 17.2158Z" fill="white"/>
</svg>
