<svg width="32" height="57" viewBox="0 0 32 57" fill="none" xmlns="http://www.w3.org/2000/svg">
<g filter="url(#filter0_d_318_1026)">
<ellipse cx="16" cy="39.2683" rx="16" ry="13.2683" fill="#00ACB7"/>
<path d="M31.5 39.2683C31.5 46.2365 24.6521 52.0366 16 52.0366C7.34789 52.0366 0.5 46.2365 0.5 39.2683C0.5 32.3001 7.34789 26.5 16 26.5C24.6521 26.5 31.5 32.3001 31.5 39.2683Z" stroke="#56876D"/>
</g>
<g clip-path="url(#clip0_318_1026)">
<path d="M7.07517 10.1369C7.66896 10.1369 8.15033 9.66214 8.15033 9.0765C8.15033 8.49087 7.66896 8.01611 7.07517 8.01611C6.48137 8.01611 6 8.49087 6 9.0765C6 9.66214 6.48137 10.1369 7.07517 10.1369Z" fill="#CFAA7D"/>
<path d="M12.1353 21.2563C14.3913 21.3165 14.0711 19.1017 14.0711 19.1017L18.3435 18.946C18.1946 21.2636 20.5772 21.4105 20.5772 21.4105" fill="#FDD08E"/>
<path d="M25.7804 9.82709C26.454 9.82709 27 9.28856 27 8.62424C27 7.95992 26.454 7.42139 25.7804 7.42139C25.1068 7.42139 24.5608 7.95992 24.5608 8.62424C24.5608 9.28856 25.1068 9.82709 25.7804 9.82709Z" fill="#CFAA7D"/>
<path d="M25.4543 9.67423C25.4543 14.6222 22.007 18.7037 17.5618 19.2794C17.2034 19.3254 16.8422 19.3485 16.4807 19.3485C11.5233 19.3485 7.50562 15.0173 7.50562 9.67423C7.50562 4.33115 11.5219 0 16.4792 0C21.4366 0 25.4543 4.33115 25.4543 9.67423Z" fill="#FDD08E"/>
<path d="M16.7502 34.7624L18.0905 39.609H20.3912C20.3912 39.609 22.2437 36.2017 22.1157 34.4378C21.9876 32.6739 16.7502 34.7624 16.7502 34.7624Z" fill="#FDD08E"/>
<path d="M17.9832 39.2212L18.5312 41.4712C18.5798 41.6303 18.681 41.7687 18.8186 41.8645C18.9562 41.9603 19.1224 42.008 19.2906 41.9999C19.464 42.0098 19.6354 41.9595 19.7752 41.8579C19.915 41.7562 20.0143 41.6096 20.0561 41.4433L20.5936 39.2212H17.9832Z" fill="#495A43"/>
<path d="M10.6165 32.9309L11.2672 35.9491C11.3661 36.3862 11.5082 36.8127 11.6916 37.2224L12.6104 39.2786H14.9022C14.9022 39.2786 16.2127 36.6761 16.7503 34.7638" fill="#FDD08E"/>
<path d="M12.4941 38.9509L13.0407 41.201C13.0896 41.3601 13.1911 41.4986 13.3289 41.5944C13.4668 41.6902 13.6332 41.7378 13.8016 41.7297C13.975 41.7395 14.1464 41.6892 14.2862 41.5876C14.4259 41.4859 14.5253 41.3393 14.567 41.173L15.1061 38.9509H12.4941Z" fill="#495A43"/>
<path d="M21.8877 34.9665L16.911 35.0576C16.8046 35.0591 16.6984 35.0503 16.5938 35.0311L11.6707 34.0912C11.4291 34.0557 11.2037 33.9499 11.0233 33.7875C10.8429 33.625 10.7158 33.4132 10.658 33.1791L9.96111 29.6044C9.84049 28.9816 9.45778 27.4821 9.55904 26.8564L8.97827 22.9923C9.61861 22.3446 11.483 21.2563 12.1427 21.2563H16.0696L20.5817 21.3606C21.228 21.3606 23.6598 22.5003 23.7655 23.0423L23.5183 27.2882C23.4036 28.405 23.2261 29.5145 22.9867 30.6119L22.1141 34.78C22.1129 34.8074 22.1059 34.8342 22.0936 34.8587C22.0813 34.8833 22.064 34.905 22.0427 34.9226C22.0213 34.9401 21.9966 34.9531 21.9699 34.9607C21.9432 34.9682 21.9152 34.9702 21.8877 34.9665Z" fill="#FDD08E"/>
<path d="M21.8653 21.8027C21.8653 21.8027 27.2262 23.01 25.8145 28.8289C24.5711 33.9517 24.0543 28.8289 24.0543 28.8289C24.0543 28.8289 23.3678 25.6874 21.5526 25.3437C19.7373 25.0001 21.8653 21.8027 21.8653 21.8027Z" fill="#FDD08E"/>
<path d="M11.4891 21.4224C11.4891 21.4224 6.0001 23.4447 6.79531 28.6395C7.59051 33.8342 8.80864 28.6395 8.80864 28.6395C8.80864 28.6395 9.59342 25.498 11.6693 25.1558C13.7452 24.8136 11.4891 21.4224 11.4891 21.4224Z" fill="#FDD08E"/>
<path d="M23.0805 30.1697L9.99829 29.7922L10.9736 34.8158C10.993 34.9083 11.273 35.9974 11.3013 36.0885L11.5679 36.9477L15.9087 37.0813L16.3763 35.9387C16.4086 35.876 16.4582 35.8236 16.5194 35.7876C16.5806 35.7516 16.651 35.7334 16.7222 35.7353C16.7935 35.7371 16.8628 35.7589 16.922 35.798C16.9812 35.8371 17.028 35.892 17.0569 35.9563L17.3979 37.1063H21.5347L21.7596 36.5541C21.8545 36.2647 21.9335 35.9706 21.9964 35.6729C22.12 35.0854 22.1453 35.3424 22.3329 34.0573L23.0805 30.1697Z" fill="#432918"/>
<path d="M14.2989 8.62424C14.2989 7.87374 13.7926 7.14087 13.1672 7.14087C12.5417 7.14087 12.0339 7.87521 12.0339 8.62424L12.4032 8.42597C12.6374 8.30025 12.8998 8.23439 13.1664 8.23439C13.4331 8.23439 13.6954 8.30025 13.9296 8.42597L14.2989 8.62424Z" fill="#1D1D1B"/>
<path opacity="0.1" d="M21.2593 37.7909H17.5871L17.3979 37.1035H21.5348L21.2593 37.7909Z" fill="#1D1D1B"/>
<path opacity="0.1" d="M15.6079 37.7746L11.8731 37.6469L11.5679 36.9448L15.9087 37.0799L15.6079 37.7746Z" fill="#1D1D1B"/>
<path d="M24.6963 9.32333C24.458 9.32333 24.6456 9.08247 24.4386 8.09404C24.2316 7.10562 24.3493 6.99987 24.5876 7.00428C24.8258 7.00868 25.0968 7.12324 25.3038 8.1102C25.5108 9.09715 24.9345 9.32774 24.6963 9.32333Z" fill="#B2B2B2"/>
<path d="M8.40933 7.08345C8.62079 7.14807 8.39146 7.31256 8.32147 8.24665C8.25148 9.18073 8.11745 9.24682 7.9045 9.1822C7.69156 9.11758 7.48159 8.94868 7.55307 8.00725C7.62454 7.06582 8.19638 7.01883 8.40933 7.08345Z" fill="#B2B2B2"/>
<path d="M9.34456 21.8026C9.00504 21.9543 8.69742 22.1675 8.43767 22.4312C7.29996 23.6061 6.19352 25.8327 6.13693 26.1616C5.91207 27.4835 5.9761 28.6731 6.39902 29.2092C6.74003 29.641 7.41909 29.4618 7.80776 29.4236C8.58509 29.3487 9.20011 29.0608 9.20011 28.2912C9.20011 27.7948 9.17033 27.6274 9.3118 27.3821C9.83449 26.4686 8.4749 29.7482 9.9983 29.7922L23.015 30.1682C23.0986 30.173 23.1819 30.1544 23.2554 30.1147C23.3289 30.0749 23.3895 30.0156 23.4304 29.9435C23.7283 29.3766 23.4632 28.2237 23.5183 27.2881C23.5377 26.9547 23.5942 29.4412 24.1631 29.7026C24.2346 29.7364 24.93 29.8334 25.0253 29.8495C25.9962 30.0302 26.4534 29.6747 26.4906 28.701C26.5279 27.7038 26.1809 26.216 26.0513 25.5933C25.691 23.8543 25.6165 23.3197 24.3329 22.509C23.2577 21.829 14.3228 21.4104 11.4368 21.2915C10.8506 21.2674 10.2671 21.3817 9.73472 21.6249L9.34456 21.8026Z" fill="#495A43"/>
<path d="M7.07522 10.1339C7.47432 9.2028 8.05359 9.07209 8.75052 9.61403C10.3543 10.8683 11.6737 12.3208 14.2991 11.6834C17.9579 10.7934 19.5543 12.732 21.9474 11.8082C23.8833 11.0577 24.5444 9.84755 24.5608 9.82846C26.3478 7.55934 26.4506 11.9199 25.2831 13.6235C24.3106 15.0438 24.8229 17.589 24.5608 20.2326C23.8877 27.0091 17.2953 26.9577 17.2953 26.9577C17.2953 26.9577 11.6737 25.727 10.7519 21.9436C9.94184 18.6171 5.42524 13.9848 7.07522 10.1339Z" fill="#B2B2B2"/>
<path d="M21.7149 8.87522C21.7149 8.12326 21.2071 7.39038 20.5817 7.39038C19.9563 7.39038 19.45 8.12472 19.45 8.87522L19.8178 8.67695C20.0522 8.55123 20.3148 8.48538 20.5817 8.48538C20.8486 8.48538 21.1112 8.55123 21.3456 8.67695L21.7149 8.87522Z" fill="#1D1D1B"/>
</g>
<defs>
<filter id="filter0_d_318_1026" x="0" y="26" width="32" height="30.5366" filterUnits="userSpaceOnUse" color-interpolation-filters="sRGB">
<feFlood flood-opacity="0" result="BackgroundImageFix"/>
<feColorMatrix in="SourceAlpha" type="matrix" values="0 0 0 0 0 0 0 0 0 0 0 0 0 0 0 0 0 0 127 0" result="hardAlpha"/>
<feOffset dy="4"/>
<feComposite in2="hardAlpha" operator="out"/>
<feColorMatrix type="matrix" values="0 0 0 0 0.337255 0 0 0 0 0.529412 0 0 0 0 0.427451 0 0 0 1 0"/>
<feBlend mode="normal" in2="BackgroundImageFix" result="effect1_dropShadow_318_1026"/>
<feBlend mode="normal" in="SourceGraphic" in2="effect1_dropShadow_318_1026" result="shape"/>
</filter>
<clipPath id="clip0_318_1026">
<rect width="21" height="42" fill="white" transform="translate(6)"/>
</clipPath>
</defs>
</svg>
