<svg width="39" height="76" viewBox="0 0 39 76" fill="none" xmlns="http://www.w3.org/2000/svg">
<g filter="url(#filter0_d_318_1024)">
<ellipse cx="19" cy="58.2683" rx="16" ry="13.2683" fill="#00ACB7"/>
<path d="M34.5 58.2683C34.5 65.2365 27.6521 71.0366 19 71.0366C10.3479 71.0366 3.5 65.2365 3.5 58.2683C3.5 51.3001 10.3479 45.5 19 45.5C27.6521 45.5 34.5 51.3001 34.5 58.2683Z" stroke="#56876D"/>
</g>
<g clip-path="url(#clip0_318_1024)">
<path d="M11.5662 29.8847C15.6374 29.973 15.0743 26.6507 15.0743 26.6507L22.7737 26.4072C22.5079 29.8847 26.8135 30.1026 26.8135 30.1026" fill="#FDD08E"/>
<path d="M29.513 24.7611C31.9935 24.7611 34.0044 22.7572 34.0044 20.2853C34.0044 17.8134 31.9935 15.8096 29.513 15.8096C27.0326 15.8096 25.0217 17.8134 25.0217 20.2853C25.0217 22.7572 27.0326 24.7611 29.513 24.7611Z" fill="#CFAA7D"/>
<path d="M8.06526 23.7358C10.2616 23.7358 12.0421 21.9614 12.0421 19.7727C12.0421 17.5839 10.2616 15.8096 8.06526 15.8096C5.86889 15.8096 4.08838 17.5839 4.08838 19.7727C4.08838 21.9614 5.86889 23.7358 8.06526 23.7358Z" fill="#CFAA7D"/>
<path d="M30.0801 19.1889C30.0801 23.5208 25.7932 27.0937 20.2687 27.5978C19.8286 27.6377 19.3799 27.659 18.9254 27.659C12.7651 27.659 7.77075 23.8668 7.77075 19.1889C7.77075 14.5109 12.7651 10.7173 18.9254 10.7173C25.0858 10.7173 30.0801 14.5095 30.0801 19.1889Z" fill="#FDD08E"/>
<path d="M38.9872 14.6676C39.1501 15.589 37.7897 14.877 32.8939 15.7371C27.9982 16.5972 27.3566 16.15 27.1937 15.2287C27.0308 14.3073 27.4066 13.2607 32.3038 12.4006C37.2009 11.5404 38.8243 13.7463 38.9872 14.6676Z" fill="#B2B2B2"/>
<path d="M37.268 9.60521C37.6967 10.4383 36.1862 10.1563 31.7592 12.412C27.3322 14.6677 26.5877 14.4284 26.1604 13.5968C25.7332 12.7651 25.7846 11.6516 30.2116 9.39873C34.6386 7.1459 36.8407 8.77215 37.268 9.60521Z" fill="#DADADA"/>
<path d="M34.2042 6.01374C34.8301 6.71152 33.2982 6.82259 29.5943 10.1278C25.8904 13.433 25.1101 13.3917 24.4842 12.691C23.8583 11.9904 23.6268 10.9067 27.3265 7.60154C31.0262 4.29635 33.5812 5.31739 34.2042 6.01374Z" fill="#DADADA"/>
<path d="M30.4731 3.07591C31.2591 3.58714 29.8101 4.08982 27.0935 8.24088C24.377 12.3919 23.6125 12.5514 22.8266 12.0416C22.0406 11.5318 21.5305 10.5379 24.2456 6.38964C26.9607 2.24142 29.6872 2.56325 30.4731 3.07591Z" fill="#EDEDED"/>
<path d="M26.6707 1.45827C27.551 1.78438 26.242 2.5975 24.5144 7.23844C22.7867 11.8794 22.0722 12.2069 21.192 11.8822C20.3117 11.5575 19.5958 10.7031 21.3277 6.05791C23.0597 1.4127 25.7905 1.13929 26.6707 1.45827Z" fill="#DADADA"/>
<path d="M0.142999 9.3786C-0.507192 10.0821 1.03755 10.1974 4.69862 13.5496C8.35969 16.9018 9.14564 16.8605 9.80154 16.1556C10.4574 15.4507 10.7175 14.3499 7.05359 10.9977C3.38966 7.64555 0.794618 8.6737 0.142999 9.3786Z" fill="#EDEDED"/>
<path d="M3.15086 5.75453C2.36062 6.29852 3.84106 6.75136 6.66903 10.8255C9.497 14.8997 10.2772 15.035 11.066 14.491C11.8548 13.947 12.3521 12.9246 9.52987 8.85466C6.70761 4.78477 3.94109 5.21055 3.15086 5.75453Z" fill="#B2B2B2"/>
<path d="M6.35052 3.1884C5.49313 3.61561 6.89354 4.27209 9.11276 8.70654C11.332 13.141 12.0836 13.3859 12.9425 12.9587C13.8013 12.5315 14.4429 11.5973 12.228 7.16288C10.013 2.72844 7.21078 2.76261 6.35052 3.1884Z" fill="#B2B2B2"/>
<path d="M10.2616 1.52221C9.3428 1.80702 10.6175 2.67995 12.075 7.4163C13.5326 12.1526 14.2357 12.5158 15.1474 12.2352C16.0591 11.9547 16.8521 11.1373 15.3946 6.39669C13.937 1.65607 11.1791 1.24168 10.2616 1.52221Z" fill="#DADADA"/>
<path d="M14.0985 0.20072C13.1482 0.343123 14.2742 1.39976 14.993 6.30129C15.7118 11.2028 16.352 11.6685 17.3023 11.5346C18.2525 11.4008 19.1599 10.7073 18.434 5.8043C17.7081 0.901345 15.0487 0.0625883 14.0985 0.20072Z" fill="#DADADA"/>
<path d="M19.1272 0.0100405C18.1783 -0.132363 18.9442 1.20765 18.1969 6.10634C17.4495 11.005 17.9254 11.6344 18.8756 11.7783C19.8259 11.9221 20.8891 11.5248 21.635 6.62754C22.381 1.73028 20.076 0.153868 19.1272 0.0100405Z" fill="#B2B2B2"/>
<path d="M1.24047 14.8099C0.963243 15.4165 2.00069 15.163 5.14447 16.5913C8.28825 18.0196 8.78553 17.8231 9.06276 17.2207C9.33998 16.6184 9.27711 15.8366 6.14619 14.4083C3.01527 12.98 1.51769 14.2103 1.24047 14.8099Z" fill="#DADADA"/>
<path d="M36.2607 17.2493C36.2607 17.9058 35.4033 17.2493 31.9209 17.2493C28.4384 17.2493 28.0469 16.8634 28.0469 16.2069C28.0469 15.5504 28.4341 14.874 31.9209 14.874C35.4076 14.874 36.2607 16.5943 36.2607 17.2493Z" fill="#DADADA"/>
<path d="M19.8972 50.1432L22.3194 57.4214H26.4706C26.4706 57.4214 29.8144 52.312 29.5829 49.6661C29.3514 47.0203 19.8972 50.1432 19.8972 50.1432Z" fill="#FDD08E"/>
<path d="M22.1223 56.8318L23.1112 60.2068C23.2426 60.6681 23.8157 60.9999 24.4816 60.9999C25.1718 60.9999 25.7577 60.6454 25.8648 60.1655L26.838 56.8318H22.1223Z" fill="#495A43"/>
<path d="M8.80981 47.3948L9.98444 51.9246C10.1665 52.5864 10.424 53.2252 10.7518 53.8286L12.4094 56.9116H16.5607C16.5607 56.9116 18.9256 53.0069 19.8973 50.1389" fill="#FDD08E"/>
<path d="M12.2122 56.4275L13.201 59.8096C13.3325 60.271 13.9055 60.6028 14.5729 60.6028C15.2616 60.6028 15.8475 60.2482 15.9547 59.7683L16.9293 56.4346L12.2122 56.4275Z" fill="#495A43"/>
<path d="M29.1714 50.4493L20.1874 50.5917C19.996 50.5948 19.8048 50.5815 19.6158 50.5518L10.7289 49.142C9.78146 48.9925 9.05697 48.4513 8.89978 47.7749L7.6437 42.4106C7.42506 41.4764 6.732 39.2279 6.91634 38.2909L5.85889 32.4879C7.01351 31.5167 10.3802 29.8848 11.5748 29.8848H18.6755L26.8207 30.04C27.9868 30.04 32.3781 31.7488 32.5681 32.5634L32.1223 38.9302C31.9139 40.6111 31.5931 42.2762 31.162 43.9144L29.5901 50.1659C29.5873 50.3296 29.3986 50.4592 29.1714 50.4493Z" fill="#FDD08E"/>
<path d="M29.1301 30.7036C29.1301 30.7036 38.8101 32.5136 36.2607 41.2415C34.0158 48.9313 33.0827 41.2415 33.0827 41.2415C33.0827 41.2415 31.8437 36.5293 28.5671 36.0153C25.2904 35.5012 29.1301 30.7036 29.1301 30.7036Z" fill="#FDD08E"/>
<path d="M10.3987 30.1326C10.3987 30.1326 0.482919 33.1658 1.92477 40.9638C3.36662 48.7618 5.56012 40.9638 5.56012 40.9638C5.56012 40.9638 6.97768 36.2502 10.7245 35.7361C14.4713 35.2221 10.3987 30.1326 10.3987 30.1326Z" fill="#FDD08E"/>
<path d="M31.3248 43.2552L7.77075 42.6855L9.98426 52.3092L18.9097 52.5256L19.2227 51.8991C19.4299 51.4719 20.2787 51.4989 20.4502 51.9261L20.6988 52.5498H29.1399L31.3248 43.2552Z" fill="#182517"/>
<path d="M32.3581 42.3864C32.2637 42.8806 31.655 43.2408 30.9491 43.2309L7.96091 42.7766C7.22784 42.7609 6.62481 42.3893 6.54907 41.9037L7.34216 31.5082C7.79801 29.4647 11.3719 30.5926 14.3199 31.8115C16.7778 32.8283 19.8201 32.834 22.3008 31.8457L26.8136 30.0472C27.6624 30.0358 30.0803 29.5032 30.9319 33.8835L32.3581 42.3864Z" fill="#495A43"/>
<path d="M26.9365 20.6173C29.2686 22.9997 22.7209 23.3542 20.5417 23.3542C18.3625 23.3542 16.1333 23.1506 16.1333 22.1538C16.1333 21.157 19.4971 15.6103 20.1088 17.688C21.3162 21.7878 25.8133 19.4709 26.9365 20.6173Z" fill="#CFAA7D"/>
<path d="M25.8576 21.1725C26.2459 21.1725 26.5607 20.7332 26.5607 20.1914C26.5607 19.6495 26.2459 19.2102 25.8576 19.2102C25.4693 19.2102 25.1545 19.6495 25.1545 20.1914C25.1545 20.7332 25.4693 21.1725 25.8576 21.1725Z" fill="#CFAA7D"/>
<path d="M16.2905 16.6825C16.2905 17.5497 15.9375 18.2489 15.5017 18.2489C15.0659 18.2489 14.7129 17.5454 14.7129 16.6825C14.7129 15.8195 15.0659 14.9736 15.5017 14.9736C15.9375 14.9736 16.2905 15.8138 16.2905 16.6825Z" fill="#1D1D1B"/>
<path opacity="0.1" d="M23.2297 28.3738L19.6329 28.737C19.2599 28.774 18.8841 28.774 18.5111 28.737L14.8101 28.3639L14.9301 28.0791C14.9961 27.902 15.044 27.7188 15.073 27.5322L15.103 27.1492L18.2153 27.4411C18.6906 27.4868 19.1691 27.4868 19.6443 27.4411L22.7581 27.1492L22.9439 27.8213" fill="#1D1D1B"/>
<path opacity="0.1" d="M28.567 53.585H21.0419L20.699 52.554H28.9957L28.567 53.585Z" fill="#1D1D1B"/>
<path opacity="0.1" d="M18.3954 53.585L10.5217 53.3614L10.1016 52.3162L18.9099 52.5298L18.3954 53.585Z" fill="#1D1D1B"/>
<path opacity="0.2" d="M23.2296 19.6631C23.8176 19.6631 24.2942 18.7131 24.2942 17.5412C24.2942 16.3694 23.8176 15.4194 23.2296 15.4194C22.6417 15.4194 22.165 16.3694 22.165 17.5412C22.165 18.7131 22.6417 19.6631 23.2296 19.6631Z" fill="#1D1D1B"/>
<path opacity="0.2" d="M15.4945 19.6631C16.0825 19.6631 16.5591 18.7131 16.5591 17.5412C16.5591 16.3694 16.0825 15.4194 15.4945 15.4194C14.9066 15.4194 14.4299 16.3694 14.4299 17.5412C14.4299 18.7131 14.9066 19.6631 15.4945 19.6631Z" fill="#1D1D1B"/>
<path d="M24.0186 16.6825C24.0186 17.5497 23.6656 18.2489 23.2298 18.2489C22.7939 18.2489 22.4424 17.5454 22.4424 16.6825C22.4424 15.8195 22.7953 14.9736 23.2298 14.9736C23.6642 14.9736 24.0186 15.8138 24.0186 16.6825Z" fill="#1D1D1B"/>
</g>
<defs>
<filter id="filter0_d_318_1024" x="3" y="45" width="32" height="30.5366" filterUnits="userSpaceOnUse" color-interpolation-filters="sRGB">
<feFlood flood-opacity="0" result="BackgroundImageFix"/>
<feColorMatrix in="SourceAlpha" type="matrix" values="0 0 0 0 0 0 0 0 0 0 0 0 0 0 0 0 0 0 127 0" result="hardAlpha"/>
<feOffset dy="4"/>
<feComposite in2="hardAlpha" operator="out"/>
<feColorMatrix type="matrix" values="0 0 0 0 0.337255 0 0 0 0 0.529412 0 0 0 0 0.427451 0 0 0 1 0"/>
<feBlend mode="normal" in2="BackgroundImageFix" result="effect1_dropShadow_318_1024"/>
<feBlend mode="normal" in="SourceGraphic" in2="effect1_dropShadow_318_1024" result="shape"/>
</filter>
<clipPath id="clip0_318_1024">
<rect width="39" height="61" fill="white"/>
</clipPath>
</defs>
</svg>
