<svg width="44" height="35" viewBox="0 0 44 35" fill="none" xmlns="http://www.w3.org/2000/svg">
<g filter="url(#filter0_d_318_1021)">
<ellipse cx="22" cy="17.2683" rx="16" ry="13.2683" fill="#00ACB7"/>
<path d="M37.5 17.2683C37.5 24.2365 30.6521 30.0366 22 30.0366C13.3479 30.0366 6.5 24.2365 6.5 17.2683C6.5 10.3001 13.3479 4.5 22 4.5C30.6521 4.5 37.5 10.3001 37.5 17.2683Z" stroke="#56876D"/>
</g>
<g clip-path="url(#clip0_318_1021)">
<path d="M33.8191 18.4073C35.0018 18.4073 35.9606 17.1656 35.9606 15.6338C35.9606 14.1021 35.0018 12.8604 33.8191 12.8604C32.6363 12.8604 31.6775 14.1021 31.6775 15.6338C31.6775 17.1656 32.6363 18.4073 33.8191 18.4073Z" fill="#9D9D9C"/>
<path d="M12.173 15.7171C12.173 17.2484 11.2149 18.4905 10.0315 18.4905C8.84796 18.4905 7.88989 17.2484 7.88989 15.7171C7.88989 14.1858 8.84796 12.9436 10.0315 12.9436C11.2149 12.9436 12.173 14.1858 12.173 15.7171Z" fill="#9D9D9C"/>
<path d="M28.9135 20.6906L21.6802 20.5216C21.4964 20.5216 21.3151 20.5216 21.1338 20.5216C19.519 20.622 10.9749 21.0875 10.5191 19.7865C10.0021 18.3165 9.89673 16.6872 9.89673 15.0212C9.89918 6.75224 15.3168 0.0317383 22.0012 0.0317383C28.6856 0.0317383 34.1008 6.75224 34.1008 15.0432C34.0492 16.595 33.849 18.1382 33.5029 19.6518C33.4371 19.9472 33.2716 20.211 33.0342 20.3989C32.7968 20.5867 32.502 20.6871 32.1993 20.6833H30.369C30.2121 20.7274 29.0752 20.6931 28.9135 20.6906Z" fill="#706F6F"/>
<path d="M19.3035 16.2023C19.3035 17.5278 18.5365 18.6009 17.5883 18.6009C16.64 18.6009 15.873 17.7728 15.873 16.4473C15.873 15.1218 16.64 13.8037 17.5883 13.8037C18.5365 13.8037 19.3035 14.8768 19.3035 16.2023Z" fill="#F6F6F6"/>
<path d="M26.6691 18.8458C27.615 18.8458 28.3818 17.7719 28.3818 16.4472C28.3818 15.1225 27.615 14.0486 26.6691 14.0486C25.7231 14.0486 24.9563 15.1225 24.9563 16.4472C24.9563 17.7719 25.7231 18.8458 26.6691 18.8458Z" fill="#F6F6F6"/>
<path d="M13.6065 8.16599C10.845 11.4638 11.1562 16.4717 11.3694 18.15C11.4258 18.6081 10.6025 24.868 12.1731 25.8603C14.9003 27.5753 12.6901 12.9485 15.7358 9.31507C19.0952 5.30433 26.6005 6.69351 23.6184 4.19445C22.7437 3.46189 16.9659 4.16505 13.6065 8.16599Z" fill="#3C3C3B"/>
<path d="M29.5334 8.06319C25.5492 4.42241 19.8474 3.90544 17.9459 3.83684C17.7103 3.81017 17.4727 3.86587 17.2735 3.9945C17.0743 4.12313 16.9257 4.31674 16.8531 4.54246C16.3042 6.576 24.0521 6.14725 28.3867 10.2217C32.3708 13.9703 30.4939 24.2752 33.1182 21.4037C33.8876 20.5609 34.3801 12.4953 29.5334 8.06319Z" fill="#3C3C3B"/>
<path d="M13.3345 4.72622C9.76196 7.12238 9.62964 11.557 9.35766 13.2304C9.2817 13.6861 6.94166 21.6659 9.60269 21.6659C11.6903 21.6659 11.117 9.07017 15.0546 6.42901C19.399 3.51345 26.0932 6.36041 23.9247 3.13124C23.2901 2.17572 17.6789 1.81066 13.3345 4.72622Z" fill="#3C3C3B"/>
<path d="M31.2878 5.77475C26.7989 2.77833 21.0848 3.13114 19.1932 3.34919C18.9548 3.35705 18.7265 3.44768 18.5477 3.6055C18.3688 3.76333 18.2505 3.9785 18.2131 4.21406C17.968 6.30641 25.5639 4.70408 30.4645 8.0827C34.9731 11.1869 34.6766 21.656 36.8353 18.4195C37.4895 17.4713 36.7545 9.41798 31.2878 5.77475Z" fill="#3C3C3B"/>
<path d="M33.0791 23.1605C33.0385 23.38 32.9222 23.5785 32.7506 23.7213C32.5789 23.8641 32.3627 23.9423 32.1394 23.9423C31.9161 23.9423 31.6998 23.8641 31.5282 23.7213C31.3565 23.5785 31.2403 23.38 31.1997 23.1605C30.0431 17.1505 27.9089 6.16443 22.5428 5.44656C16.4881 4.6356 15.2532 10.6407 14.572 10.6407C13.6825 10.6407 9.16172 0.860057 21.1363 0.0417379C35.5294 -0.940735 34.4194 15.5727 33.0791 23.1605Z" fill="#3C3C3B"/>
<path d="M19.8474 5.09131C17.0859 8.38908 19.1123 16.0651 19.3157 17.7409C19.3721 18.2016 18.5316 24.8657 20.0998 25.858C22.8294 27.573 20.6168 12.9486 23.6625 9.31275C27.0219 5.30201 27.5022 3.23906 23.7165 2.34969C21.5161 1.83763 23.1945 1.08056 19.8474 5.09131Z" fill="#3C3C3B"/>
</g>
<defs>
<filter id="filter0_d_318_1021" x="6" y="4" width="32" height="30.5366" filterUnits="userSpaceOnUse" color-interpolation-filters="sRGB">
<feFlood flood-opacity="0" result="BackgroundImageFix"/>
<feColorMatrix in="SourceAlpha" type="matrix" values="0 0 0 0 0 0 0 0 0 0 0 0 0 0 0 0 0 0 127 0" result="hardAlpha"/>
<feOffset dy="4"/>
<feComposite in2="hardAlpha" operator="out"/>
<feColorMatrix type="matrix" values="0 0 0 0 0.337255 0 0 0 0 0.529412 0 0 0 0 0.427451 0 0 0 1 0"/>
<feBlend mode="normal" in2="BackgroundImageFix" result="effect1_dropShadow_318_1021"/>
<feBlend mode="normal" in="SourceGraphic" in2="effect1_dropShadow_318_1021" result="shape"/>
</filter>
<clipPath id="clip0_318_1021">
<rect width="44" height="26" fill="white"/>
</clipPath>
</defs>
</svg>
