<svg width="241" height="241" viewBox="0 0 241 241" fill="none" xmlns="http://www.w3.org/2000/svg">
<circle r="120.5" transform="matrix(1 0 0 -1 120.5 120.5)" fill="#006838" fill-opacity="0.1"/>
<path d="M76 232.5C98.9678 233.721 95.3621 203.366 95.3621 203.366L139.974 201.114C138.434 233.279 162.5 233.5 162.5 233.5L141.5 239.5L118.5 241L95.5 238.5L76 232.5Z" fill="#FDD08E"/>
<path d="M179.03 191.507C184.19 191.517 189.238 189.994 193.534 187.129C197.83 184.265 201.181 180.188 203.162 175.416C205.144 170.643 205.668 165.388 204.667 160.317C203.666 155.246 201.186 150.586 197.54 146.928C193.894 143.269 189.247 140.776 184.186 139.765C179.125 138.753 173.879 139.268 169.11 141.245C164.342 143.221 160.266 146.571 157.399 150.869C154.531 155.166 153.001 160.22 153.002 165.389C152.999 168.816 153.67 172.21 154.976 175.377C156.283 178.544 158.199 181.422 160.616 183.847C163.033 186.273 165.903 188.197 169.062 189.512C172.222 190.826 175.609 191.504 179.03 191.507Z" fill="#CFAA7D"/>
<path d="M54.7436 185.524C59.3133 185.535 63.7834 184.187 67.588 181.651C71.3927 179.116 74.3608 175.507 76.1168 171.281C77.8728 167.055 78.3376 162.402 77.4525 157.911C76.5674 153.421 74.3721 149.294 71.1445 146.054C67.917 142.813 63.8022 140.605 59.321 139.708C54.8399 138.811 50.1938 139.266 45.9709 141.015C41.7481 142.765 38.1382 145.73 35.5983 149.535C33.0584 153.34 31.7027 157.815 31.7026 162.392C31.6964 168.52 34.1203 174.399 38.4411 178.737C42.762 183.075 48.626 185.517 54.7436 185.524Z" fill="#CFAA7D"/>
<path d="M182.315 158.99C182.315 184.269 157.47 205.12 125.459 208.064C122.912 208.293 120.312 208.422 117.677 208.422C81.9593 208.422 53.0396 186.287 53.0396 158.99C53.0396 131.693 81.9827 109.546 117.677 109.546C153.371 109.546 182.315 131.676 182.315 158.99Z" fill="#FDD08E"/>
<path d="M233.924 132.632C234.872 138.01 226.985 133.852 198.616 138.872C170.247 143.893 166.534 141.283 165.586 135.905C164.637 130.526 166.821 124.421 195.196 119.4C223.571 114.379 232.981 127.224 233.924 132.632Z" fill="#006838"/>
<path d="M223.964 103.054C226.447 107.916 217.699 106.274 192.046 119.435C166.394 132.597 162.079 131.207 159.602 126.35C157.125 121.494 157.424 115.001 183.076 101.851C208.728 88.7016 221.487 98.1973 223.964 103.054Z" fill="#004523"/>
<path d="M206.21 82.0974C209.841 86.1678 200.941 86.7895 179.498 106.104C158.056 125.418 153.512 125.154 149.888 121.066C146.263 116.978 144.922 110.655 166.359 91.3644C187.795 72.0737 202.604 78.0328 206.21 82.0974Z" fill="#004523"/>
<path d="M184.592 64.9534C189.148 67.9329 180.734 70.8714 165.006 95.0946C149.279 119.318 144.834 120.25 140.285 117.277C135.735 114.303 132.772 108.479 148.482 84.2909C164.192 60.1029 180.037 61.9621 184.592 64.9534Z" fill="#769065"/>
<path d="M162.582 55.5104C167.682 57.4107 160.094 62.1615 150.087 89.2412C140.08 116.321 135.934 118.239 130.834 116.344C125.734 114.45 121.583 109.464 131.619 82.3554C141.655 55.2465 157.459 53.6511 162.582 55.5104Z" fill="#004523"/>
<path d="M8.83727 101.734C5.07227 105.84 14.0193 106.514 35.2392 126.075C56.4591 145.635 61.0028 145.43 64.8088 141.283C68.6148 137.136 70.1138 130.726 48.8822 111.183C27.6506 91.64 12.614 97.6225 8.83727 101.734Z" fill="#769065"/>
<path d="M26.2689 80.5841C21.69 83.7572 30.2506 86.4024 46.6456 110.18C63.0407 133.957 67.5493 134.743 72.1224 131.57C76.6954 128.397 79.5763 122.426 63.2222 98.6783C46.8681 74.9301 30.8361 77.4111 26.2689 80.5841Z" fill="#006838"/>
<path d="M44.8071 65.6103C39.8417 68.1147 47.9573 71.933 60.8157 97.8102C73.6741 123.687 78.0305 125.119 83.0076 122.626C87.9846 120.133 91.7321 114.684 78.8502 88.8013C65.9684 62.9181 49.7958 63.1234 44.8071 65.6103Z" fill="#006838"/>
<path d="M67.4732 55.8858C62.1507 57.5456 69.5343 62.6425 77.9778 90.2793C86.4212 117.916 90.5024 120.045 95.784 118.403C101.066 116.761 105.662 111.998 97.2186 84.332C88.7751 56.6659 72.7899 54.2494 67.4732 55.8858Z" fill="#004523"/>
<path d="M89.7058 48.173C84.1959 49.0059 90.7246 55.1702 94.8878 83.7748C99.051 112.379 102.763 115.101 108.267 114.315C113.771 113.529 119.035 109.488 114.825 80.8833C110.615 52.2787 95.2099 47.3636 89.7058 48.173Z" fill="#004523"/>
<path d="M118.842 47.0587C113.344 46.2258 117.782 54.05 113.455 82.637C109.128 111.224 111.88 114.896 117.39 115.74C122.9 116.585 129.054 114.262 133.375 85.681C137.696 57.0999 124.34 47.8974 118.842 47.0587Z" fill="#006838"/>
<path d="M15.1961 133.43C13.5917 136.949 19.6052 135.494 37.8212 143.829C56.0373 152.163 58.9006 151.019 60.5225 147.5C62.1445 143.981 61.7697 139.424 43.6239 131.078C25.4781 122.731 16.7829 129.934 15.1961 133.43Z" fill="#004523"/>
<path d="M218.126 147.67C218.126 151.5 213.161 147.67 192.977 147.67C172.794 147.67 170.534 145.418 170.534 141.588C170.534 137.758 172.776 133.805 192.977 133.805C213.178 133.805 218.126 143.846 218.126 147.67Z" fill="#004523"/>
<path d="M164.098 162.04C177.613 175.946 139.67 178.011 127.04 178.011C114.41 178.011 101.499 176.838 101.499 171.008C101.499 165.178 121.009 132.82 124.522 144.949C131.548 168.873 157.587 155.348 164.098 162.04Z" fill="#CFAA7D"/>
<path d="M157.845 165.283C160.093 165.283 161.944 162.715 161.944 159.553C161.944 156.392 160.117 153.829 157.845 153.829C155.573 153.829 153.746 156.392 153.746 159.553C153.746 162.715 155.596 165.283 157.845 165.283Z" fill="#CFAA7D"/>
<path opacity="0.1" d="M140.964 212.592L121.776 214.71C119.615 214.927 117.437 214.927 115.276 214.71L95.3503 212.592L95.35 210.5C95.7324 209.467 95.1837 208.772 95.3503 207.683L95.526 205.443L113.561 207.149C116.314 207.413 119.086 207.413 121.84 207.149L139.886 205.443V209.5" fill="#1D1D1B"/>
<path d="M135.647 148.697C135.647 148.697 144.483 142.315 153.214 149.518C153.214 149.518 151.457 141.447 144.431 141.43C137.059 141.43 135.647 148.697 135.647 148.697Z" fill="#231F20" stroke="#231F20" stroke-miterlimit="10"/>
<path d="M105.65 147.629C105.65 147.629 97.0016 140.427 87.1411 146.761C87.1411 146.761 89.7468 138.896 97.1538 139.553C104.836 140.257 105.65 147.629 105.65 147.629Z" fill="#231F20" stroke="#231F20" stroke-miterlimit="10"/>
<path d="M138.768 184.551C116.957 206.058 103.244 184.551 103.244 184.551H138.768Z" fill="white"/>
</svg>
