<svg width="241" height="241" viewBox="0 0 241 241" fill="none" xmlns="http://www.w3.org/2000/svg">
<path d="M76 232.5C98.9678 233.721 95.3621 203.366 95.3621 203.366L139.974 201.114C138.434 233.279 162.5 233.5 162.5 233.5L141.5 239.5L118.5 241L95.5 238.5L76 232.5Z" fill="#FDD08E"/>
<path d="M179.029 191.507C184.19 191.517 189.237 189.994 193.533 187.13C197.829 184.265 201.18 180.189 203.162 175.416C205.144 170.643 205.667 165.388 204.667 160.317C203.666 155.246 201.185 150.586 197.54 146.928C193.894 143.269 189.246 140.777 184.186 139.765C179.125 138.753 173.878 139.268 169.11 141.245C164.341 143.222 160.265 146.571 157.398 150.869C154.531 155.167 153.001 160.22 153.002 165.389C152.999 168.816 153.67 172.21 154.976 175.377C156.282 178.544 158.199 181.422 160.615 183.848C163.032 186.273 165.902 188.197 169.062 189.512C172.221 190.826 175.608 191.504 179.029 191.507Z" fill="#CFAA7D"/>
<path d="M54.744 185.524C59.3138 185.535 63.7838 184.187 67.5885 181.652C71.3931 179.116 74.3613 175.507 76.1173 171.281C77.8733 167.055 78.3381 162.402 77.453 157.912C76.5679 153.421 74.3726 149.294 71.145 146.054C67.9174 142.813 63.8027 140.605 59.3215 139.708C54.8403 138.811 50.1943 139.266 45.9714 141.016C41.7485 142.765 38.1387 145.73 35.5988 149.535C33.0589 153.34 31.7031 157.815 31.7031 162.392C31.6969 168.52 34.1208 174.399 38.4416 178.737C42.7624 183.075 48.6265 185.517 54.744 185.524V185.524Z" fill="#CFAA7D"/>
<path d="M182.314 158.99C182.314 184.269 157.47 205.12 125.458 208.064C122.911 208.293 120.311 208.422 117.677 208.422C81.9588 208.422 53.0391 186.287 53.0391 158.99C53.0391 131.693 81.9822 109.546 117.677 109.546C153.371 109.546 182.314 131.676 182.314 158.99Z" fill="#FDD08E"/>
<path d="M233.924 132.632C234.872 138.01 226.985 133.852 198.616 138.873C170.247 143.893 166.534 141.283 165.586 135.905C164.637 130.526 166.821 124.421 195.196 119.4C223.571 114.38 232.981 127.224 233.924 132.632Z" fill="#006838"/>
<path d="M223.964 103.054C226.446 107.916 217.698 106.274 192.046 119.435C166.393 132.597 162.078 131.207 159.601 126.35C157.124 121.494 157.423 115.001 183.075 101.851C208.728 88.7016 221.487 98.1974 223.964 103.054Z" fill="#004523"/>
<path d="M206.211 82.0974C209.841 86.1679 200.941 86.7896 179.499 106.104C158.056 125.418 153.513 125.154 149.888 121.066C146.264 116.978 144.923 110.655 166.359 91.3644C187.796 72.0738 202.604 78.0328 206.211 82.0974Z" fill="#004523"/>
<path d="M184.592 64.9535C189.148 67.933 180.734 70.8714 165.006 95.0947C149.279 119.318 144.834 120.251 140.285 117.277C135.735 114.303 132.772 108.479 148.482 84.291C164.192 60.1029 180.037 61.9622 184.592 64.9535Z" fill="#769065"/>
<path d="M162.582 55.5103C167.682 57.4106 160.094 62.1614 150.087 89.2411C140.08 116.321 135.934 118.239 130.834 116.344C125.734 114.45 121.583 109.464 131.619 82.3553C141.655 55.2464 157.459 53.651 162.582 55.5103Z" fill="#004523"/>
<path d="M8.83776 101.734C5.07276 105.84 14.0198 106.514 35.2397 126.075C56.4595 145.635 61.0033 145.43 64.8093 141.283C68.6153 137.136 70.1143 130.726 48.8827 111.183C27.6511 91.6401 12.6145 97.6226 8.83776 101.734Z" fill="#769065"/>
<path d="M26.2694 80.584C21.6905 83.7571 30.251 86.4023 46.6461 110.18C63.0412 133.957 67.5498 134.743 72.1228 131.57C76.6959 128.397 79.5767 122.426 63.2227 98.6782C46.8686 74.93 30.8366 77.411 26.2694 80.584Z" fill="#006838"/>
<path d="M44.8066 65.6102C39.8412 68.1146 47.9568 71.9329 60.8152 97.8101C73.6736 123.687 78.03 125.118 83.0071 122.626C87.9841 120.133 91.7316 114.684 78.8497 88.8012C65.9679 62.918 49.7954 63.1233 44.8066 65.6102Z" fill="#006838"/>
<path d="M67.4732 55.8857C62.1507 57.5456 69.5343 62.6425 77.9778 90.2793C86.4212 117.916 90.5024 120.045 95.784 118.403C101.066 116.761 105.662 111.998 97.2186 84.332C88.7751 56.6658 72.7899 54.2493 67.4732 55.8857Z" fill="#004523"/>
<path d="M89.7058 48.1731C84.1959 49.006 90.7246 55.1703 94.8878 83.7749C99.051 112.379 102.763 115.101 108.267 114.315C113.771 113.529 119.035 109.488 114.825 80.8833C110.615 52.2788 95.2099 47.3637 89.7058 48.1731Z" fill="#004523"/>
<path d="M118.842 47.0586C113.343 46.2257 117.782 54.0499 113.455 82.6369C109.128 111.224 111.88 114.895 117.389 115.74C122.899 116.585 129.053 114.262 133.375 85.6809C137.696 57.0998 124.34 47.8973 118.842 47.0586Z" fill="#006838"/>
<path d="M15.1956 133.43C13.5912 136.949 19.6047 135.494 37.8207 143.829C56.0368 152.163 58.9001 151.019 60.522 147.5C62.144 143.981 61.7692 139.424 43.6234 131.078C25.4776 122.731 16.7824 129.934 15.1956 133.43Z" fill="#004523"/>
<path d="M218.126 147.67C218.126 151.5 213.16 147.67 192.977 147.67C172.793 147.67 170.533 145.418 170.533 141.588C170.533 137.758 172.776 133.805 192.977 133.805C213.178 133.805 218.126 143.846 218.126 147.67Z" fill="#004523"/>
<path d="M164.098 162.04C177.612 175.946 139.669 178.011 127.039 178.011C114.409 178.011 101.498 176.838 101.498 171.008C101.498 165.178 121.008 132.82 124.521 144.949C131.548 168.873 157.587 155.348 164.098 162.04Z" fill="#CFAA7D"/>
<path d="M157.845 165.283C160.093 165.283 161.944 162.714 161.944 159.553C161.944 156.392 160.117 153.829 157.845 153.829C155.573 153.829 153.746 156.392 153.746 159.553C153.746 162.714 155.596 165.283 157.845 165.283Z" fill="#CFAA7D"/>
<path opacity="0.1" d="M140.964 212.592L121.776 214.709C119.615 214.926 117.438 214.926 115.277 214.709L95.3508 212.592L95.3505 210.5C95.7329 209.467 95.1842 208.772 95.3508 207.683L95.5264 205.442L113.561 207.149C116.315 207.413 119.087 207.413 121.841 207.149L139.887 205.442V209.5" fill="#1D1D1B"/>
<path d="M135.647 148.697C135.647 148.697 144.483 142.315 153.214 149.518C153.214 149.518 151.457 141.447 144.431 141.43C137.059 141.43 135.647 148.697 135.647 148.697Z" fill="#231F20" stroke="#231F20" stroke-miterlimit="10"/>
<path d="M105.649 147.629C105.649 147.629 97.0011 140.427 87.1406 146.761C87.1406 146.761 89.7463 138.896 97.1533 139.553C104.836 140.257 105.649 147.629 105.649 147.629Z" fill="#231F20" stroke="#231F20" stroke-miterlimit="10"/>
<path d="M138.769 184.551C116.957 206.058 103.244 184.551 103.244 184.551H138.769Z" fill="white"/>
</svg>
