<svg width="34" height="111" viewBox="0 0 34 111" fill="none" xmlns="http://www.w3.org/2000/svg">
<g clip-path="url(#clip0_613_1099)">
<path d="M10.0805 97.7773H15.2031L15.2031 55.3202H10.0805L10.0805 97.7773Z" fill="#FFC952"/>
<path d="M10.9137 33.2542L13.8717 33.7048C13.9886 33.7208 14.0939 33.7599 14.1716 33.8162C14.2494 33.8724 14.2955 33.9428 14.3029 34.0167L15.8509 58.1884C15.8544 58.2334 15.8431 58.2785 15.8176 58.3208C15.7921 58.3631 15.7529 58.4018 15.7025 58.4344C15.6521 58.4671 15.5915 58.4931 15.5244 58.5108C15.4572 58.5285 15.385 58.5376 15.3119 58.5376L9.96077 58.5376C9.88889 58.5376 9.81772 58.5287 9.75147 58.5115C9.68522 58.4942 9.62522 58.469 9.57499 58.4372C9.52477 58.4054 9.48534 58.3677 9.45903 58.3263C9.43271 58.285 9.42005 58.2408 9.42177 58.1964L10.241 33.5715C10.2424 33.5211 10.2622 33.4716 10.2989 33.4267C10.3356 33.3818 10.3883 33.3426 10.4531 33.3121C10.5178 33.2816 10.5929 33.2605 10.6727 33.2505C10.7524 33.2404 10.8349 33.2417 10.9137 33.2542Z" fill="#B2B2B2"/>
<path d="M11.4821 111H13.6898C15.052 111 16.1562 110.317 16.1562 109.475L16.1562 92.4134C16.1562 91.5712 15.052 90.8885 13.6898 90.8885H11.4821C10.1199 90.8885 9.0156 91.5712 9.0156 92.4134L9.0156 109.475C9.0156 110.317 10.1199 111 11.4821 111Z" fill="#FFC952"/>
<path d="M34 5.85436C26.2169 11.562 23.0087 28.7544 22.3231 32.9959C22.3045 33.1083 22.2443 33.2165 22.1474 33.3123C22.0504 33.408 21.9192 33.4888 21.7638 33.5483C21.6085 33.6077 21.4331 33.6444 21.2512 33.6554C21.0694 33.6664 20.8858 33.6514 20.7148 33.6117L17.6145 32.8892C17.2991 32.8166 17.0275 32.6859 16.8362 32.5147C16.645 32.3436 16.5433 32.1402 16.5451 31.9322C16.5796 29.2903 17.3256 19.6051 25.7641 7.62985L26.1953 4.00156C26.1953 4.00156 13.5396 20.5994 14.5874 30.9271C14.6119 31.1439 14.4999 31.3581 14.2749 31.525C14.0499 31.6919 13.7293 31.7986 13.3801 31.8229C11.8838 31.9268 10.0167 31.8709 10.0426 30.9298C10.4738 15.177 18.5372 5.09191 18.5372 5.09191V2.04213L16.9978 4.33746C6.13164 19.9463 8.55066 30.4259 6.88192 30.9618C5.62714 31.3617 4.19125 31.0124 3.3116 30.6952C3.05851 30.6092 2.84377 30.4858 2.68653 30.336C2.52929 30.1862 2.43443 30.0147 2.41039 29.8368C1.15992 19.5891 11.2629 3.34841 11.2629 3.34841L11.0516 -0.0106205L9.42168 2.3567C-0.780472 19.1972 -0.27166 27.8987 0.215595 30.314C0.806339 33.2465 14.2899 34.0169 14.2899 34.0169C14.2899 34.0169 23.6987 36.5628 24.0091 34.0169C26.0703 17.0351 33.0427 9.05876 33.0427 9.05876L34 5.85436Z" fill="#B2B2B2"/>
</g>
<defs>
<clipPath id="clip0_613_1099">
<rect width="34" height="111" fill="white" transform="translate(34 111) rotate(180)"/>
</clipPath>
</defs>
</svg>
