<svg width="241" height="241" viewBox="0 0 241 241" fill="none" xmlns="http://www.w3.org/2000/svg">
<circle r="120.5" transform="matrix(1 0 0 -1 120.5 120.5)" fill="#FFF200" fill-opacity="0.2"/>
<g clip-path="url(#clip0_331_1377)">
<path d="M144.085 203.667C132.761 229.713 165.5 233 165.5 233L144.085 240L121.5 242L93.5 238L74.5 233C107 228.5 98.6146 202.729 98.6146 202.729L144.085 203.667Z" fill="white"/>
<path opacity="0.4" d="M98.8992 210.748C98.8992 210.748 129.097 216.079 142.279 210.264C142.279 210.264 142.221 204.338 144.085 200.667C144.085 200.667 118.655 205.824 98.603 199.729C98.603 199.729 99.9213 205.649 98.8992 210.748Z" fill="#BCBEC0" fill-opacity="0.5"/>
<path d="M138.591 95.555C138.591 95.555 185.815 93.9293 191.715 155.735C197.616 217.541 110.728 205.701 110.728 205.701C110.728 205.701 51.2102 204.261 52 166.818C52.7898 129.374 62.5865 98.1712 100.589 96.8602L138.591 95.555Z" fill="white"/>
<path d="M118.62 59.5389C118.62 59.5389 124.7 41.965 136.338 42C147.976 42.035 149.247 50.7695 149.247 50.7695C149.247 50.7695 156.599 80.405 133.934 99.7911C111.268 119.177 94.7992 78.5579 94.7992 78.5579C94.7992 78.5579 89.3869 61.5084 99.3288 56.6313C109.271 51.7542 118.62 59.5389 118.62 59.5389Z" fill="#ED1C24"/>
<path d="M95.0081 151.75L118.783 146.919L144.915 151.93C144.915 151.93 155.072 156.912 147.755 164.324C140.438 171.736 123.214 188.675 123.214 188.675C123.214 188.675 120.014 192.171 116.471 188.675C112.929 185.178 92.0696 164.598 92.0696 164.598C92.0696 164.598 85.612 155.677 95.0081 151.75Z" fill="#FFF200"/>
<path d="M138.08 135.294C138.08 135.294 145.856 129.316 153.521 136.023C153.521 136.023 152.006 128.489 145.804 128.489C139.363 128.489 138.08 135.294 138.08 135.294Z" fill="#231F20" stroke="#231F20" stroke-miterlimit="10"/>
<path d="M99.8573 134.409C99.8573 134.409 92.308 127.708 83.5972 133.645C83.5972 133.645 85.92 126.298 92.4067 126.892C99.1605 127.51 99.8573 134.409 99.8573 134.409Z" fill="#231F20" stroke="#231F20" stroke-miterlimit="10"/>
</g>
<defs>
<clipPath id="clip0_331_1377">
<rect width="140" height="199" fill="white" transform="translate(52 42)"/>
</clipPath>
</defs>
</svg>
