<svg width="241" height="241" viewBox="0 0 241 241" fill="none" xmlns="http://www.w3.org/2000/svg">
<circle r="120.5" transform="matrix(1 0 0 -1 120.5 120.5)" fill="#EE99C1" fill-opacity="0.1"/>
<g clip-path="url(#clip0_331_1373)">
<path d="M143.005 94.6689L162.661 39.5528C163.64 36.743 165.358 34.2507 167.634 32.3393C169.91 30.428 172.659 29.1687 175.591 28.6946C182.135 27.6811 190.264 28.7744 195.042 38.0781C196.055 40.0537 196.657 42.2146 196.814 44.4302C196.97 46.6458 196.676 48.8701 195.951 50.9689L176.818 106.768C176.818 106.768 212.573 165.984 172.506 191.817C132.438 217.65 85.9286 202.441 68.4313 185.514C56.0412 173.557 51.5135 150.816 71.9137 108.989L52.894 51.561C51.3849 47.0983 51.6911 42.2193 53.7461 37.9813C56.6888 31.9857 62.8186 25.5403 75.2939 28.9395C77.8283 29.6362 80.1622 30.9245 82.1044 32.6989C84.0466 34.4733 85.542 36.6835 86.4683 39.1485L106.8 92.9095C106.8 92.9095 131.723 90.5238 143.005 94.6689Z" fill="#FFDFFF"/>
<path d="M79.9977 103.46C82.2266 100.952 84.9825 98.9712 88.0669 97.6588C91.1513 96.3465 94.4876 95.7356 97.8358 95.8703L78.8558 42.1833C78.2905 40.5808 77.2779 39.1746 75.9385 38.132C74.5992 37.0893 72.9893 36.454 71.3002 36.3016C67.9314 36.0055 63.915 36.5692 61.5006 40.0595C60.713 41.2366 60.2144 42.5838 60.0456 43.991C59.8767 45.3982 60.0424 46.8254 60.5291 48.1561L79.9977 103.46Z" fill="#EE99C1"/>
<path d="M151.072 95.8703C151.072 95.8703 164.229 97.2027 168.91 103.46L187.987 50.0692C188.633 48.3204 188.865 46.4447 188.663 44.5907C188.46 42.7367 187.83 40.9553 186.822 39.3876C184.817 36.3699 181.289 34.0582 175.159 36.7002C173.6 37.386 172.203 38.3937 171.059 39.6573C169.914 40.921 169.049 42.4122 168.518 44.0338L151.072 95.8703Z" fill="#EE99C1"/>
<path d="M143.182 137.572C143.182 137.572 150.788 131.73 158.287 138.284C158.287 138.284 156.804 130.921 150.737 130.921C144.437 130.921 143.182 137.572 143.182 137.572Z" fill="#231F20" stroke="#231F20" stroke-miterlimit="10"/>
<path d="M152.066 162.084L211.864 145.469" stroke="white" stroke-width="3" stroke-miterlimit="10" stroke-linecap="round"/>
<path d="M152.066 170.846L208.114 183.248" stroke="white" stroke-width="3" stroke-miterlimit="10" stroke-linecap="round"/>
<path d="M33.1357 145.469L95.7623 162.084" stroke="white" stroke-width="3" stroke-miterlimit="10" stroke-linecap="round"/>
<path d="M35.9482 186.675L97.1886 170.846" stroke="white" stroke-width="3" stroke-miterlimit="10" stroke-linecap="round"/>
<path d="M105.789 136.706C105.789 136.706 98.4042 130.158 89.8828 135.96C89.8828 135.96 92.1552 128.781 98.5008 129.361C105.108 129.965 105.789 136.706 105.789 136.706Z" fill="#231F20" stroke="#231F20" stroke-miterlimit="10"/>
<path d="M139.591 204.508C131.178 229.965 167 232.5 167 232.5L147 239L125 241.5L101.5 240L82.5 234.5C116.017 228.311 105.79 203.597 105.79 203.597L139.591 204.508Z" fill="#FFDFFF"/>
<path opacity="0.4" d="M106.012 214.37C106.012 214.37 128.434 219.586 138.251 213.903C138.251 213.903 138.205 208.113 139.592 204.52C139.592 204.52 120.691 209.564 105.79 203.609C105.79 203.609 106.767 209.359 106.012 214.37Z" fill="#BCBEC0"/>
<path d="M125.099 149.535H128.576C130.797 149.535 132.189 151.243 131.075 152.643L129.331 154.813L127.581 156.982C126.445 158.36 123.684 158.36 122.571 156.982L120.827 154.813L119.077 152.643C117.941 151.26 119.356 149.535 121.582 149.535H125.099Z" fill="#9E1F63"/>
<path d="M138.495 169.833C122.02 194.476 111.709 169.833 111.709 169.833H138.495Z" fill="white"/>
</g>
<defs>
<clipPath id="clip0_331_1373">
<rect width="181" height="213" fill="white" transform="translate(32 28)"/>
</clipPath>
</defs>
</svg>
