<svg width="71" height="60" viewBox="0 0 71 60" fill="none" xmlns="http://www.w3.org/2000/svg">
<path d="M50.5 46.2683C50.5 53.2365 43.6521 59.0366 35 59.0366C26.3479 59.0366 19.5 53.2365 19.5 46.2683C19.5 39.3001 26.3479 33.5 35 33.5C43.6521 33.5 50.5 39.3001 50.5 46.2683Z" fill="#56876D" stroke="#56876D"/>
<path d="M50.5 43.2683C50.5 50.2365 43.6521 56.0366 35 56.0366C26.3479 56.0366 19.5 50.2365 19.5 43.2683C19.5 36.3001 26.3479 30.5 35 30.5C43.6521 30.5 50.5 36.3001 50.5 43.2683Z" fill="#00ACB7" stroke="#56876D"/>
<path d="M33.7112 28.851C33.7112 28.851 33.0843 33.2416 32.725 35.1195C32.3657 36.9974 30.7146 45.0301 30.9898 45.4912C31.265 45.9524 34.4221 46.1595 36.3408 46.0994C38.2596 46.0392 39.9337 45.9256 40.4841 45.5447C41.0345 45.1638 40.5605 44.8764 40.3235 43.2057C40.0866 41.535 38.2748 35.2598 37.7245 32.7738C37.1741 30.2878 36.8148 28.6438 36.8148 28.6438L33.7112 28.851Z" fill="#6E3D1A"/>
<path d="M38.5692 44.7573C38.5692 43.2815 38.3206 41.8192 38.1714 40.3501C38.0905 39.5519 37.8854 38.767 37.73 37.9755C37.6483 37.2422 37.5195 36.516 37.3445 35.8021C37.348 35.7507 37.348 35.6991 37.3445 35.6478C37.3445 35.6075 37.2637 35.6478 37.2699 35.6478C37.276 35.7416 37.276 35.8357 37.2699 35.9295V35.9295C37.2388 36.4321 37.2388 36.9363 37.2699 37.4388C37.3694 38.1096 37.531 38.6999 37.6429 39.3372C37.8481 40.5581 37.8978 41.7924 38.1278 43.0065C38.1278 43.087 38.1278 43.1675 38.1278 43.248C38.1558 43.5845 38.2057 43.9185 38.277 44.2475C38.3291 44.6366 38.4252 45.0173 38.563 45.3812C38.5663 45.3899 38.5718 45.3974 38.579 45.4026C38.5862 45.4079 38.5947 45.4107 38.6034 45.4107C38.6121 45.4107 38.6206 45.4079 38.6278 45.4026C38.635 45.3974 38.6406 45.3899 38.6438 45.3812C38.6128 45.1866 38.5692 44.7774 38.5692 44.7573Z" fill="#50240F"/>
<path d="M33.7101 42.4823C33.7101 41.9168 33.7666 41.3512 33.7504 40.7786C33.7516 40.4654 33.7247 40.1526 33.6698 39.843C33.6456 39.6032 33.5804 39.3679 33.4762 39.1448C33.4762 39.0959 33.3552 39.1448 33.3632 39.1448V39.1867C33.3632 39.7034 33.1858 40.1921 33.097 40.6949C33.0406 41.243 33.0406 41.7945 33.097 42.3427C33.097 42.8943 33.1858 43.4459 33.2584 43.9905C33.331 44.5351 33.4116 45.2823 33.5084 45.9176C33.5084 45.9805 33.5972 46.3156 33.6375 45.9176C33.7101 44.7795 33.6859 43.6274 33.7101 42.4823Z" fill="#50240F"/>
<path d="M1.9803 24.9951C2.34542 26.6659 2.85442 28.3239 3.50521 29.9624C6.37142 30.0407 9.24317 29.9966 12.0992 29.8303C14.6806 29.652 51.8557 28.965 57.1711 29.1037C62.4865 29.2424 68.1286 29.0377 68.2158 28.8989C68.3029 28.7602 67.9217 26.5144 68.2158 24.6517C68.4939 23.6415 68.5707 22.6147 68.4445 21.5934C68.4123 20.9878 68.602 20.3854 69 19.8297L68.5316 19.3211C67.7147 19.2616 67.4424 18 66.3532 18C63.4886 18 44.9174 19.0304 31.8358 18.971C18.7543 18.9115 6.64216 18.8785 5.35688 19.3211C4.0716 19.7636 1 20.6422 1 20.6422" fill="#582F13"/>
<path d="M4.88912 19.5534C4.88912 19.5534 1.95736 20.7705 2.00047 21C3.30287 20.8259 4.56949 20.5918 5.78375 20.3007C7.05562 19.9431 19.3001 19.5588 32.2451 19.6068C45.1902 19.6549 63.5999 19.468 66.2622 19.9484C67.147 20.1101 68.0652 20.2229 69 20.2847C68.5624 19.9111 68.1806 19.5222 67.8575 19.1211C67.5988 18.6887 4.88912 19.5534 4.88912 19.5534Z" fill="#44250C"/>
<path d="M67.0901 9L5.41725 9.63907C4.02348 10.0861 2.53814 10.4192 1 10.6296C1 10.8022 1.53766 14.0806 1.60091 15.4291C1.66417 16.7775 2.00152 19.6214 2.26508 19.7236C2.52864 19.8259 5.92329 19.9217 6.36607 19.9856C6.80885 20.0495 11.1839 19.8834 12.8285 19.8195C15.165 19.7592 17.505 19.772 19.8392 19.8578C21.663 19.9473 28.8424 19.8578 32.7642 19.8578C36.6859 19.8578 43.8758 20.0943 48.5777 19.73C52.0977 19.4762 55.6512 19.4398 59.1833 19.6214C61.4619 19.7055 63.7468 19.7055 66.0253 19.6214C67.1025 19.2206 68.1062 18.7515 69.0194 18.2218C68.7515 16.6359 68.8224 15.0356 69.2302 13.4607C69.926 10.9939 70.1158 9.74771 69.9365 9.3451C69.0022 9.18978 68.0511 9.07446 67.0901 9V9Z" fill="#623516"/>
<path d="M57.5697 8.88905C58.2563 8.96115 58.9358 9.07371 59.6033 9.22589C59.592 9.17642 59.5634 9.13085 59.5211 9.09489C59.2818 8.93271 58.594 8.38379 58.594 8.38379L12.4936 8.60835C11.8489 9.2 11.2495 9.82502 10.6992 10.4797C11.7911 10.2683 12.8446 9.93691 13.8319 9.49411L57.5697 8.88905Z" fill="#44250C"/>
<path d="M1.46642 1.66841L0 3L71 1.8923L68.6368 0.0304339C68.6368 0.0304339 60.7773 -0.116866 49.1092 0.236654C37.4412 0.590174 20.3294 0.861205 13.356 1.17937C6.38261 1.49754 2.2471 1.61538 1.46642 1.66841Z" fill="#8B5422"/>
<path d="M70.399 6.44188C70.399 6.50817 70.1776 8.32434 70.1776 8.37737C70.1776 8.43039 67.2361 8.82809 66.6036 8.89438C65.971 8.96066 53.1717 9.41139 46.7721 9.55721C40.3725 9.70304 36.3556 9.78921 30.1457 9.70967C23.9359 9.63013 19.687 9.70967 14.3312 9.85549C8.97533 10.0013 7.93157 10.0278 6.8878 9.9748C5.84404 9.92177 0.941533 9.70967 0.6885 9.5307C0.435467 9.35174 0.403838 6.15687 0.182434 5.03667C0.0448006 4.25765 -0.0150606 3.47396 0.00320261 2.69023C0.996699 2.66158 1.98626 2.59294 2.9658 2.48475C4.89517 2.25276 7.78396 2.33893 10.251 2.02077C12.7181 1.70261 16.8088 1.72249 19.3075 1.48387C21.8062 1.24525 28.4694 1.21874 32.6866 1.15245C36.9038 1.08617 54.2577 1 58.7595 1C63.2614 1 71 1.4441 71 1.4441L70.5361 5.85859" fill="#6E3D1A"/>
<path d="M5.16627 15.8504L5.12292 13.3668C5.10324 12.239 5.05904 11.3116 4.99035 10.5847C5.12591 10.5583 5.28967 10.5435 5.48164 10.5401C5.87359 10.5333 6.07221 10.6818 6.07751 10.9858C6.07835 11.0338 6.07321 11.1979 6.0621 11.4781C6.05085 11.7504 6.04086 12.0946 6.03212 12.5108C6.02324 12.919 6.02202 13.3071 6.02844 13.6751L6.04729 14.7549C6.07633 16.4186 6.12192 17.426 6.18405 17.777C6.52028 17.7871 6.78438 17.7905 6.97635 17.7871C8.22416 17.7654 9.02643 17.6593 9.38317 17.4691C9.44209 17.6361 9.47316 17.8116 9.47637 17.9955C9.47888 18.1395 9.4447 18.2441 9.37383 18.3094C9.23995 18.4317 8.62909 18.5024 7.54125 18.5214C6.5814 18.5381 5.98135 18.5406 5.74111 18.5288C5.525 18.5246 5.37604 18.4712 5.29424 18.3686C5.22044 18.2659 5.18144 18.0945 5.17725 17.8545C5.17502 17.7266 5.17385 17.4305 5.17375 16.9665C5.17365 16.5024 5.17116 16.1304 5.16627 15.8504ZM11.3404 12.9102C11.3678 13.1018 11.3906 13.7215 11.4089 14.7693L12.1768 14.7559C12.7127 14.7466 13.0964 14.7279 13.328 14.6998C13.3531 14.7634 13.3666 14.8512 13.3686 14.9631C13.3714 15.1231 13.3373 15.2357 13.2665 15.301C13.2034 15.3581 13.1 15.3919 12.9562 15.4024C12.7883 15.4133 12.5604 15.4213 12.2725 15.4263L11.4206 15.4412C11.4431 16.729 11.4806 17.5045 11.5332 17.7676C11.8215 17.7786 12.0536 17.7825 12.2295 17.7795C13.2854 17.761 13.976 17.677 14.3015 17.5273C14.36 17.6703 14.3906 17.8217 14.3934 17.9817C14.3956 18.1097 14.3653 18.2022 14.3022 18.2594C14.1838 18.3494 13.6406 18.4029 12.6728 18.4198C12.4808 18.4232 12.1728 18.4245 11.7487 18.4239C11.3248 18.4313 11.1048 18.4352 11.0888 18.4355C10.8887 18.431 10.752 18.3893 10.6786 18.3106C10.6132 18.2317 10.5789 18.1003 10.5757 17.9163C10.5737 17.8044 10.5735 17.5603 10.5749 17.1842C10.5762 16.8002 10.575 16.5001 10.5712 16.2842L10.5392 14.4484C10.5232 13.5366 10.4628 12.8215 10.3577 12.3033C11.1406 12.2336 11.872 12.1928 12.5519 12.181C13.5197 12.1641 14.0645 12.2026 14.1862 12.2965C14.2511 12.3513 14.2847 12.4428 14.287 12.5708C14.2897 12.7307 14.2644 12.8832 14.2109 13.0282C13.8248 12.9069 13.2237 12.8534 12.4079 12.8676C12.0959 12.873 11.7401 12.8873 11.3404 12.9102ZM20.6786 18.2681C20.5189 18.2869 20.395 18.297 20.307 18.2986C20.0351 18.3033 19.8417 18.2267 19.7269 18.0687C19.4805 17.7049 19.0158 16.9769 18.3326 15.8847C17.6494 14.7924 17.0905 13.942 16.6558 13.3335C16.6823 13.9332 16.7068 14.8769 16.7292 16.1647C16.7477 17.2205 16.8241 17.9313 16.9585 18.297C16.8152 18.3395 16.6756 18.362 16.5396 18.3643C16.3236 18.3681 16.179 18.3306 16.1056 18.2519C16.0322 18.1732 15.9938 18.0378 15.9905 17.8458C15.9888 17.7498 15.9845 17.5059 15.9777 17.1139C15.9788 16.7219 15.9775 16.4138 15.9736 16.1899L15.9409 14.3182C15.9227 13.2783 15.8503 12.5675 15.7236 12.1856C15.8668 12.1351 16.0383 12.1081 16.2383 12.1046C16.4863 12.1003 16.6958 12.1887 16.867 12.3697C17.1846 12.6842 17.6515 13.3081 18.2679 14.2415C18.8843 15.1749 19.4278 16.0576 19.8984 16.8895C19.8483 16.3143 19.8133 15.4547 19.7934 14.3109C19.7783 13.4471 19.7413 12.7036 19.6824 12.0805C19.8101 12.0623 19.926 12.0523 20.0299 12.0504C20.3979 12.044 20.5839 12.1608 20.5881 12.4008C20.5887 12.4328 20.5829 12.5569 20.5706 12.7731C20.5664 12.9892 20.5591 13.2574 20.5487 13.5776C20.5463 13.8977 20.5476 14.2017 20.5526 14.4897L20.5807 16.0975C20.597 17.0333 20.6296 17.7569 20.6786 18.2681ZM25.8026 13.3299C25.6868 13.1079 25.4876 12.9273 25.2051 12.7882C24.9225 12.6412 24.6292 12.5703 24.3253 12.5756C24.0053 12.5811 23.7308 12.67 23.5018 12.842C23.2806 13.0059 23.1727 13.2438 23.1782 13.5557C23.1825 13.8037 23.2701 14.0062 23.4408 14.1632C23.6115 14.3123 23.8213 14.4166 24.0704 14.4763C24.3275 14.5358 24.6008 14.6071 24.8902 14.69C25.1877 14.7728 25.4614 14.8641 25.7111 14.9637C25.9688 15.0553 26.1838 15.2235 26.3561 15.4686C26.5282 15.7056 26.6174 16.0041 26.6237 16.364C26.635 17.0119 26.4154 17.4918 25.9648 17.8037C25.5221 18.1155 24.9769 18.2771 24.329 18.2884C23.801 18.2976 23.3316 18.2178 22.9206 18.0489C22.5176 17.8799 22.3138 17.6674 22.3093 17.4115C22.3059 17.2115 22.4825 17.0204 22.8394 16.8381C22.9716 17.0759 23.199 17.2679 23.5216 17.4143C23.8522 17.5606 24.1895 17.6307 24.5334 17.6247C24.8854 17.6186 25.1878 17.5293 25.4409 17.3568C25.7018 17.1762 25.8294 16.926 25.8238 16.606C25.8189 16.3261 25.6991 16.1081 25.4644 15.9522C25.2295 15.7883 24.9433 15.6692 24.606 15.5951C24.2767 15.5209 23.9431 15.4347 23.6053 15.3365C23.2754 15.2303 22.9923 15.0512 22.7558 14.7993C22.5193 14.5394 22.3973 14.1975 22.3899 13.7735C22.3795 13.1816 22.5756 12.7261 22.9781 12.407C23.3806 12.088 23.8978 11.9229 24.5297 11.9119C24.9936 11.9038 25.419 11.9764 25.8057 12.1297C26.2003 12.2748 26.4 12.4873 26.4049 12.7673C26.4099 13.0553 26.2092 13.2428 25.8026 13.3299ZM29.0916 12.6004C29.119 12.7919 29.1418 13.4116 29.1601 14.4595L29.928 14.4461C30.4639 14.4367 30.8476 14.418 31.0792 14.39C31.1043 14.4535 31.1178 14.5413 31.1198 14.6533C31.1226 14.8133 31.0885 14.9259 31.0177 14.9911C30.9546 15.0482 30.8512 15.0821 30.7074 15.0926C30.5395 15.1035 30.3116 15.1115 30.0237 15.1165L29.1718 15.1314C29.1943 16.4192 29.2318 17.1946 29.2844 17.4578C29.5727 17.4687 29.8048 17.4727 29.9808 17.4696C31.0366 17.4512 31.7272 17.3671 32.0527 17.2174C32.1112 17.3604 32.1418 17.5119 32.1446 17.6719C32.1468 17.7999 32.1165 17.8924 32.0534 17.9495C31.935 18.0396 31.3918 18.0931 30.424 18.11C30.232 18.1133 29.924 18.1147 29.4999 18.1141C29.076 18.1215 28.856 18.1253 28.84 18.1256C28.6399 18.1211 28.5032 18.0795 28.4298 18.0008C28.3644 17.9219 28.3301 17.7905 28.3269 17.6065C28.3249 17.4945 28.3247 17.2505 28.3261 16.8744C28.3274 16.4903 28.3262 16.1903 28.3224 15.9743L28.2904 14.1386C28.2744 13.2267 28.214 12.5117 28.1089 11.9934C28.8918 11.9238 29.6232 11.883 30.3031 11.8711C31.2709 11.8542 31.8157 11.8927 31.9374 11.9866C32.0023 12.0415 32.0359 12.1329 32.0382 12.2609C32.041 12.4209 32.0156 12.5733 31.9621 12.7183C31.576 12.597 30.9749 12.5435 30.1591 12.5577C29.8471 12.5632 29.4913 12.5774 29.0916 12.6004ZM36.2859 15.4633C36.1276 15.106 35.7888 14.2598 35.2694 12.9246C34.8896 14.0834 34.5884 14.9368 34.366 15.4848C34.8462 15.4924 35.2143 15.494 35.4702 15.4895C35.8462 15.4829 36.118 15.4742 36.2859 15.4633ZM35.2893 16.1288C35.1214 16.1317 34.7333 16.1305 34.1251 16.1251C34.0868 16.2218 34.0025 16.4353 33.8722 16.7656C33.75 17.0958 33.6508 17.3735 33.5747 17.5989C33.4985 17.8163 33.4342 18.0294 33.3819 18.2384C32.9088 18.1826 32.6707 18.0628 32.6675 17.8788C32.6661 17.7988 32.6998 17.6662 32.7686 17.481C32.8453 17.2956 32.972 16.9893 33.1486 16.5622C33.333 16.1269 33.5054 15.6918 33.6659 15.257C34.2617 13.6383 34.65 12.5034 34.8306 11.8521C34.9582 11.8259 35.106 11.8113 35.2739 11.8084C35.4499 11.8053 35.5744 11.8311 35.6474 11.8859C35.7202 11.9326 35.8026 12.0712 35.8946 12.3016C35.9616 12.4685 36.1417 12.9334 36.4351 13.6964C36.7363 14.4512 36.9704 15.0312 37.1375 15.4364C37.538 16.3735 37.9282 17.1869 38.3083 17.8763C38.0863 17.9922 37.9073 18.0514 37.7713 18.0537C37.5314 18.0579 37.366 17.9808 37.2752 17.8224C37.2253 17.7112 36.9791 17.1314 36.5367 16.083C35.8491 16.111 35.4333 16.1262 35.2893 16.1288ZM44.0305 17.8605C43.8708 17.8793 43.7469 17.8894 43.6589 17.891C43.387 17.8957 43.1936 17.8191 43.0788 17.661C42.8325 17.2973 42.3677 16.5693 41.6845 15.477C41.0013 14.3848 40.4424 13.5344 40.0077 12.9259C40.0342 13.5255 40.0587 14.4693 40.0812 15.7571C40.0996 16.8129 40.176 17.5237 40.3104 17.8894C40.1671 17.9319 40.0275 17.9543 39.8915 17.9567C39.6755 17.9605 39.5309 17.923 39.4575 17.8443C39.3841 17.7655 39.3457 17.6302 39.3424 17.4382C39.3407 17.3422 39.3364 17.0983 39.3296 16.7063C39.3308 16.3143 39.3294 16.0062 39.3255 15.7823L39.2928 13.9105C39.2747 12.8707 39.2022 12.1599 39.0756 11.778C39.2187 11.7275 39.3902 11.7005 39.5902 11.697C39.8382 11.6927 40.0478 11.781 40.2189 11.9621C40.5365 12.2766 41.0034 12.9005 41.6198 13.8339C42.2362 14.7673 42.7797 15.65 43.2503 16.4819C43.2002 15.9067 43.1652 15.0471 43.1453 13.9033C43.1302 13.0394 43.0932 12.296 43.0343 11.6729C43.162 11.6547 43.2779 11.6447 43.3819 11.6428C43.7498 11.6364 43.9359 11.7532 43.94 11.9931C43.9406 12.0251 43.9348 12.1493 43.9225 12.3655C43.9183 12.5816 43.911 12.8498 43.9006 13.17C43.8982 13.4901 43.8995 13.7941 43.9045 14.0821L43.9326 15.6898C43.9489 16.6257 43.9815 17.3492 44.0305 17.8605ZM46.1552 15.7351L46.1213 13.7914C46.1067 12.9595 46.0701 12.236 46.0114 11.6209C46.1391 11.6027 46.2949 11.592 46.4789 11.5888C46.8468 11.5824 47.0329 11.6991 47.0371 11.9391C47.0376 11.9711 47.0318 12.0952 47.0196 12.3115C47.0153 12.5276 47.008 12.7957 46.9976 13.116C46.9872 13.4362 46.9845 13.7403 46.9895 14.0282L47.004 14.8561C47.026 16.1199 47.0634 16.8834 47.116 17.1465C47.3882 17.1578 47.6003 17.1621 47.7523 17.1594C48.7521 17.142 49.3988 17.0587 49.6922 16.9095C49.7429 17.0606 49.7695 17.2122 49.7722 17.3642C49.7744 17.4922 49.748 17.5846 49.693 17.6416C49.5746 17.7317 49.0594 17.7847 48.1475 17.8006C47.9716 17.8037 47.6795 17.8048 47.2715 17.8039C46.8715 17.8109 46.6596 17.8146 46.6356 17.815C46.4515 17.8102 46.3267 17.7684 46.2613 17.6895C46.1959 17.6106 46.1616 17.4792 46.1584 17.2952C46.1567 17.1993 46.1568 16.9712 46.1585 16.6111C46.1602 16.2511 46.1591 15.959 46.1552 15.7351ZM51.6351 12.2069C51.6624 12.3984 51.6852 13.0181 51.7035 14.066L52.4714 14.0526C53.0073 14.0432 53.3911 14.0245 53.6226 13.9965C53.6477 14.06 53.6613 14.1478 53.6632 14.2598C53.666 14.4198 53.632 14.5324 53.5611 14.5976C53.4981 14.6547 53.3947 14.6886 53.2508 14.6991C53.083 14.71 52.8551 14.718 52.5671 14.723L51.7153 14.7379C51.7377 16.0257 51.7753 16.8011 51.8279 17.0643C52.1161 17.0752 52.3482 17.0792 52.5242 17.0761C53.58 17.0577 54.2707 16.9736 54.5961 16.8239C54.6546 16.9669 54.6853 17.1184 54.6881 17.2784C54.6903 17.4064 54.6599 17.4989 54.5969 17.556C54.4784 17.6461 53.9353 17.6996 52.9674 17.7165C52.7755 17.7198 52.4674 17.7212 52.0434 17.7206C51.6194 17.728 51.3995 17.7318 51.3835 17.7321C51.1834 17.7276 51.0466 17.686 50.9732 17.6073C50.9078 17.5284 50.8735 17.397 50.8703 17.213C50.8684 17.101 50.8681 16.857 50.8696 16.4809C50.8708 16.0968 50.8696 15.7968 50.8658 15.5808L50.8338 13.7451C50.8179 12.8332 50.7574 12.1182 50.6523 11.5999C51.4352 11.5303 52.1666 11.4895 52.8465 11.4776C53.8144 11.4607 54.3591 11.4992 54.4808 11.5931C54.5458 11.648 54.5794 11.7394 54.5816 11.8674C54.5844 12.0274 54.5591 12.1799 54.5056 12.3248C54.1194 12.2035 53.5184 12.15 52.7025 12.1642C52.3905 12.1697 52.0347 12.1839 51.6351 12.2069ZM60.7914 16.7758C60.7953 16.9997 60.6069 17.2071 60.2262 17.3977C59.8533 17.5803 59.3869 17.6764 58.827 17.6862C57.8911 17.7025 57.1341 17.4237 56.556 16.8497C55.9779 16.2757 55.6806 15.5128 55.664 14.5609C55.6465 13.5611 55.9129 12.7763 56.463 12.2066C57.021 11.6288 57.7879 11.3314 58.7638 11.3143C59.2837 11.3053 59.7214 11.3976 60.0768 11.5915C60.4321 11.7773 60.6123 12.0142 60.6173 12.3021C60.6225 12.5981 60.4057 12.7859 59.967 12.8656C59.8417 12.5637 59.6498 12.339 59.3912 12.1915C59.1326 12.044 58.8593 11.9728 58.5713 11.9778C57.9874 11.988 57.5114 12.2203 57.1433 12.6748C56.7751 13.1293 56.5969 13.6885 56.6085 14.3524C56.622 15.1283 56.8173 15.773 57.1943 16.2865C57.5793 16.7998 58.1038 17.0507 58.7677 17.0391C59.2476 17.0308 59.6454 16.8998 59.961 16.6463C59.9323 15.9186 59.8971 15.2752 59.8553 14.7158C59.983 14.6976 60.1188 14.6872 60.2628 14.6847C60.6388 14.6781 60.8288 14.7908 60.8328 15.0228C60.8329 15.0308 60.8247 15.243 60.8079 15.6593C60.791 16.0677 60.7855 16.4398 60.7914 16.7758ZM67.1303 16.6651C67.1342 16.8891 66.9458 17.0964 66.565 17.2871C66.1922 17.4696 65.7258 17.5658 65.1659 17.5756C64.23 17.5919 63.473 17.3131 62.8949 16.7391C62.3168 16.1651 62.0195 15.4021 62.0028 14.4503C61.9854 13.4504 62.2517 12.6657 62.8019 12.096C63.3599 11.5182 64.1268 11.2207 65.1027 11.2037C65.6226 11.1946 66.0603 11.287 66.4157 11.4808C66.771 11.6666 66.9511 11.9035 66.9562 12.1915C66.9613 12.4874 66.7446 12.6753 66.3059 12.7549C66.1806 12.4531 65.9887 12.2284 65.7301 12.0809C65.4714 11.9334 65.1982 11.8621 64.9102 11.8672C64.3263 11.8773 63.8503 12.1097 63.4821 12.5642C63.114 13.0187 62.9358 13.5779 62.9473 14.2418C62.9609 15.0177 63.1562 15.6623 63.5332 16.1758C63.9182 16.6892 64.4427 16.9401 65.1066 16.9285C65.5865 16.9201 65.9843 16.7892 66.2999 16.5356C66.2712 15.808 66.2359 15.1645 66.1942 14.6052C66.3219 14.5869 66.4577 14.5766 66.6017 14.574C66.9776 14.5675 67.1676 14.6802 67.1717 14.9121C67.1718 14.9201 67.1635 15.1323 67.1468 15.5487C67.1299 15.957 67.1244 16.3292 67.1303 16.6651Z" fill="white"/>
</svg>
