<svg width="241" height="241" viewBox="0 0 241 241" fill="none" xmlns="http://www.w3.org/2000/svg">
<g clip-path="url(#clip0_564_562)">
<path d="M143.005 94.6688L162.661 39.5527C163.64 36.7429 165.358 34.2506 167.634 32.3392C169.91 30.4279 172.659 29.1686 175.591 28.6946C182.135 27.6811 190.264 28.7743 195.042 38.078C196.055 40.0536 196.657 42.2145 196.814 44.4301C196.97 46.6457 196.676 48.87 195.951 50.9688L176.818 106.768C176.818 106.768 212.573 165.984 172.506 191.817C132.438 217.65 85.9286 202.441 68.4313 185.514C56.0412 173.557 51.5135 150.816 71.9137 108.989L52.894 51.5609C51.3849 47.0982 51.6911 42.2192 53.7461 37.9812C56.6888 31.9856 62.8186 25.5402 75.2939 28.9394C77.8283 29.6361 80.1622 30.9244 82.1044 32.6988C84.0466 34.4732 85.542 36.6834 86.4683 39.1484L106.8 92.9094C106.8 92.9094 131.723 90.5237 143.005 94.6688Z" fill="#FFDFFF"/>
<path d="M79.9977 103.46C82.2266 100.953 84.9825 98.9713 88.0669 97.6589C91.1513 96.3465 94.4876 95.7357 97.8358 95.8704L78.8558 42.1834C78.2905 40.5808 77.2779 39.1747 75.9385 38.1321C74.5992 37.0894 72.9893 36.4541 71.3002 36.3017C67.9314 36.0056 63.915 36.5693 61.5006 40.0596C60.713 41.2367 60.2144 42.5839 60.0456 43.9911C59.8767 45.3982 60.0424 46.8255 60.5291 48.1562L79.9977 103.46Z" fill="#EE99C1"/>
<path d="M151.072 95.8703C151.072 95.8703 164.229 97.2027 168.91 103.46L187.987 50.0693C188.633 48.3204 188.865 46.4447 188.663 44.5907C188.46 42.7367 187.83 40.9553 186.822 39.3877C184.817 36.3699 181.289 34.0582 175.159 36.7002C173.6 37.3861 172.203 38.3937 171.059 39.6573C169.914 40.921 169.049 42.4122 168.518 44.0338L151.072 95.8703Z" fill="#EE99C1"/>
<path d="M143.182 137.572C143.182 137.572 150.788 131.73 158.287 138.283C158.287 138.283 156.804 130.921 150.737 130.921C144.437 130.921 143.182 137.572 143.182 137.572Z" fill="#231F20" stroke="#231F20" stroke-miterlimit="10"/>
<path d="M152.066 162.084L211.864 145.469" stroke="white" stroke-width="3" stroke-miterlimit="10" stroke-linecap="round"/>
<path d="M152.066 170.846L208.114 183.248" stroke="white" stroke-width="3" stroke-miterlimit="10" stroke-linecap="round"/>
<path d="M33.1357 145.469L95.7623 162.084" stroke="white" stroke-width="3" stroke-miterlimit="10" stroke-linecap="round"/>
<path d="M35.9482 186.675L97.1886 170.846" stroke="white" stroke-width="3" stroke-miterlimit="10" stroke-linecap="round"/>
<path d="M105.789 136.706C105.789 136.706 98.4042 130.158 89.8828 135.96C89.8828 135.96 92.1552 128.781 98.5008 129.361C105.108 129.965 105.789 136.706 105.789 136.706Z" fill="#231F20" stroke="#231F20" stroke-miterlimit="10"/>
<path d="M139.591 204.508C131.178 229.965 167 232.5 167 232.5L147 239L125 241.5L101.5 240L82.5 234.5C116.017 228.311 105.79 203.597 105.79 203.597L139.591 204.508Z" fill="#FFDFFF"/>
<path opacity="0.4" d="M106.012 214.37C106.012 214.37 128.434 219.585 138.251 213.903C138.251 213.903 138.205 208.112 139.592 204.52C139.592 204.52 120.691 209.564 105.79 203.609C105.79 203.609 106.767 209.359 106.012 214.37Z" fill="#BCBEC0"/>
<path d="M125.099 149.534H128.576C130.797 149.534 132.189 151.243 131.075 152.643L129.331 154.813L127.581 156.982C126.445 158.36 123.684 158.36 122.571 156.982L120.827 154.813L119.077 152.643C117.941 151.26 119.356 149.534 121.582 149.534H125.099Z" fill="#9E1F63"/>
<path d="M138.495 169.833C122.02 194.476 111.709 169.833 111.709 169.833H138.495Z" fill="white"/>
</g>
<defs>
<clipPath id="clip0_564_562">
<rect width="181" height="213" fill="white" transform="translate(32 28)"/>
</clipPath>
</defs>
</svg>
