<svg width="47" height="85" viewBox="0 0 47 85" fill="none" xmlns="http://www.w3.org/2000/svg">
<g filter="url(#filter0_d_318_1023)">
<ellipse cx="17" cy="67.2683" rx="16" ry="13.2683" fill="#00ACB7"/>
<path d="M32.5 67.2683C32.5 74.2365 25.6521 80.0366 17 80.0366C8.34789 80.0366 1.5 74.2365 1.5 67.2683C1.5 60.3001 8.34789 54.5 17 54.5C25.6521 54.5 32.5 60.3001 32.5 67.2683Z" stroke="#56876D"/>
</g>
<g clip-path="url(#clip0_318_1023)">
<path d="M31.4967 41.6132L19.0263 39.3939C18.0033 39.2121 16.955 39.227 15.9376 39.4376L5.60909 41.5721C3.89609 41.9274 2.30127 40.546 2.30127 38.7072L6.56651 9.54517L28.566 13.2758L34.2601 38.5043C34.6584 40.2848 33.2097 41.9181 31.4967 41.6132Z" fill="#FFF69E"/>
<path d="M17.1671 22.8117C22.6294 22.8117 27.0574 18.7981 27.0574 13.8471C27.0574 8.89614 22.6294 4.88257 17.1671 4.88257C11.7049 4.88257 7.27686 8.89614 7.27686 13.8471C7.27686 18.7981 11.7049 22.8117 17.1671 22.8117Z" fill="#FEE5CF"/>
<path d="M17.5099 6.49608C17.5099 6.49608 16.498 9.48294 10.6977 9.8515C5.76855 10.1657 7.73916 27.8734 8.74173 34.7036C9.03372 36.6162 8.71255 38.572 7.82415 40.2915C6.64629 42.5121 4.69825 44.4821 2.18054 40.9968C-1.55487 35.8265 0.64149 24.5101 0.64149 24.5101C0.64149 24.5101 1.38645 -4.61881 18.4899 1.8176" fill="#FFF155"/>
<path d="M17.7488 58.8372L18.5615 67.3828H21.455L23.7815 58.8372H17.7488Z" fill="#FEE5CF"/>
<path d="M10.6975 58.8372L13.0466 67.3828H15.7144L16.9028 58.8372H10.6975Z" fill="#FEE5CF"/>
<path d="M15.7144 67.3828L15.4303 70.2901C15.4135 70.454 15.3361 70.6057 15.2134 70.7157C15.0907 70.8258 14.9313 70.8862 14.7663 70.8854C14.6295 70.8847 14.4962 70.8417 14.3847 70.7625C14.2732 70.6832 14.189 70.5715 14.1435 70.4426L13.04 67.3828" fill="#575756"/>
<path d="M18.5615 67.3828L19.0648 70.253C19.0943 70.413 19.179 70.5576 19.3041 70.6618C19.4293 70.7659 19.5871 70.823 19.75 70.8231C19.8926 70.823 20.0317 70.7793 20.1486 70.6977C20.2654 70.6161 20.3544 70.5007 20.4033 70.367L21.455 67.3828H18.5615Z" fill="#575756"/>
<path d="M8.29543 32.0534C8.29543 32.0534 2.62792 34.5352 2.42342 44.6955C2.42342 44.6955 1.81126 46.3474 0.681206 44.5245C-0.938841 41.9115 0.203159 33.4428 5.49886 28.8571C10.7946 24.2714 8.29543 32.0534 8.29543 32.0534Z" fill="#FEE5CF"/>
<path d="M17.2881 18.4992C17.9416 18.4992 18.4713 17.9703 18.4713 17.3179C18.4713 16.6656 17.9416 16.1367 17.2881 16.1367C16.6347 16.1367 16.105 16.6656 16.105 17.3179C16.105 17.9703 16.6347 18.4992 17.2881 18.4992Z" fill="white"/>
<path opacity="0.1" d="M16.5934 61.0604L11.3309 61.1426L10.6975 58.8372H16.9028L16.5934 61.0604Z" fill="#1D1912"/>
<path opacity="0.1" d="M23.152 61.1479H17.9679L17.7488 58.8372H23.7815L23.152 61.1479Z" fill="#1D1912"/>
<path d="M18.6226 1.79899C17.4434 2.50692 16.8605 5.28299 17.539 6.95871C18.6014 9.5863 22.6276 8.95791 24.4216 11.4662C26.3909 14.221 22.686 16.6458 23.5823 22.6527C24.6447 29.8116 30.125 31.1081 29.538 37.0408C29.2645 39.8049 27.8702 41.6079 28.643 42.7414C29.4158 43.8749 31.8048 43.6614 33.1791 42.2111C35.6955 39.5596 34.4407 33.0636 33.1791 26.5118C32.32 22.068 31.2338 12.1556 28.9418 7.46116C26.0987 1.65316 21.0686 0.331407 18.6226 1.79899Z" fill="#FFF155"/>
<path d="M16.5324 51.1477C16.5324 51.1477 17.7739 53.5884 22.6407 51.7165C27.5274 49.8366 27.959 47.2289 28.7026 42.9176C28.7783 42.4762 28.9417 39.7505 28.931 39.3037C28.8607 36.0703 29.0877 22.4604 31.5098 15.8384C34.2639 8.30027 40.4599 4.75793 40.4599 4.75793C40.4599 4.75793 44.0294 4.08049 40.8185 7.10579C32.6425 14.7963 31.0729 29.7505 31.4302 32.5239C31.7874 35.2974 32.3823 42.1553 29.9336 49.1273C27.9046 54.9035 20.1071 57.3879 18.0077 55.4206C15.9082 53.4532 14.9734 53.7462 14.9734 53.7462L16.5324 51.1477Z" fill="#EBD5C1"/>
<path d="M39.1506 5.56805C39.1506 5.56805 40.2873 1.62401 42.558 1.42118C44.8288 1.21834 46.9999 0 46.9999 0C46.9999 0 44.9961 3.04917 45.0479 4.40141C45.0997 5.75365 41.0057 7.09131 41.0057 7.09131L39.1506 5.56805Z" fill="#3C3C3B"/>
<path opacity="0.1" d="M40.375 7.55794L38.585 6.07578L39.1719 5.62769L40.8929 7.03693L40.375 7.55794Z" fill="#1D1912"/>
<path d="M26.108 31.8425C26.108 31.8425 31.0545 33.6641 32.1938 43.733C32.1938 43.733 32.8578 45.3053 33.6253 43.3658C34.7235 40.5817 32.9613 32.3012 28.1278 28.3479C23.2942 24.3946 26.108 31.8425 26.108 31.8425Z" fill="#FEE5CF"/>
<path d="M20.5535 24.3032C20.5535 24.3032 24.6899 25.9856 25.6606 26.4973C26.7428 27.0687 28.1278 28.3533 28.1278 28.3533L26.1081 31.8479L24.249 30.7383C24.249 30.7383 25.0179 34.7287 21.3821 34.974C17.7463 35.2192 13.0973 34.974 13.0973 34.974C13.0973 34.974 10.2422 35.1317 9.75225 30.8139C9.75225 30.8139 8.18266 32.0362 7.80288 32.4445C7.4231 32.8528 6.12573 28.3348 6.12573 28.3348C6.12573 28.3348 10.9567 24.2992 13.9604 24.3735" fill="white"/>
<path d="M21.3794 34.9688C20.6052 36.0625 21.8667 38.3679 21.8667 38.3679C29.7147 44.9661 25.7655 58.8371 25.7655 58.8371H8.60492C4.78984 41.4794 12.5886 38.3679 12.5886 38.3679C13.4571 37.8376 13.1039 34.9688 13.1039 34.9688" fill="white"/>
<path d="M13.1463 34.9688H21.4324L21.3713 36.0373C21.3658 36.1439 21.3689 36.2507 21.3806 36.3568L21.5041 37.4333L13.0945 37.5433L13.2273 36.4708C13.2361 36.3996 13.2383 36.3277 13.2339 36.256L13.1463 34.9688Z" fill="#A4174F"/>
<path d="M18.9559 22.5942C18.9559 22.5942 18.8231 24.2726 20.1072 24.2726C20.2679 24.2726 20.5534 24.3031 20.5534 24.3031C20.7526 26.2718 19.2096 28.8702 17.4607 28.8702C16.0465 28.8702 15.5645 28.1291 14.8766 27.0407C14.3122 26.1445 13.9617 24.3787 13.9617 24.3787C13.9617 24.3787 15.7198 24.3389 15.7172 22.7149" fill="#FEE5CF"/>
<path opacity="0.1" d="M19.3875 24.0142L17.5005 24.4384H17.4633C17.3033 24.4583 17.1413 24.4583 16.9813 24.4384L15.0691 24.0195L15.3187 23.8047C15.3321 23.7934 15.3445 23.781 15.3559 23.7676C15.5087 23.6029 15.6163 23.4015 15.668 23.183L15.7158 22.7123L17.2283 22.8568C17.2782 22.8608 17.3284 22.8608 17.3783 22.8568L18.9546 22.6885L18.9851 23.1644C19.0065 23.3131 19.0457 23.4586 19.102 23.5979C19.1368 23.6929 19.1856 23.7823 19.2467 23.8631L19.3875 24.0142Z" fill="#1D1912"/>
<path opacity="0.2" d="M14.6958 13.8207C14.6958 14.8269 14.2523 15.6435 13.7052 15.6435C13.1581 15.6435 12.7146 14.8269 12.7146 13.8207C12.7146 12.8144 13.1581 11.9978 13.7052 11.9978C14.2523 11.9978 14.6958 12.8131 14.6958 13.8207Z" fill="#1D1D1B"/>
<path d="M13.7052 15.1028C14.2523 15.1028 14.6958 14.2866 14.6958 13.2799C14.6958 12.2732 14.2523 11.457 13.7052 11.457C13.1581 11.457 12.7146 12.2732 12.7146 13.2799C12.7146 14.2866 13.1581 15.1028 13.7052 15.1028Z" fill="#C91517"/>
<path opacity="0.2" d="M21.5613 13.5502C21.5613 14.5564 21.1178 15.3717 20.5707 15.3717C20.0236 15.3717 19.5801 14.5564 19.5801 13.5502C19.5801 12.5439 20.0236 11.7273 20.5707 11.7273C21.1178 11.7273 21.5613 12.5426 21.5613 13.5502Z" fill="#1D1D1B"/>
<path d="M20.5707 14.8323C21.1178 14.8323 21.5613 14.0161 21.5613 13.0094C21.5613 12.0027 21.1178 11.1865 20.5707 11.1865C20.0236 11.1865 19.5801 12.0027 19.5801 13.0094C19.5801 14.0161 20.0236 14.8323 20.5707 14.8323Z" fill="#C91517"/>
</g>
<defs>
<filter id="filter0_d_318_1023" x="1" y="54" width="32" height="30.5366" filterUnits="userSpaceOnUse" color-interpolation-filters="sRGB">
<feFlood flood-opacity="0" result="BackgroundImageFix"/>
<feColorMatrix in="SourceAlpha" type="matrix" values="0 0 0 0 0 0 0 0 0 0 0 0 0 0 0 0 0 0 127 0" result="hardAlpha"/>
<feOffset dy="4"/>
<feComposite in2="hardAlpha" operator="out"/>
<feColorMatrix type="matrix" values="0 0 0 0 0.337255 0 0 0 0 0.529412 0 0 0 0 0.427451 0 0 0 1 0"/>
<feBlend mode="normal" in2="BackgroundImageFix" result="effect1_dropShadow_318_1023"/>
<feBlend mode="normal" in="SourceGraphic" in2="effect1_dropShadow_318_1023" result="shape"/>
</filter>
<clipPath id="clip0_318_1023">
<rect width="47" height="70.8853" fill="white"/>
</clipPath>
</defs>
</svg>
