<svg width="65" height="61" viewBox="0 0 65 61" fill="none" xmlns="http://www.w3.org/2000/svg">
<path d="M49.5 47.2681C49.5 54.2362 42.6521 60.0363 34 60.0363C25.3479 60.0363 18.5 54.2362 18.5 47.2681C18.5 40.2999 25.3479 34.4998 34 34.4998C42.6521 34.4998 49.5 40.2999 49.5 47.2681Z" fill="#56876D" stroke="#56876D"/>
<path d="M49.5 44.2681C49.5 51.2362 42.6521 57.0363 34 57.0363C25.3479 57.0363 18.5 51.2362 18.5 44.2681C18.5 37.2999 25.3479 31.4998 34 31.4998C42.6521 31.4998 49.5 37.2999 49.5 44.2681Z" fill="#00ACB7" stroke="#56876D"/>
<path d="M31.7112 28.8507C31.7112 28.8507 31.0843 33.2414 30.725 35.1192C30.3657 36.9971 28.7146 45.0299 28.9898 45.491C29.265 45.9521 32.4221 46.1593 34.3408 46.0991C36.2596 46.039 37.9337 45.9254 38.4841 45.5445C39.0345 45.1635 38.5605 44.8762 38.3235 43.2055C38.0866 41.5348 36.2748 35.2596 35.7245 32.7736C35.1741 30.2875 34.8148 28.6436 34.8148 28.6436L31.7112 28.8507Z" fill="#6E3D1A"/>
<path d="M36.5697 44.7573C36.5697 43.2815 36.3211 41.8192 36.1718 40.3501C36.091 39.5519 35.8859 38.767 35.7304 37.9755C35.6488 37.2422 35.52 36.516 35.345 35.8021C35.3485 35.7507 35.3485 35.6991 35.345 35.6478C35.345 35.6075 35.2642 35.6478 35.2704 35.6478C35.2765 35.7416 35.2765 35.8357 35.2704 35.9295C35.2393 36.4321 35.2393 36.9363 35.2704 37.4388C35.3699 38.1096 35.5315 38.6999 35.6434 39.3372C35.8486 40.5581 35.8983 41.7924 36.1283 43.0065C36.1283 43.087 36.1283 43.1675 36.1283 43.248C36.1563 43.5845 36.2062 43.9185 36.2775 44.2475C36.3296 44.6366 36.4257 45.0173 36.5635 45.3812C36.5667 45.3899 36.5723 45.3974 36.5795 45.4026C36.5867 45.4079 36.5952 45.4107 36.6039 45.4107C36.6126 45.4107 36.6211 45.4079 36.6283 45.4026C36.6355 45.3974 36.6411 45.3899 36.6443 45.3812C36.6132 45.1866 36.5697 44.7774 36.5697 44.7573Z" fill="#50240F"/>
<path d="M31.7101 42.4823C31.7101 41.9168 31.7666 41.3512 31.7504 40.7786C31.7516 40.4654 31.7247 40.1526 31.6698 39.843C31.6456 39.6032 31.5804 39.3679 31.4762 39.1448C31.4762 39.0959 31.3552 39.1448 31.3632 39.1448V39.1867C31.3632 39.7034 31.1858 40.1921 31.097 40.6949C31.0406 41.243 31.0406 41.7945 31.097 42.3427C31.097 42.8943 31.1858 43.4459 31.2584 43.9905C31.331 44.5351 31.4116 45.2823 31.5084 45.9176C31.5084 45.9805 31.5972 46.3156 31.6375 45.9176C31.7101 44.7795 31.6859 43.6274 31.7101 42.4823Z" fill="#50240F"/>
<path d="M0.922634 24.9949C1.26628 26.6656 1.74534 28.3237 2.35784 29.9622C5.05545 30.0405 7.75827 29.9964 10.4463 29.8301C12.8759 29.6517 47.8642 28.9648 52.8669 29.1035C57.8696 29.2422 63.1799 29.0374 63.2619 28.8987C63.3439 28.76 62.9851 26.5141 63.2619 24.6514C63.5237 23.6412 63.5959 22.6144 63.4772 21.5931C63.4468 20.9875 63.6254 20.3852 64 19.8295L63.5592 19.3208C62.7903 19.2614 62.534 17.9998 61.5089 17.9998C58.8128 17.9998 41.334 19.0302 29.0219 18.9708C16.7099 18.9113 5.31027 18.8783 4.10059 19.3208C2.89092 19.7634 0 20.6419 0 20.6419" fill="#582F13"/>
<path d="M7.37167 19.5534C7.37167 19.5534 4.96499 20.7705 5.00039 21C6.06952 20.8259 7.10928 20.5918 8.10606 20.3007C9.15013 19.9431 19.2015 19.5588 29.8281 19.6068C40.4546 19.6549 55.5671 19.468 57.7526 19.9484C58.4789 20.1101 59.2326 20.2229 60 20.2847C59.6408 19.9111 59.3273 19.5222 59.0621 19.1211C58.8498 18.6887 7.37167 19.5534 7.37167 19.5534Z" fill="#44250C"/>
<path d="M62.2588 9L4.16118 9.63907C2.84821 10.0861 1.44897 10.4192 0 10.6296C0 10.8022 0.506492 14.0806 0.566079 15.4291C0.625667 16.7775 0.943466 19.6214 1.19175 19.7236C1.44003 19.8259 4.63788 19.9217 5.05499 19.9856C5.4721 20.0495 9.59356 19.8834 11.1428 19.8195C13.3438 19.7592 15.5482 19.772 17.7471 19.8578C19.4652 19.9473 26.2283 19.8578 29.9228 19.8578C33.6172 19.8578 40.3903 20.0943 44.8196 19.73C48.1355 19.4762 51.483 19.4398 54.8104 19.6214C56.9568 19.7055 59.1093 19.7055 61.2557 19.6214C62.2705 19.2206 63.216 18.7515 64.0762 18.2218C63.8239 16.6359 63.8907 15.0356 64.2748 13.4607C64.9303 10.9939 65.1091 9.74771 64.9402 9.3451C64.0601 9.18978 63.1641 9.07446 62.2588 9Z" fill="#623516"/>
<path d="M58.5881 8.48214C59.4024 8.55094 60.2084 8.65836 61 8.80357C60.9865 8.75637 60.9526 8.71288 60.9025 8.67857C60.6187 8.52381 59.8029 8 59.8029 8L5.12812 8.21429C4.36347 8.77887 3.65269 9.37529 3 10C4.29502 9.79832 5.54439 9.48206 6.71533 9.05952L58.5881 8.48214Z" fill="#44250C"/>
<path d="M3.25988 1.66841L2 3L63 1.8923L60.9697 0.0304339C60.9697 0.0304339 54.2171 -0.116866 44.1924 0.236654C34.1678 0.590174 19.4661 0.861205 13.4749 1.17937C7.48365 1.49754 3.93061 1.61538 3.25988 1.66841Z" fill="#8B5422"/>
<path d="M64.4498 6.44188C64.4498 6.50817 64.2471 8.32434 64.2471 8.37737C64.2471 8.43039 61.5542 8.82809 60.9751 8.89438C60.396 8.96066 48.6783 9.41139 42.8195 9.55721C36.9607 9.70304 33.2833 9.78921 27.5982 9.70967C21.9131 9.63013 18.0234 9.70967 13.1201 9.85549C8.21685 10.0013 7.26129 10.0278 6.30574 9.9748C5.35018 9.92177 0.861967 9.70967 0.630317 9.5307C0.398667 9.35174 0.369711 6.15687 0.167017 5.03667C0.0410146 4.25765 -0.0137878 3.47396 0.00293197 2.69023C0.912471 2.66158 1.8184 2.59294 2.71517 2.48475C4.48149 2.25276 7.12616 2.33893 9.38475 2.02077C11.6433 1.70261 15.3883 1.72249 17.6759 1.48387C19.9634 1.24525 26.0635 1.21874 29.9244 1.15245C33.7852 1.08617 49.6725 1 53.7939 1C57.9154 1 65 1.4441 65 1.4441L64.5753 5.85859" fill="#6E3D1A"/>
<path d="M10.4536 12.6213C10.9016 12.6157 11.1275 12.7648 11.1313 13.0688C11.1318 13.1088 11.126 13.2809 11.1138 13.5851C11.1017 13.8892 11.0906 14.2774 11.0805 14.7496C11.0705 15.2217 11.0683 15.6778 11.0738 16.1178C11.7548 15.5571 12.4191 14.9407 13.0666 14.2685C13.7141 13.5882 14.1071 13.0312 14.2456 12.5974C14.6625 12.6642 14.8724 12.8135 14.8753 13.0455C14.8783 13.2775 14.6035 13.693 14.051 14.292C13.4985 14.8911 12.8503 15.5113 12.1063 16.1527C13.0129 17.6214 13.7587 18.7041 14.3435 19.4007C14.441 19.5195 14.5181 19.6066 14.5748 19.6618C14.6314 19.7091 14.7161 19.7601 14.8288 19.8146C14.9415 19.8692 15.0658 19.8957 15.2018 19.8939C15.2978 19.8927 15.3896 19.8796 15.4773 19.8545C15.5107 19.9661 15.528 20.0658 15.5291 20.1538C15.5312 20.3218 15.4649 20.4507 15.33 20.5404C15.1951 20.6301 15.0277 20.6762 14.8277 20.6787C14.4837 20.6831 14.1212 20.4836 13.7401 20.0804C13.5616 19.8907 13.3545 19.6412 13.1186 19.3322C12.8825 19.0152 12.683 18.7377 12.52 18.4997C12.357 18.2617 12.145 17.9444 11.8839 17.5476C11.6229 17.1509 11.4516 16.8931 11.3701 16.7741C11.2354 16.8798 11.1404 16.953 11.0849 16.9937L11.0997 18.1696C11.1134 19.2495 11.1993 20.0405 11.3577 20.5425C11.2305 20.6081 11.0389 20.6426 10.783 20.6458C10.559 20.6486 10.4063 20.5985 10.325 20.4956C10.2436 20.3846 10.2014 20.2091 10.1984 19.9691C10.1967 19.8411 10.1968 19.5251 10.1984 19.021C10.2 18.517 10.1991 18.125 10.1955 17.845L10.1652 15.4452C10.151 14.3173 10.1113 13.3897 10.0461 12.6625C10.2058 12.6364 10.3416 12.6227 10.4536 12.6213ZM19.9702 14.2653C20.0977 14.2237 20.2454 14.2018 20.4134 14.1997C20.6134 14.1972 20.7499 14.2314 20.8228 14.3025C20.8957 14.3736 20.9334 14.5092 20.9359 14.7091C20.9444 15.3811 20.7278 16.2839 20.286 17.4176C19.8443 18.5512 19.3793 19.4252 18.891 20.0394C18.7098 20.2577 18.5635 20.3955 18.4522 20.453C18.3409 20.5104 18.1733 20.5405 17.9493 20.5433C17.8533 20.5445 17.7692 20.5376 17.697 20.5225C17.4764 19.5252 17.106 18.3858 16.5858 17.1042C16.0655 15.8147 15.6272 15.0042 15.271 14.6727C15.5241 14.4454 15.7827 14.3302 16.0467 14.3268C16.1667 14.3253 16.2671 14.3601 16.348 14.431C16.4289 14.502 16.5226 14.6368 16.6292 14.8355C16.8673 15.3206 17.1606 16.0529 17.509 17.0326C17.8573 18.0043 18.1318 18.8409 18.3327 19.5424C18.7577 18.985 19.1439 18.208 19.4914 17.2116C19.8468 16.215 20.02 15.3528 20.0108 14.6248C20.0089 14.4808 19.9954 14.361 19.9702 14.2653ZM23.1343 14.9334C23.1608 15.1251 23.1806 15.7449 23.1938 16.7928L23.9618 16.7831C24.4977 16.7763 24.8815 16.7595 25.1132 16.7326C25.138 16.7962 25.1511 16.8841 25.1526 16.9961C25.1546 17.1561 25.12 17.2685 25.0488 17.3334C24.9855 17.3902 24.8819 17.4235 24.738 17.4334C24.5702 17.4435 24.3422 17.4503 24.0542 17.454L23.2023 17.4647C23.2186 18.7526 23.2524 19.5283 23.3037 19.7916C23.5919 19.804 23.824 19.8091 23.9999 19.8069C25.0559 19.7935 25.7469 19.7128 26.0731 19.5647C26.1309 19.7079 26.1608 19.8596 26.1628 20.0196C26.1644 20.1476 26.1336 20.24 26.0703 20.2968C25.9514 20.3863 25.408 20.4371 24.4401 20.4494C24.2481 20.4518 23.9401 20.4517 23.516 20.449C23.0921 20.4544 22.8721 20.4572 22.8561 20.4574C22.656 20.4519 22.5194 20.4096 22.4464 20.3305C22.3814 20.2513 22.3478 20.1197 22.3454 19.9358C22.344 19.8238 22.3449 19.5797 22.3482 19.2037C22.3514 18.8196 22.3516 18.5196 22.3488 18.3036L22.3257 16.4677C22.3141 15.5558 22.2571 14.8405 22.1545 14.3217C22.9378 14.2558 23.6694 14.2186 24.3493 14.21C25.3172 14.1978 25.8618 14.2389 25.983 14.3334C26.0477 14.3886 26.0809 14.4802 26.0825 14.6082C26.0845 14.7681 26.0584 14.9205 26.0042 15.0652C25.6187 14.942 25.0179 14.8856 24.202 14.8959C23.89 14.8999 23.5341 14.9123 23.1343 14.9334ZM31.284 19.5109C31.4622 19.6846 31.6553 19.7702 31.8633 19.7676C31.9033 19.7671 31.9872 19.758 32.1149 19.7404C32.1724 19.8517 32.2017 19.9553 32.2029 20.0513C32.206 20.2993 31.9476 20.4266 31.4276 20.4331C31.1957 20.4361 30.9706 20.3549 30.7525 20.1896C30.5343 20.0164 30.3232 19.771 30.1192 19.4536C29.915 19.1281 29.7556 18.8581 29.6409 18.6435C29.5341 18.4209 29.4025 18.1385 29.2462 17.7965C29.0938 17.7664 29.0168 17.6873 29.0152 17.5594C29.0141 17.4794 29.0406 17.359 29.0946 17.1983C29.2711 17.2361 29.4233 17.2542 29.5513 17.2526C29.9193 17.2479 30.2179 17.1321 30.447 16.9052C30.6761 16.6703 30.7881 16.3569 30.7832 15.9649C30.7773 15.5009 30.6452 15.1786 30.3869 14.9978C30.1286 14.8171 29.7355 14.73 29.2075 14.7367C29.1595 14.7373 28.9197 14.7523 28.488 14.7818C28.5247 15.1494 28.5486 15.7771 28.5598 16.665L28.5832 18.5129C28.5937 19.3448 28.6614 19.956 28.7863 20.3465C28.6508 20.3882 28.4751 20.4104 28.2591 20.4131C28.0431 20.4159 27.8947 20.3777 27.8136 20.2987C27.7406 20.2197 27.7029 20.0841 27.7005 19.8921C27.6993 19.7962 27.7002 19.5521 27.7033 19.1601C27.7063 18.768 27.7064 18.46 27.7036 18.236L27.68 16.3641C27.6689 15.4842 27.6158 14.7688 27.5209 14.218C27.9519 14.1405 28.4554 14.0982 29.0314 14.0909C30.8232 14.0683 31.7271 14.6849 31.7429 15.9408C31.7492 16.4368 31.6103 16.8425 31.3263 17.1581C31.0502 17.4737 30.6769 17.6864 30.2062 17.7963C30.706 18.7261 31.0653 19.2976 31.284 19.5109ZM38.3991 20.2611C38.2394 20.2791 38.1155 20.2887 38.0275 20.2898C37.7555 20.2932 37.5625 20.2157 37.4485 20.0571C37.2039 19.6921 36.7426 18.9619 36.0647 17.8664C35.3868 16.7709 34.832 15.9178 34.4003 15.3072C34.4239 15.9069 34.4438 16.8508 34.46 18.1387C34.4734 19.1946 34.5463 19.9057 34.679 20.2721C34.5355 20.3139 34.3958 20.3356 34.2598 20.3374C34.0438 20.3401 33.8993 20.3019 33.8263 20.2228C33.7533 20.1437 33.7156 20.0082 33.7132 19.8162C33.7119 19.7202 33.7089 19.4763 33.7039 19.0843C33.707 18.6922 33.7071 18.3842 33.7042 18.1602L33.6806 16.2884C33.6675 15.2484 33.5985 14.5373 33.4737 14.1548C33.617 14.105 33.7887 14.0788 33.9887 14.0763C34.2367 14.0732 34.4458 14.1625 34.6161 14.3444C34.9322 14.6604 35.3961 15.2866 36.008 16.223C36.6198 17.1593 37.1591 18.0446 37.6256 18.8788C37.5784 18.3033 37.5475 17.4436 37.5331 16.2997C37.5222 15.4358 37.4888 14.6921 37.4329 14.0688C37.5607 14.0512 37.6766 14.0417 37.7806 14.0404C38.1485 14.0358 38.334 14.1534 38.3371 14.3934C38.3375 14.4254 38.331 14.5495 38.3178 14.7657C38.3125 14.9818 38.3039 15.2499 38.2919 15.5701C38.2879 15.8902 38.2878 16.1942 38.2914 16.4822L38.3117 18.09C38.3235 19.026 38.3527 19.7496 38.3991 20.2611ZM40.6412 18.0726L40.6176 16.2008C40.6071 15.3688 40.574 14.6492 40.5183 14.0418C40.662 14.016 40.8138 14.0021 40.9738 14.0001C41.3498 13.9953 41.5393 14.113 41.5423 14.3529C41.5427 14.3849 41.5363 14.513 41.5232 14.7372C41.51 14.9614 41.4975 15.2416 41.4858 15.5778C41.482 15.9138 41.482 16.2339 41.4859 16.5378C41.822 16.5416 42.326 16.5392 42.9979 16.5307C43.6459 16.5226 44.1338 16.5124 44.4616 16.5003L44.4568 16.1163C44.4382 15.2765 44.4053 14.5688 44.358 13.9934C44.5017 13.9675 44.6535 13.9536 44.8135 13.9516C45.1895 13.9469 45.379 14.0645 45.382 14.3045C45.3824 14.3365 45.376 14.4606 45.3627 14.6767C45.3494 14.8929 45.3368 15.1611 45.3248 15.4813C45.3209 15.8014 45.3207 16.1054 45.3244 16.3934L45.3481 18.2772C45.3588 19.1171 45.4305 19.7323 45.5635 20.1226C45.4441 20.1721 45.2684 20.1984 45.0364 20.2013C44.8204 20.204 44.6719 20.1659 44.5909 20.0869C44.5179 20.0078 44.4802 19.8723 44.4778 19.6803C44.4766 19.5843 44.4775 19.3403 44.4806 18.9482C44.4836 18.5561 44.4837 18.2481 44.4809 18.0241L44.4697 17.1362C44.1338 17.1484 43.6419 17.1587 42.9939 17.1668C42.322 17.1753 41.822 17.1776 41.4939 17.1738L41.5085 18.3257C41.5191 19.1656 41.5908 19.7808 41.7238 20.1711C41.6044 20.2206 41.4287 20.2468 41.1967 20.2498C40.9807 20.2525 40.8322 20.2144 40.7512 20.1354C40.6782 20.0563 40.6405 19.9208 40.6381 19.7288C40.6369 19.6328 40.6378 19.3888 40.6409 18.9967C40.6439 18.6046 40.644 18.2966 40.6412 18.0726ZM47.4894 13.9898C47.6328 13.94 47.8005 13.9139 47.9925 13.9115C48.2085 13.9087 48.3649 13.9428 48.4618 14.0136C48.5667 14.0842 48.6203 14.2076 48.6225 14.3836C48.6258 14.6475 48.6052 15.2278 48.5605 16.1245C48.5238 17.021 48.5086 17.7213 48.515 18.2252C48.5203 18.6492 48.6484 18.9676 48.8991 19.1804C49.1498 19.3933 49.4431 19.4976 49.7791 19.4934C50.0831 19.4895 50.4021 19.4135 50.7363 19.2653C51.0705 19.117 51.3403 18.9456 51.5459 18.751C51.5454 18.711 51.5441 18.611 51.5421 18.451C51.548 18.2829 51.5484 17.9989 51.5433 17.5989C51.5383 17.199 51.5318 16.687 51.5239 16.0631C51.5134 15.2311 51.4803 14.5115 51.4247 13.9041C51.5524 13.8785 51.7082 13.8646 51.8922 13.8622C52.2602 13.8576 52.4457 13.9753 52.4487 14.2152C52.4488 14.2232 52.4422 14.3393 52.4291 14.5635C52.4238 14.7796 52.4161 15.1197 52.406 15.5839C52.3958 16.048 52.3946 16.5841 52.4023 17.1921C52.4145 18.16 52.4307 18.8078 52.4508 19.1356C52.4789 19.4633 52.5388 19.7665 52.6303 20.0454C52.4948 20.0871 52.3191 20.1093 52.1031 20.1121C51.8951 20.1147 51.7507 20.0805 51.6698 20.0095C51.5888 19.9305 51.547 19.7871 51.5443 19.5791L51.5425 19.4351C51.2813 19.6544 50.9716 19.8383 50.6134 19.9869C50.2551 20.1274 49.924 20.1996 49.6201 20.2034C49.0121 20.2111 48.5264 20.0812 48.163 19.8138C47.8076 19.5463 47.6255 19.0605 47.6166 18.3566C47.6119 17.9886 47.6177 17.4925 47.6338 16.8682C47.6578 16.2359 47.6679 15.7677 47.6641 15.4637C47.6564 14.8558 47.5982 14.3645 47.4894 13.9898ZM57.5381 15.1711C57.4233 14.9485 57.225 14.767 56.9432 14.6265C56.6613 14.4781 56.3683 14.4058 56.0644 14.4096C55.7444 14.4136 55.4695 14.5011 55.2396 14.672C55.0176 14.8349 54.9086 15.0722 54.9126 15.3842C54.9157 15.6322 55.0023 15.8351 55.1723 15.993C55.3422 16.1429 55.5515 16.2482 55.8003 16.3091C56.0571 16.3698 56.33 16.4424 56.6191 16.5268C56.9162 16.611 57.1894 16.7036 57.4387 16.8044C57.6959 16.8972 57.9101 17.0665 58.0812 17.3124C58.2522 17.5502 58.34 17.8491 58.3445 18.2091C58.3527 18.8571 58.1307 19.3359 57.6786 19.6456C57.2345 19.9553 56.6884 20.1142 56.0405 20.1224C55.5125 20.129 55.0435 20.0469 54.6333 19.8761C54.2311 19.7052 54.0284 19.4917 54.0251 19.2357C54.0226 19.0357 54.2002 18.8455 54.558 18.665C54.689 18.9033 54.9154 19.0965 55.2373 19.2444C55.5672 19.3923 55.9042 19.464 56.2481 19.4597C56.6001 19.4552 56.903 19.3674 57.1569 19.1962C57.4186 19.0169 57.5475 18.7672 57.5435 18.4472C57.5399 18.1673 57.4212 17.9488 57.1872 17.7917C56.953 17.6266 56.6675 17.5062 56.3305 17.4305C56.0015 17.3546 55.6684 17.2668 55.3311 17.1671C55.0017 17.0592 54.7194 16.8788 54.4842 16.6257C54.2489 16.3647 54.1286 16.0222 54.1232 15.5982C54.1157 15.0063 54.314 14.5517 54.718 14.2346C55.1221 13.9175 55.6401 13.7549 56.272 13.7469C56.736 13.7411 57.161 13.8157 57.5469 13.9708C57.9408 14.1179 58.1395 14.3314 58.1431 14.6114C58.1467 14.8994 57.945 15.0859 57.5381 15.1711Z" fill="white"/>
</svg>
